<svg width="398" height="auto" viewBox="0 0 398 398" version="1.1" xmlns="http://www.w3.org/2000/svg" xmlns:xlink="http://www.w3.org/1999/xlink">
<g id="Canvas1" transform="translate(-3242 -1109)">
<g id="1">
<g id="rect1" filter="url(#filter_red1)">
<use xlink:href="#back_red" transform="translate(3255 1117)" fill="#FFFFFF"/>
</g>
<g id="rect2" filter="url(#filter_red2)" style="mix-blend-mode:hard-light">
<use xlink:href="#back_red_2" transform="translate(3245 1107)" fill="#DE2738"/>
</g>
<g id="Vector 5">
<use xlink:href="#triangle_red" transform="translate(3246 1304.5)" fill="#E42645"/>
</g>
</g>
</g>
<defs>
<filter id="filter_red1" filterUnits="userSpaceOnUse" x="3242" y="1110" width="398" height="418" color-interpolation-filters="sRGB">
<feFlood flood-opacity="0" result="BackgroundImageFix"/>
<feColorMatrix in="SourceAlpha" type="matrix" values="0 0 0 0 0 0 0 0 0 0 0 0 0 0 0 0 0 0 255 0"/>
<feOffset dx="0" dy="5"/>
<feGaussianBlur stdDeviation="6"/>
<feColorMatrix type="matrix" values="0 0 0 0 0 0 0 0 0 0 0 0 0 0 0 0 0 0 0.15 0"/>
<feBlend mode="normal" in2="BackgroundImageFix" result="effect1_dropShadow"/>
<feBlend mode="normal" in="SourceGraphic" in2="effect1_dropShadow" result="shape"/>
</filter>
<filter id="filter_red2" filterUnits="userSpaceOnUse" x="3241" y="1108" width="380" height="399" color-interpolation-filters="sRGB">
<feFlood flood-opacity="0" result="BackgroundImageFix"/>
<feColorMatrix in="SourceAlpha" type="matrix" values="0 0 0 0 0 0 0 0 0 0 0 0 0 0 0 0 0 0 255 0"/>
<feOffset dx="0" dy="4"/>
<feGaussianBlur stdDeviation="2"/>
<feColorMatrix type="matrix" values="0 0 0 0 0 0 0 0 0 0 0 0 0 0 0 0 0 0 0.25 0"/>
<feBlend mode="normal" in2="BackgroundImageFix" result="effect1_dropShadow"/>
<feBlend mode="normal" in="SourceGraphic" in2="effect1_dropShadow" result="shape"/>
</filter>
<path id="back_red" d="M 0.999936 1.99998L 0.999936 0.499977L -0.500064 0.499977L -0.500064 1.99998L 0.999936 1.99998ZM 371 1.99998L 372.5 1.99998L 372.5 0.499977L 371 0.499977L 371 1.99998ZM 371 392L 371 393.5L 372.5 393.5L 372.5 392L 371 392ZM 0.999936 392L -0.500064 392L -0.500064 393.5L 0.999936 393.5L 0.999936 392ZM 0.999936 3.49998L 371 3.49998L 371 0.499977L 0.999936 0.499977L 0.999936 3.49998ZM 369.5 1.99998L 369.5 392L 372.5 392L 372.5 1.99998L 369.5 1.99998ZM 371 390.5L 0.999936 390.5L 0.999936 393.5L 371 393.5L 371 390.5ZM 2.49994 392L 2.49994 1.99998L -0.500064 1.99998L -0.500064 392L 2.49994 392Z"/>
<path id="back_red_2" fill-rule="evenodd" d="M 0.999936 1.99998L 371 1.99998L 371 392L 0.999936 392L 0.999936 1.99998Z"/>
<path id="triangle_red" d="M 179.5 0L 0 194.5L 369 194.5L 179.5 0Z"/>
</defs>
</svg>
