<!-- <svg width="243" height="243" viewBox="0 0 243 243" version="1.1" xmlns="http://www.w3.org/2000/svg" xmlns:xlink="http://www.w3.org/1999/xlink"> -->
<svg {{ with .size }} height="{{ . }}" width="{{ . }}" {{ end }} viewBox="0 0 243 243" version="1.1" xmlns="http://www.w3.org/2000/svg" xmlns:xlink="http://www.w3.org/1999/xlink">
<title>2 2</title>
<desc>Created using Figma</desc>
<g id="Canvas" transform="translate(-3712 -265)">
<g id="2 2">
<g id="Group">
<g id="Vector">
<mask id="mask0_outline_ins">
<use xlink:href="#path0_fill" fill="white" transform="translate(3717.82 270.82)"/>
</mask>
<g mask="url(#mask0_outline_ins)">
<use xlink:href="#path1_stroke_2x" transform="translate(3717.82 270.82)" fill="#FFFFFF" style="mix-blend-mode:overlay"/>
</g>
</g>
<g id="Vector">
<mask id="mask1_outline_ins">
<use xlink:href="#path2_fill" fill="white" transform="translate(3712 265)"/>
</mask>
<g mask="url(#mask1_outline_ins)">
<use xlink:href="#path3_stroke_2x" transform="translate(3712 265)" fill="#FFFFFF" style="mix-blend-mode:overlay"/>
</g>
</g>
<g id="Group" style="mix-blend-mode:overlay">
<g id="Vector">
<use xlink:href="#path4_fill" transform="translate(3738.19 291.192)" fill="#333333"/>
</g>
<g id="Vector">
<use xlink:href="#path5_fill" transform="translate(3773.55 330.61)" fill="#FCD929"/>
</g>
</g>
<g id="Group" style="mix-blend-mode:overlay">
<g id="Vector">
<use xlink:href="#path4_fill" transform="translate(3738.19 291.192)" fill="#333333"/>
</g>
<g id="Vector">
<use xlink:href="#path5_fill" transform="translate(3773.55 330.61)" fill="#FCD929"/>
</g>
</g>
<g id="Group" style="mix-blend-mode:overlay">
<g id="Vector">
<use xlink:href="#path4_fill" transform="translate(3738.19 291.192)" fill="#333333"/>
</g>
<g id="Vector">
<use xlink:href="#path5_fill" transform="translate(3773.55 330.61)" fill="#FCD929"/>
</g>
</g>
<g id="Group" style="mix-blend-mode:hard-light">
<g id="Vector">
<use xlink:href="#path4_fill" transform="translate(3738.19 291.192)" fill="#333333"/>
</g>
<g id="Vector">
<use xlink:href="#path5_fill" transform="translate(3773.55 330.61)" fill="#FCD929"/>
</g>
</g>
</g>
</g>
</g>
<defs>
<path id="path0_fill" d="M 115.68 231.359C 179.568 231.359 231.359 179.568 231.359 115.68C 231.359 51.7915 179.568 0 115.68 0C 51.7915 0 0 51.7915 0 115.68C 0 179.568 51.7915 231.359 115.68 231.359Z"/>
<path id="path1_stroke_2x" d="M 230.359 115.68C 230.359 179.015 179.015 230.359 115.68 230.359L 115.68 232.359C 180.12 232.359 232.359 180.12 232.359 115.68L 230.359 115.68ZM 115.68 230.359C 52.3438 230.359 1 179.015 1 115.68L -1 115.68C -1 180.12 51.2393 232.359 115.68 232.359L 115.68 230.359ZM 1 115.68C 1 52.3438 52.3438 1 115.68 1L 115.68 -1C 51.2393 -1 -1 51.2393 -1 115.68L 1 115.68ZM 115.68 1C 179.015 1 230.359 52.3438 230.359 115.68L 232.359 115.68C 232.359 51.2393 180.12 -1 115.68 -1L 115.68 1Z"/>
<path id="path2_fill" d="M 121.5 243C 188.603 243 243 188.603 243 121.5C 243 54.3974 188.603 0 121.5 0C 54.3974 0 0 54.3974 0 121.5C 0 188.603 54.3974 243 121.5 243Z"/>
<path id="path3_stroke_2x" d="M 242 121.5C 242 188.05 188.05 242 121.5 242L 121.5 244C 189.155 244 244 189.155 244 121.5L 242 121.5ZM 121.5 242C 54.9497 242 1 188.05 1 121.5L -1 121.5C -1 189.155 53.8451 244 121.5 244L 121.5 242ZM 1 121.5C 1 54.9497 54.9497 1 121.5 1L 121.5 -1C 53.8451 -1 -1 53.8451 -1 121.5L 1 121.5ZM 121.5 1C 188.05 1 242 54.9497 242 121.5L 244 121.5C 244 53.8451 189.155 -1 121.5 -1L 121.5 1Z"/>
<path id="path4_fill" d="M 95.3084 190.617C 147.946 190.617 190.617 147.946 190.617 95.3084C 190.617 42.671 147.946 0 95.3084 0C 42.671 0 0 42.671 0 95.3084C 0 147.946 42.671 190.617 95.3084 190.617Z"/>
<path id="path5_fill" d="M 70.0917 68.6802L 42.1685 68.6802L 48.5418 40.3205L 76.465 40.3205L 70.0917 68.6802ZM 109.554 68.6802L 88.0184 68.6802L 94.3917 40.3205L 115.971 40.3205L 119.899 22.8595L 98.3204 22.8595L 103.457 3.55247e-06L 85.5156 3.55247e-06L 80.3792 22.8595L 52.4705 22.8595L 57.607 3.55247e-06L 39.6657 3.55247e-06L 34.4856 22.8158L 14.2744 22.8158L 10.3457 40.2769L 30.6005 40.2769L 24.3 68.6802L 3.92874 68.6802L 4.44058e-06 86.1413L 20.2549 86.1413L 15.1911 108.855L 33.1324 108.855L 38.2398 86.1268L 66.1629 86.1268L 61.0556 108.855L 78.9968 108.855L 84.1042 86.1268L 105.625 86.1268L 109.554 68.6802Z"/>
</defs>
</svg>
