<svg viewBox="0 0 398 398" version="1.1" xmlns="http://www.w3.org/2000/svg" xmlns:xlink="http://www.w3.org/1999/xlink">
<title>2</title>
<desc>Created using Figma</desc>
<g id="Canvas2" transform="translate(-3642 -1109)">
<g id="2">
<g id="rect3" filter="url(#filter_blue1)">
<use xlink:href="#back_blue" transform="translate(3655 1117)" fill="#FFFFFF"/>
</g>
<g id="rect3_1" filter="url(#filter_blue2)" style="mix-blend-mode:hard-light">
<use xlink:href="#back_blue_1" transform="translate(3646 1109)" fill="#162E8E"/>
</g>
<g id="Vector 6">
<use xlink:href="#triangle_blue" transform="translate(3647 1300)" fill="#2832B6"/>
</g>
</g>
</g>
<defs>
<filter id="filter_blue1" filterUnits="userSpaceOnUse" x="3642" y="1110" width="398" height="418" color-interpolation-filters="sRGB">
<feFlood flood-opacity="0" result="BackgroundImageFix"/>
<feColorMatrix in="SourceAlpha" type="matrix" values="0 0 0 0 0 0 0 0 0 0 0 0 0 0 0 0 0 0 255 0"/>
<feOffset dx="0" dy="5"/>
<feGaussianBlur stdDeviation="6"/>
<feColorMatrix type="matrix" values="0 0 0 0 0 0 0 0 0 0 0 0 0 0 0 0 0 0 0.15 0"/>
<feBlend mode="normal" in2="BackgroundImageFix" result="effect1_dropShadow"/>
<feBlend mode="normal" in="SourceGraphic" in2="effect1_dropShadow" result="shape"/>
</filter>
<filter id="filter_blue2" filterUnits="userSpaceOnUse" x="3642" y="1109" width="378" height="398" color-interpolation-filters="sRGB">
<feFlood flood-opacity="0" result="BackgroundImageFix"/>
<feColorMatrix in="SourceAlpha" type="matrix" values="0 0 0 0 0 0 0 0 0 0 0 0 0 0 0 0 0 0 255 0"/>
<feOffset dx="0" dy="4"/>
<feGaussianBlur stdDeviation="2"/>
<feColorMatrix type="matrix" values="0 0 0 0 0 0 0 0 0 0 0 0 0 0 0 0 0 0 0.25 0"/>
<feBlend mode="normal" in2="BackgroundImageFix" result="effect1_dropShadow"/>
<feBlend mode="normal" in="SourceGraphic" in2="effect1_dropShadow" result="shape"/>
</filter>
<path id="back_blue" d="M 0.999936 1.99998L 0.999936 0.499977L -0.500064 0.499977L -0.500064 1.99998L 0.999936 1.99998ZM 371 1.99998L 372.5 1.99998L 372.5 0.499977L 371 0.499977L 371 1.99998ZM 371 392L 371 393.5L 372.5 393.5L 372.5 392L 371 392ZM 0.999936 392L -0.500064 392L -0.500064 393.5L 0.999936 393.5L 0.999936 392ZM 0.999936 3.49998L 371 3.49998L 371 0.499977L 0.999936 0.499977L 0.999936 3.49998ZM 369.5 1.99998L 369.5 392L 372.5 392L 372.5 1.99998L 369.5 1.99998ZM 371 390.5L 0.999936 390.5L 0.999936 393.5L 371 393.5L 371 390.5ZM 2.49994 392L 2.49994 1.99998L -0.500064 1.99998L -0.500064 392L 2.49994 392Z"/>
<path id="back_blue_1" fill-rule="evenodd" d="M 0 0L 370 0L 370 390L 0 390L 0 0Z"/>
<path id="triangle_blue" d="M 183 0L 0 199L 366 199L 183 0Z"/>
</defs>
</svg>
