<svg viewBox="0 0 16 13" version="1.1" xmlns="http://www.w3.org/2000/svg" xmlns:xlink="http://www.w3.org/1999/xlink">
<title>Vector</title>
<desc>Created using Figma</desc>
<g id="Canvas_arrow" transform="translate(-6185 -331)">
<g id="Vector_arrow">
<use xlink:href="#path0_fill_arrow" transform="matrix(1 0 0 -1 6185 344)" fill="#2D9CDB"/>
</g>
</g>
<defs>
<path id="path0_fill_arrow" d="M 15.1006 5.27263L 15.1256 5.27798L 4.41912 5.27798L 7.78485 1.97832C 7.94966 1.81722 8.04007 1.59899 8.04007 1.36995C 8.04007 1.1409 7.94966 0.9242 7.78485 0.762722L 7.26114 0.250169C 7.09646 0.0890733 6.87701 -6.79576e-09 6.64299 -6.79576e-09C 6.40885 -6.79576e-09 6.18927 0.0884372 6.02459 0.249533L 0.255093 5.89284C 0.0897596 6.05457 -0.000646921 6.27 3.48505e-06 6.49917C -0.000646921 6.72962 0.0897596 6.94518 0.255093 7.10665L 6.02459 12.7505C 6.18927 12.9114 6.40872 13 6.64299 13C 6.87701 13 7.09646 12.9113 7.26114 12.7505L 7.78485 12.2379C 7.94966 12.0771 8.04007 11.8623 8.04007 11.6332C 8.04007 11.4043 7.94966 11.2008 7.78485 11.0399L 4.38114 7.72177L 15.1126 7.72177C 15.5948 7.72177 16 7.31521 16 6.84376L 16 6.11883C 16 5.64738 15.5828 5.27263 15.1006 5.27263Z"/>
</defs>
</svg>
