<svg width="1170" height="541" viewBox="0 0 1170 541" version="1.1" xmlns="http://www.w3.org/2000/svg" xmlns:xlink="http://www.w3.org/1999/xlink">
<title>base</title>
<desc>Created using Figma</desc>
<g id="Canvas" transform="translate(-3245 -1046)">
<g id="base">
<g id="Subscribe to stay informed">
<use xlink:href="#path0_fill" transform="translate(3697 1562)" fill="#001546"/>
<use xlink:href="#path1_fill" transform="translate(3697 1562)" fill="#001546"/>
</g>
<g id="Rectangle 7">
<mask id="mask0_outline_ins">
<use xlink:href="#path2_fill" fill="white" transform="translate(3255 1056)"/>
</mask>
<g mask="url(#mask0_outline_ins)">
<use xlink:href="#path3_stroke_2x" transform="translate(3255 1056)" fill="#FFFFFF"/>
</g>
</g>
<g id="Rectangle 7" opacity="0.8">
<use xlink:href="#path2_fill" transform="translate(3245 1046)" fill="#001036" style="mix-blend-mode:hard-light"/>
</g>
</g>
</g>
<defs>
<path id="path0_fill" d="M 6.71875 13.0283C 4.94987 12.5199 3.66081 11.8968 2.85156 11.1592C 2.04948 10.4144 1.64844 9.49772 1.64844 8.40918C 1.64844 7.17741 2.139 6.16048 3.12012 5.3584C 4.1084 4.54915 5.3903 4.14453 6.96582 4.14453C 8.04004 4.14453 8.99609 4.35221 9.83398 4.76758C 10.679 5.18294 11.3307 5.75586 11.7891 6.48633C 12.2546 7.2168 12.4873 8.0153 12.4873 8.88184L 10.4141 8.88184C 10.4141 7.93652 10.1133 7.19531 9.51172 6.6582C 8.91016 6.11393 8.06152 5.8418 6.96582 5.8418C 5.94889 5.8418 5.15397 6.06738 4.58105 6.51855C 4.0153 6.96257 3.73242 7.58203 3.73242 8.37695C 3.73242 9.01432 4.00098 9.55501 4.53809 9.99902C 5.08236 10.4359 6.0026 10.8369 7.29883 11.2021C 8.60221 11.5674 9.61914 11.972 10.3496 12.416C 11.0872 12.8529 11.6315 13.3649 11.9824 13.9521C 12.3405 14.5394 12.5195 15.2305 12.5195 16.0254C 12.5195 17.293 12.0254 18.3099 11.0371 19.0762C 10.0488 19.8353 8.72754 20.2148 7.07324 20.2148C 5.99902 20.2148 4.99642 20.0107 4.06543 19.6025C 3.13444 19.1872 2.41471 18.6214 1.90625 17.9053C 1.40495 17.1891 1.1543 16.3763 1.1543 15.4668L 3.22754 15.4668C 3.22754 16.4121 3.57487 17.1605 4.26953 17.7119C 4.97135 18.2562 5.90592 18.5283 7.07324 18.5283C 8.16178 18.5283 8.99609 18.3063 9.57617 17.8623C 10.1562 17.4183 10.4463 16.8132 10.4463 16.0469C 10.4463 15.2806 10.1777 14.6898 9.64062 14.2744C 9.10352 13.8519 8.12956 13.4365 6.71875 13.0283ZM 22.0371 18.8506C 21.2637 19.7601 20.1286 20.2148 18.6318 20.2148C 17.3929 20.2148 16.4476 19.8568 15.7959 19.1406C 15.1514 18.4173 14.8255 17.3503 14.8184 15.9395L 14.8184 8.37695L 16.8057 8.37695L 16.8057 15.8857C 16.8057 17.6475 17.5218 18.5283 18.9541 18.5283C 20.4723 18.5283 21.4821 17.9626 21.9834 16.8311L 21.9834 8.37695L 23.9707 8.37695L 23.9707 20L 22.0801 20L 22.0371 18.8506ZM 36.8398 14.3174C 36.8398 16.0934 36.4316 17.5221 35.6152 18.6035C 34.7988 19.6777 33.7031 20.2148 32.3281 20.2148C 30.86 20.2148 29.7249 19.6956 28.9229 18.6572L 28.8262 20L 27 20L 27 3.5L 28.9873 3.5L 28.9873 9.65527C 29.7894 8.65983 30.8958 8.16211 32.3066 8.16211C 33.7174 8.16211 34.8239 8.69564 35.626 9.7627C 36.4352 10.8298 36.8398 12.2907 36.8398 14.1455L 36.8398 14.3174ZM 34.8525 14.0918C 34.8525 12.7383 34.5911 11.6927 34.0684 10.9551C 33.5456 10.2174 32.7936 9.84863 31.8125 9.84863C 30.502 9.84863 29.5602 10.4574 28.9873 11.6748L 28.9873 16.7021C 29.596 17.9196 30.5449 18.5283 31.834 18.5283C 32.7865 18.5283 33.5277 18.1595 34.0576 17.4219C 34.5876 16.6842 34.8525 15.5742 34.8525 14.0918ZM 46.1211 16.917C 46.1211 16.3799 45.917 15.9645 45.5088 15.6709C 45.1077 15.3701 44.4023 15.1123 43.3926 14.8975C 42.39 14.6826 41.5915 14.4248 40.9971 14.124C 40.4098 13.8232 39.973 13.4652 39.6865 13.0498C 39.4072 12.6344 39.2676 12.1403 39.2676 11.5674C 39.2676 10.6149 39.6686 9.80924 40.4707 9.15039C 41.2799 8.49154 42.3112 8.16211 43.5645 8.16211C 44.8822 8.16211 45.9492 8.50228 46.7656 9.18262C 47.5892 9.86296 48.001 10.7331 48.001 11.793L 46.0029 11.793C 46.0029 11.2487 45.7702 10.7796 45.3047 10.3857C 44.8464 9.99186 44.2663 9.79492 43.5645 9.79492C 42.8411 9.79492 42.2754 9.95247 41.8672 10.2676C 41.459 10.5827 41.2549 10.9945 41.2549 11.5029C 41.2549 11.9827 41.4447 12.3444 41.8242 12.5879C 42.2038 12.8314 42.8877 13.0641 43.876 13.2861C 44.8714 13.5081 45.6771 13.7731 46.293 14.0811C 46.9089 14.389 47.3636 14.7614 47.6572 15.1982C 47.958 15.6279 48.1084 16.1543 48.1084 16.7773C 48.1084 17.8158 47.693 18.6501 46.8623 19.2803C 46.0316 19.9033 44.9538 20.2148 43.6289 20.2148C 42.6979 20.2148 41.8743 20.0501 41.1582 19.7207C 40.4421 19.3913 39.8799 18.9329 39.4717 18.3457C 39.0706 17.7513 38.8701 17.1104 38.8701 16.4229L 40.8574 16.4229C 40.8932 17.0889 41.1582 17.6188 41.6523 18.0127C 42.1536 18.3994 42.8125 18.5928 43.6289 18.5928C 44.3809 18.5928 44.9824 18.4424 45.4336 18.1416C 45.8919 17.8337 46.1211 17.4255 46.1211 16.917ZM 55.3594 18.5928C 56.0684 18.5928 56.6878 18.3779 57.2178 17.9482C 57.7477 17.5186 58.0413 16.9814 58.0986 16.3369L 59.9785 16.3369C 59.9427 17.0029 59.7135 17.6367 59.291 18.2383C 58.8685 18.8398 58.3027 19.3197 57.5938 19.6777C 56.8919 20.0358 56.1471 20.2148 55.3594 20.2148C 53.7767 20.2148 52.5163 19.6885 51.5781 18.6357C 50.6471 17.5758 50.1816 16.1292 50.1816 14.2959L 50.1816 13.9629C 50.1816 12.8314 50.3893 11.8252 50.8047 10.9443C 51.2201 10.0635 51.8145 9.37956 52.5879 8.89258C 53.3685 8.4056 54.2887 8.16211 55.3486 8.16211C 56.652 8.16211 57.7334 8.55241 58.5928 9.33301C 59.4593 10.1136 59.9212 11.127 59.9785 12.373L 58.0986 12.373C 58.0413 11.6211 57.7549 11.0052 57.2393 10.5254C 56.7308 10.0384 56.1006 9.79492 55.3486 9.79492C 54.3389 9.79492 53.5547 10.1602 52.9961 10.8906C 52.4447 11.6139 52.1689 12.6631 52.1689 14.0381L 52.1689 14.4141C 52.1689 15.7533 52.4447 16.7845 52.9961 17.5078C 53.5475 18.2311 54.3353 18.5928 55.3594 18.5928ZM 67.8311 10.1602C 67.5303 10.11 67.2044 10.085 66.8535 10.085C 65.5501 10.085 64.6657 10.64 64.2002 11.75L 64.2002 20L 62.2129 20L 62.2129 8.37695L 64.1465 8.37695L 64.1787 9.71973C 64.8304 8.68132 65.7542 8.16211 66.9502 8.16211C 67.3369 8.16211 67.6305 8.21224 67.8311 8.3125L 67.8311 10.1602ZM 71.8271 20L 69.8398 20L 69.8398 8.37695L 71.8271 8.37695L 71.8271 20ZM 69.6787 5.29395C 69.6787 4.97168 69.7754 4.69954 69.9688 4.47754C 70.1693 4.25553 70.4629 4.14453 70.8496 4.14453C 71.2363 4.14453 71.5299 4.25553 71.7305 4.47754C 71.931 4.69954 72.0312 4.97168 72.0312 5.29395C 72.0312 5.61621 71.931 5.88477 71.7305 6.09961C 71.5299 6.31445 71.2363 6.42188 70.8496 6.42188C 70.4629 6.42188 70.1693 6.31445 69.9688 6.09961C 69.7754 5.88477 69.6787 5.61621 69.6787 5.29395ZM 84.8574 14.3174C 84.8574 16.0934 84.4492 17.5221 83.6328 18.6035C 82.8164 19.6777 81.7207 20.2148 80.3457 20.2148C 78.8776 20.2148 77.7425 19.6956 76.9404 18.6572L 76.8438 20L 75.0176 20L 75.0176 3.5L 77.0049 3.5L 77.0049 9.65527C 77.807 8.65983 78.9134 8.16211 80.3242 8.16211C 81.735 8.16211 82.8415 8.69564 83.6436 9.7627C 84.4528 10.8298 84.8574 12.2907 84.8574 14.1455L 84.8574 14.3174ZM 82.8701 14.0918C 82.8701 12.7383 82.6087 11.6927 82.0859 10.9551C 81.5632 10.2174 80.8112 9.84863 79.8301 9.84863C 78.5195 9.84863 77.5778 10.4574 77.0049 11.6748L 77.0049 16.7021C 77.6136 17.9196 78.5625 18.5283 79.8516 18.5283C 80.804 18.5283 81.5452 18.1595 82.0752 17.4219C 82.6051 16.6842 82.8701 15.5742 82.8701 14.0918ZM 92.1943 20.2148C 90.6188 20.2148 89.3369 19.6992 88.3486 18.668C 87.3604 17.6296 86.8662 16.2438 86.8662 14.5107L 86.8662 14.1455C 86.8662 12.9925 87.0846 11.9648 87.5215 11.0625C 87.9655 10.153 88.5814 9.44401 89.3691 8.93555C 90.1641 8.41992 91.0234 8.16211 91.9473 8.16211C 93.4583 8.16211 94.6328 8.65983 95.4707 9.65527C 96.3086 10.6507 96.7275 12.0758 96.7275 13.9307L 96.7275 14.7578L 88.8535 14.7578C 88.8822 15.9036 89.2152 16.8311 89.8525 17.54C 90.4971 18.2419 91.3135 18.5928 92.3018 18.5928C 93.0036 18.5928 93.598 18.4495 94.085 18.1631C 94.5719 17.8766 94.998 17.4971 95.3633 17.0244L 96.5771 17.9697C 95.6032 19.4665 94.1423 20.2148 92.1943 20.2148ZM 91.9473 9.79492C 91.1452 9.79492 90.472 10.0885 89.9277 10.6758C 89.3835 11.2559 89.0469 12.0723 88.918 13.125L 94.7402 13.125L 94.7402 12.9746C 94.6829 11.9648 94.4108 11.1842 93.9238 10.6328C 93.4368 10.0742 92.778 9.79492 91.9473 9.79492ZM 107.19 5.5625L 107.19 8.37695L 109.36 8.37695L 109.36 9.91309L 107.19 9.91309L 107.19 17.1211C 107.19 17.5866 107.287 17.9375 107.48 18.1738C 107.674 18.403 108.003 18.5176 108.469 18.5176C 108.698 18.5176 109.013 18.4746 109.414 18.3887L 109.414 20C 108.891 20.1432 108.383 20.2148 107.889 20.2148C 107.001 20.2148 106.331 19.9463 105.88 19.4092C 105.429 18.8721 105.203 18.1094 105.203 17.1211L 105.203 9.91309L 103.087 9.91309L 103.087 8.37695L 105.203 8.37695L 105.203 5.5625L 107.19 5.5625ZM 110.95 14.0811C 110.95 12.9424 111.172 11.9183 111.616 11.0088C 112.067 10.0993 112.69 9.39746 113.485 8.90332C 114.287 8.40918 115.201 8.16211 116.225 8.16211C 117.807 8.16211 119.086 8.70996 120.06 9.80566C 121.041 10.9014 121.531 12.3587 121.531 14.1777L 121.531 14.3174C 121.531 15.4489 121.313 16.4658 120.876 17.3682C 120.446 18.2633 119.827 18.9616 119.018 19.4629C 118.215 19.9642 117.292 20.2148 116.246 20.2148C 114.671 20.2148 113.392 19.667 112.411 18.5713C 111.437 17.4756 110.95 16.0254 110.95 14.2207L 110.95 14.0811ZM 112.948 14.3174C 112.948 15.6064 113.245 16.6413 113.84 17.4219C 114.441 18.2025 115.243 18.5928 116.246 18.5928C 117.256 18.5928 118.058 18.1989 118.652 17.4111C 119.247 16.6162 119.544 15.5062 119.544 14.0811C 119.544 12.8063 119.24 11.7751 118.631 10.9873C 118.029 10.1924 117.227 9.79492 116.225 9.79492C 115.243 9.79492 114.452 10.1852 113.851 10.9658C 113.249 11.7464 112.948 12.8636 112.948 14.3174ZM 136.248 16.917C 136.248 16.3799 136.044 15.9645 135.636 15.6709C 135.235 15.3701 134.529 15.1123 133.52 14.8975C 132.517 14.6826 131.718 14.4248 131.124 14.124C 130.537 13.8232 130.1 13.4652 129.813 13.0498C 129.534 12.6344 129.395 12.1403 129.395 11.5674C 129.395 10.6149 129.796 9.80924 130.598 9.15039C 131.407 8.49154 132.438 8.16211 133.691 8.16211C 135.009 8.16211 136.076 8.50228 136.893 9.18262C 137.716 9.86296 138.128 10.7331 138.128 11.793L 136.13 11.793C 136.13 11.2487 135.897 10.7796 135.432 10.3857C 134.973 9.99186 134.393 9.79492 133.691 9.79492C 132.968 9.79492 132.402 9.95247 131.994 10.2676C 131.586 10.5827 131.382 10.9945 131.382 11.5029C 131.382 11.9827 131.572 12.3444 131.951 12.5879C 132.331 12.8314 133.015 13.0641 134.003 13.2861C 134.998 13.5081 135.804 13.7731 136.42 14.0811C 137.036 14.389 137.491 14.7614 137.784 15.1982C 138.085 15.6279 138.235 16.1543 138.235 16.7773C 138.235 17.8158 137.82 18.6501 136.989 19.2803C 136.159 19.9033 135.081 20.2148 133.756 20.2148C 132.825 20.2148 132.001 20.0501 131.285 19.7207C 130.569 19.3913 130.007 18.9329 129.599 18.3457C 129.198 17.7513 128.997 17.1104 128.997 16.4229L 130.984 16.4229C 131.02 17.0889 131.285 17.6188 131.779 18.0127C 132.281 18.3994 132.939 18.5928 133.756 18.5928C 134.508 18.5928 135.109 18.4424 135.561 18.1416C 136.019 17.8337 136.248 17.4255 136.248 16.917ZM 143.521 5.5625L 143.521 8.37695L 145.69 8.37695L 145.69 9.91309L 143.521 9.91309L 143.521 17.1211C 143.521 17.5866 143.617 17.9375 143.811 18.1738C 144.004 18.403 144.333 18.5176 144.799 18.5176C 145.028 18.5176 145.343 18.4746 145.744 18.3887L 145.744 20C 145.221 20.1432 144.713 20.2148 144.219 20.2148C 143.331 20.2148 142.661 19.9463 142.21 19.4092C 141.759 18.8721 141.533 18.1094 141.533 17.1211L 141.533 9.91309L 139.417 9.91309L 139.417 8.37695L 141.533 8.37695L 141.533 5.5625L 143.521 5.5625ZM 155.197 20C 155.083 19.7708 154.99 19.3626 154.918 18.7754C 153.994 19.735 152.891 20.2148 151.609 20.2148C 150.464 20.2148 149.522 19.8926 148.784 19.248C 148.054 18.5964 147.688 17.7728 147.688 16.7773C 147.688 15.5671 148.147 14.6289 149.063 13.9629C 149.987 13.2897 151.284 12.9531 152.952 12.9531L 154.886 12.9531L 154.886 12.04C 154.886 11.3454 154.678 10.7939 154.263 10.3857C 153.847 9.97038 153.235 9.7627 152.426 9.7627C 151.717 9.7627 151.122 9.94173 150.643 10.2998C 150.163 10.6579 149.923 11.0911 149.923 11.5996L 147.925 11.5996C 147.925 11.0195 148.129 10.4609 148.537 9.92383C 148.952 9.37956 149.511 8.94987 150.213 8.63477C 150.922 8.31966 151.699 8.16211 152.544 8.16211C 153.883 8.16211 154.932 8.4987 155.691 9.17188C 156.451 9.83789 156.844 10.7581 156.873 11.9326L 156.873 17.2822C 156.873 18.3493 157.009 19.1979 157.281 19.8281L 157.281 20L 155.197 20ZM 151.899 18.4854C 152.522 18.4854 153.113 18.3242 153.672 18.002C 154.23 17.6797 154.635 17.2607 154.886 16.7451L 154.886 14.3604L 153.328 14.3604C 150.893 14.3604 149.676 15.0729 149.676 16.498C 149.676 17.1211 149.883 17.6081 150.299 17.959C 150.714 18.3099 151.248 18.4854 151.899 18.4854ZM 163.619 17.0889L 166.326 8.37695L 168.453 8.37695L 163.78 21.7939C 163.057 23.7275 161.908 24.6943 160.332 24.6943L 159.956 24.6621L 159.215 24.5225L 159.215 22.9111L 159.752 22.9541C 160.425 22.9541 160.948 22.818 161.32 22.5459C 161.7 22.2738 162.011 21.776 162.255 21.0527L 162.695 19.8711L 158.549 8.37695L 160.719 8.37695L 163.619 17.0889ZM 177.853 20L 175.865 20L 175.865 8.37695L 177.853 8.37695L 177.853 20ZM 175.704 5.29395C 175.704 4.97168 175.801 4.69954 175.994 4.47754C 176.195 4.25553 176.488 4.14453 176.875 4.14453C 177.262 4.14453 177.555 4.25553 177.756 4.47754C 177.956 4.69954 178.057 4.97168 178.057 5.29395C 178.057 5.61621 177.956 5.88477 177.756 6.09961C 177.555 6.31445 177.262 6.42188 176.875 6.42188C 176.488 6.42188 176.195 6.31445 175.994 6.09961C 175.801 5.88477 175.704 5.61621 175.704 5.29395ZM 182.923 8.37695L 182.987 9.83789C 183.875 8.7207 185.035 8.16211 186.468 8.16211C 188.924 8.16211 190.163 9.54785 190.185 12.3193L 190.185 20L 188.197 20L 188.197 12.3086C 188.19 11.4707 187.997 10.8512 187.617 10.4502C 187.245 10.0492 186.661 9.84863 185.866 9.84863C 185.222 9.84863 184.656 10.0205 184.169 10.3643C 183.682 10.708 183.302 11.1592 183.03 11.7178L 183.03 20L 181.043 20L 181.043 8.37695L 182.923 8.37695ZM 194.159 20L 194.159 9.91309L 192.322 9.91309L 192.322 8.37695L 194.159 8.37695L 194.159 7.18457C 194.159 5.93848 194.492 4.97526 195.158 4.29492C 195.824 3.61458 196.766 3.27441 197.983 3.27441C 198.442 3.27441 198.896 3.33529 199.348 3.45703L 199.24 5.06836C 198.904 5.00391 198.546 4.97168 198.166 4.97168C 197.521 4.97168 197.024 5.16146 196.673 5.54102C 196.322 5.91341 196.146 6.45052 196.146 7.15234L 196.146 8.37695L 198.628 8.37695L 198.628 9.91309L 196.146 9.91309L 196.146 20L 194.159 20ZM 200.304 14.0811C 200.304 12.9424 200.526 11.9183 200.97 11.0088C 201.421 10.0993 202.044 9.39746 202.839 8.90332C 203.641 8.40918 204.554 8.16211 205.578 8.16211C 207.161 8.16211 208.439 8.70996 209.413 9.80566C 210.394 10.9014 210.885 12.3587 210.885 14.1777L 210.885 14.3174C 210.885 15.4489 210.666 16.4658 210.229 17.3682C 209.8 18.2633 209.18 18.9616 208.371 19.4629C 207.569 19.9642 206.645 20.2148 205.6 20.2148C 204.024 20.2148 202.746 19.667 201.765 18.5713C 200.791 17.4756 200.304 16.0254 200.304 14.2207L 200.304 14.0811ZM 202.302 14.3174C 202.302 15.6064 202.599 16.6413 203.193 17.4219C 203.795 18.2025 204.597 18.5928 205.6 18.5928C 206.609 18.5928 207.411 18.1989 208.006 17.4111C 208.6 16.6162 208.897 15.5062 208.897 14.0811C 208.897 12.8063 208.593 11.7751 207.984 10.9873C 207.383 10.1924 206.581 9.79492 205.578 9.79492C 204.597 9.79492 203.806 10.1852 203.204 10.9658C 202.603 11.7464 202.302 12.8636 202.302 14.3174ZM 218.995 10.1602C 218.694 10.11 218.368 10.085 218.018 10.085C 216.714 10.085 215.83 10.64 215.364 11.75L 215.364 20L 213.377 20L 213.377 8.37695L 215.311 8.37695L 215.343 9.71973C 215.994 8.68132 216.918 8.16211 218.114 8.16211C 218.501 8.16211 218.795 8.21224 218.995 8.3125L 218.995 10.1602ZM 222.701 8.37695L 222.755 9.66602C 223.607 8.66341 224.757 8.16211 226.203 8.16211C 227.829 8.16211 228.935 8.78516 229.522 10.0312C 229.909 9.47266 230.41 9.02148 231.026 8.67773C 231.649 8.33398 232.383 8.16211 233.229 8.16211C 235.778 8.16211 237.074 9.51204 237.117 12.2119L 237.117 20L 235.13 20L 235.13 12.3301C 235.13 11.4993 234.94 10.8799 234.561 10.4717C 234.181 10.0563 233.544 9.84863 232.648 9.84863C 231.911 9.84863 231.299 10.0706 230.812 10.5146C 230.325 10.9515 230.042 11.5423 229.963 12.2871L 229.963 20L 227.965 20L 227.965 12.3838C 227.965 10.6937 227.138 9.84863 225.483 9.84863C 224.18 9.84863 223.288 10.4036 222.809 11.5137L 222.809 20L 220.821 20L 220.821 8.37695L 222.701 8.37695ZM 244.948 20.2148C 243.373 20.2148 242.091 19.6992 241.103 18.668C 240.114 17.6296 239.62 16.2438 239.62 14.5107L 239.62 14.1455C 239.62 12.9925 239.839 11.9648 240.275 11.0625C 240.719 10.153 241.335 9.44401 242.123 8.93555C 242.918 8.41992 243.777 8.16211 244.701 8.16211C 246.212 8.16211 247.387 8.65983 248.225 9.65527C 249.062 10.6507 249.481 12.0758 249.481 13.9307L 249.481 14.7578L 241.607 14.7578C 241.636 15.9036 241.969 16.8311 242.606 17.54C 243.251 18.2419 244.067 18.5928 245.056 18.5928C 245.757 18.5928 246.352 18.4495 246.839 18.1631C 247.326 17.8766 247.752 17.4971 248.117 17.0244L 249.331 17.9697C 248.357 19.4665 246.896 20.2148 244.948 20.2148ZM 244.701 9.79492C 243.899 9.79492 243.226 10.0885 242.682 10.6758C 242.137 11.2559 241.801 12.0723 241.672 13.125L 247.494 13.125L 247.494 12.9746C 247.437 11.9648 247.165 11.1842 246.678 10.6328C 246.191 10.0742 245.532 9.79492 244.701 9.79492ZM 251.308 14.0918C 251.308 12.3086 251.73 10.8763 252.575 9.79492C 253.42 8.70638 254.527 8.16211 255.895 8.16211C 257.255 8.16211 258.333 8.6276 259.128 9.55859L 259.128 3.5L 261.115 3.5L 261.115 20L 259.289 20L 259.192 18.7539C 258.397 19.7279 257.291 20.2148 255.873 20.2148C 254.527 20.2148 253.427 19.6634 252.575 18.5605C 251.73 17.4577 251.308 16.0182 251.308 14.2422L 251.308 14.0918ZM 253.295 14.3174C 253.295 15.6351 253.567 16.6663 254.111 17.4111C 254.656 18.1559 255.408 18.5283 256.367 18.5283C 257.628 18.5283 258.548 17.9626 259.128 16.8311L 259.128 11.4922C 258.534 10.3965 257.62 9.84863 256.389 9.84863C 255.415 9.84863 254.656 10.2246 254.111 10.9766C 253.567 11.7285 253.295 12.8421 253.295 14.3174Z"/>
<path id="path1_fill" d="M 0.294922 22.5586L 262.694 22.5586L 262.694 23.6328L 0.294922 23.6328L 0.294922 22.5586Z"/>
<path id="path2_fill" d="M 0 0L 1160 0L 1160 489L 0 489L 0 0Z"/>
<path id="path3_stroke_2x" d="M 0 0L 0 -2L -2 -2L -2 0L 0 0ZM 1160 0L 1162 0L 1162 -2L 1160 -2L 1160 0ZM 1160 489L 1160 491L 1162 491L 1162 489L 1160 489ZM 0 489L -2 489L -2 491L 0 491L 0 489ZM 0 2L 1160 2L 1160 -2L 0 -2L 0 2ZM 1158 0L 1158 489L 1162 489L 1162 0L 1158 0ZM 1160 487L 0 487L 0 491L 1160 491L 1160 487ZM 2 489L 2 0L -2 0L -2 489L 2 489Z"/>
</defs>
</svg>
