<svg  {{ with .size }} width="{{ . }}" {{ end }} viewBox="0 0 50 50" version="1.1" xmlns="http://www.w3.org/2000/svg" xmlns:xlink="http://www.w3.org/1999/xlink">
<g id="Canvas_bitcoin" transform="translate(-3345 -3163)">
<g id="6">
<g id="Vector_bitcoin1">
<use xlink:href="#path0_fill_bitcoin" transform="translate(3367.58 3180.91)"  {{ with .fill }} fill="{{ . }}" {{ end }}/>
</g>
<g id="Vector_bitcoin2">
<use xlink:href="#path1_fill_bitcoin" transform="translate(3345 3163)"  {{ with .fill }} fill="{{ . }}" {{ end }}/>
</g>
<g id="Vector_bitcoin3">
<use xlink:href="#path2_fill_bitcoin" transform="translate(3367.55 3189.06)"  {{ with .fill }} fill="{{ . }}" {{ end }}/>
</g>
</g>
</g>
<defs>
<path id="path0_fill_bitcoin" d="M 4.93421 4.78989C 5.45004 4.63195 5.90387 4.31729 6.23269 3.88961C 6.52268 3.48021 6.67433 2.98888 6.66551 2.48726C 6.67701 1.98786 6.5317 1.49742 6.25 1.0849C 5.95574 0.682297 5.53521 0.38975 5.0554 0.253877C 4.14123 0.0492053 3.20379 -0.03231 2.268 0.0114958L 6.60439e-07 0.0114958L 6.60439e-07 5.10152L 2.28532 5.10152C 3.17908 5.13511 4.07265 5.02998 4.93421 4.78989Z"/>
<path id="path1_fill_bitcoin" d="M 25 2.97198e-07C 20.0547 1.48304e-06 15.2206 1.46666 11.1089 4.21446C 6.99735 6.96227 3.79305 10.8678 1.90136 15.4369C 0.00968431 20.0061 -0.484387 25.0336 0.481647 29.8836C 1.44768 34.7336 3.83042 39.1882 7.32846 42.6838C 10.8265 46.1794 15.2827 48.5591 20.1334 49.5217C 24.984 50.4844 30.0112 49.9869 34.5791 48.092C 39.1469 46.1972 43.0502 42.9902 45.7952 38.8766C 48.5401 34.7631 50.0034 29.9279 50 24.9827C 49.9954 18.3553 47.3595 12.0009 42.6715 7.31621C 37.9836 2.63154 31.6274 -1.29201e-06 25 2.97198e-07ZM 34.072 32.5658C 33.352 33.5358 32.3655 34.2756 31.2327 34.6953C 30.7288 34.8904 30.2069 35.0354 29.6745 35.1281L 29.6745 38.8331L 26.2119 38.8331L 26.2119 35.3705L 23.8573 35.3705L 23.8573 38.8331L 20.3947 38.8331L 20.3947 35.3705L 14.9238 35.3705L 14.9238 32.5312L 15.7548 32.5312C 16.1354 32.5597 16.5179 32.5126 16.8802 32.3927C 16.9753 32.3422 17.0595 32.2734 17.1279 32.1902C 17.1962 32.107 17.2474 32.011 17.2784 31.9079C 17.3861 31.5253 17.427 31.1271 17.3996 30.7306L 17.3996 19.1482C 17.4174 18.7805 17.3765 18.4123 17.2784 18.0575C 17.1894 17.8812 17.0427 17.7407 16.8629 17.6593C 16.5023 17.5311 16.1194 17.4781 15.7375 17.5035L 14.9238 17.5035L 14.9238 14.5949L 20.3255 14.5949L 20.3255 11.1323L 23.7881 11.1323L 23.7881 14.5949L 26.0561 14.5949L 26.0561 11.1323L 29.5187 11.1323L 29.5187 14.768C 29.9971 14.8505 30.4666 14.978 30.921 15.1489C 31.8829 15.508 32.7192 16.1397 33.3276 16.9668C 33.8118 17.6104 34.1165 18.371 34.2108 19.1709C 34.3051 19.9709 34.1855 20.7815 33.8643 21.5201C 33.5583 22.1528 33.1217 22.7133 32.5831 23.1648C 31.9317 23.6935 31.1855 24.0931 30.3843 24.3421C 31.1682 24.5178 31.9251 24.7973 32.635 25.1731C 33.3537 25.5888 33.9507 26.1858 34.3663 26.9044C 34.8095 27.6723 35.0368 28.5457 35.0242 29.4321C 35.0531 30.552 34.7191 31.6513 34.072 32.5658Z"/>
<path id="path2_fill_bitcoin" d="M 5.37733 0.337178C 4.5193 0.0786341 3.62365 -0.0325914 2.72844 0.00822975L 0.0276074 0.00822975L 0.0276074 4.52693C -0.0092016 4.90114 -0.0092016 5.27806 0.0276074 5.65227C 0.0460167 5.71517 0.0769855 5.77368 0.118646 5.82427C 0.160306 5.87485 0.211791 5.91647 0.269989 5.94659C 0.579767 5.99469 0.895114 5.99469 1.20489 5.94659L 2.79769 5.94659C 3.53192 6.01237 4.27169 5.97742 4.99644 5.84272C 5.59122 5.67448 6.11432 5.31561 6.48536 4.82125C 6.89439 4.28518 7.10816 3.62553 7.09132 2.95144C 7.10765 2.39484 6.9569 1.8461 6.65849 1.37596C 6.35287 0.902179 5.90405 0.53827 5.37733 0.337178Z"/>
</defs>
</svg>
