<svg {{ with .size }} width="{{ . }}" {{ end }} viewBox="0 0 51 50" version="1.1" xmlns="http://www.w3.org/2000/svg" xmlns:xlink="http://www.w3.org/1999/xlink">
<g id="Canvas_fb" transform="translate(-6805 -540)">
<g id="Vector_fb">
<use xlink:href="#path0_fill_fb" transform="translate(6805 540)" {{ with .fill }} fill="{{ . }}" {{ end }}/>
</g>
</g>
<defs>
<path id="path0_fill_fb" d="M 25.013 0C 11.2209 0 0 11.2151 0 25C 0 38.7839 11.2209 50 25.013 50C 38.8041 50 50.026 38.7839 50.026 25C 50.026 11.2151 38.8062 0 25.013 0ZM 31.2335 25.8801L 27.1641 25.8801C 27.1641 32.3784 27.1641 40.377 27.1641 40.377L 21.134 40.377C 21.134 40.377 21.134 32.4559 21.134 25.8801L 18.2676 25.8801L 18.2676 20.7565L 21.134 20.7565L 21.134 17.4424C 21.134 15.0689 22.2625 11.3601 27.2195 11.3601L 31.6879 11.3772L 31.6879 16.3508C 31.6879 16.3508 28.9726 16.3508 28.4447 16.3508C 27.9167 16.3508 27.1661 16.6146 27.1661 17.7465L 27.1661 20.7575L 31.7605 20.7575L 31.2335 25.8801Z"/>
</defs>
</svg>
