<svg  {{ with .size }} width="{{ . }}" {{ end }} viewBox="0 0 50 50" version="1.1" xmlns="http://www.w3.org/2000/svg" xmlns:xlink="http://www.w3.org/1999/xlink">
<g id="Canvas_github" transform="translate(-3446 -3083)">
<g id="github-logo">
<g id="Group_github">
<g id="Vector_github">
<use xlink:href="#path0_fill_github" transform="translate(3446 3083)"  {{ with .fill }} fill="{{ . }}" {{ end }}/>
</g>
</g>
</g>
</g>
<defs>
<path id="path0_fill_github" d="M 25.0365 24.8677C 25.025 24.8677 25.012 24.8672 25 24.8667C 24.9875 24.8672 24.9745 24.8677 24.963 24.8677C 21.8604 24.8677 19.1266 24.0823 17.5109 25.5656C 16.5427 26.4557 16.1349 27.5281 16.1349 28.6828C 16.1349 33.5062 19.9995 34.0984 24.9625 34.0984L 25.0365 34.0984C 29.9995 34.0984 33.8641 33.5057 33.8641 28.6828C 33.8641 27.5276 33.4562 26.4557 32.488 25.5656C 30.8724 24.0823 28.1391 24.8677 25.0365 24.8677ZM 20.8167 31.4589C 19.8724 31.4589 19.1068 30.3984 19.1068 29.0906C 19.1068 27.7828 19.8724 26.7229 20.8167 26.7229C 21.7609 26.7229 22.5276 27.7828 22.5276 29.0906C 22.5276 30.3984 21.7609 31.4589 20.8167 31.4589ZM 29.1828 31.4589C 28.238 31.4589 27.4719 30.3984 27.4719 29.0906C 27.4719 27.7828 28.238 26.7229 29.1828 26.7229C 30.1266 26.7229 30.8927 27.7828 30.8927 29.0906C 30.8927 30.3984 30.1271 31.4589 29.1828 31.4589ZM 25 0C 11.1922 0 0 11.1927 0 25C 0 38.8073 11.1922 50 25 50C 38.8068 50 50 38.8073 50 25C 50 11.1927 38.8068 0 25 0ZM 27.2802 35.2609C 26.8323 35.2609 25.9417 35.262 25 35.263C 24.0578 35.262 23.1667 35.2609 22.7193 35.2609C 20.7385 35.2609 12.8948 35.1094 12.8948 25.6542C 12.8948 23.4786 13.6406 21.887 14.8609 20.5615C 14.6661 20.0807 14.6562 17.3505 15.6953 14.737C 15.6953 14.737 18.0786 14.9984 21.6849 17.4729C 22.4406 17.2641 23.7203 17.1599 25 17.1599C 26.2786 17.1599 27.5583 17.2635 28.3151 17.4729C 31.9208 14.9984 34.3036 14.737 34.3036 14.737C 35.3427 17.3505 35.3333 20.0807 35.1385 20.5615C 36.3594 21.887 37.1052 23.4792 37.1052 25.6542C 37.1052 35.1094 29.2609 35.2609 27.2802 35.2609Z"/>
</defs>
</svg>
