<svg id="Слой_how" data-name="Слой_how" xmlns="http://www.w3.org/2000/svg" viewBox="0 0 68.38 92"><defs><style>.cls-1{fill:#fff;}</style></defs><title>how</title><path class="cls-1" d="M44.88,45A14.68,14.68,0,1,0,30.2,30.36,14.72,14.72,0,0,0,44.88,45Zm0-24.46a9.78,9.78,0,1,1-9.78,9.78A9.81,9.81,0,0,1,44.88,20.58Z" transform="translate(-11.81)"/><path class="cls-1" d="M12.47,78.79a3.76,3.76,0,0,0,3.79,1.47l11.86-2.81,3.06,11.86A3.67,3.67,0,0,0,34.24,92h0.49a3.84,3.84,0,0,0,3.18-1.71l8.44-14.06L54,89.06a3.65,3.65,0,0,0,3.18,1.83h0.49a3.67,3.67,0,0,0,3.06-2.69l3.06-11.86,11.86,2.81a3.55,3.55,0,0,0,3.79-1.47,3.5,3.5,0,0,0,.12-4l-13.21-22A7.52,7.52,0,0,0,70.19,49a7.4,7.4,0,0,0,.37-8.19,2.47,2.47,0,0,1-.24-2.08,2.68,2.68,0,0,1,1.47-1.59,7.45,7.45,0,0,0,0-13.7,2.28,2.28,0,0,1-1.35-1.47,3.1,3.1,0,0,1,.24-2.08,7.42,7.42,0,0,0-.37-8.07A7,7,0,0,0,62.73,9a3,3,0,0,1-2.08-.37,2.32,2.32,0,0,1-1-1.83A7.33,7.33,0,0,0,54.54.4a7.1,7.1,0,0,0-7.83,2.2,2.59,2.59,0,0,1-3.79,0A7.41,7.41,0,0,0,30,6.76a3.36,3.36,0,0,1-1,1.83A2.14,2.14,0,0,1,26.9,9a7.37,7.37,0,0,0-7.95,11A2.47,2.47,0,0,1,19.19,22a2.68,2.68,0,0,1-1.47,1.59,7.45,7.45,0,0,0,0,13.7,2.28,2.28,0,0,1,1.35,1.47,3.1,3.1,0,0,1-.24,2.08A7.42,7.42,0,0,0,19.19,49a7.05,7.05,0,0,0,6.73,2.94L12.34,74.76A3.72,3.72,0,0,0,12.47,78.79ZM62.73,71a2.52,2.52,0,0,0-2.94,1.71L56.86,84.05,49.28,71.58l7.46-12.35A7.63,7.63,0,0,0,59.67,54a3.36,3.36,0,0,1,1-1.83C60.77,52,60.9,52,61,51.89L74.1,73.53ZM23.35,46a2.64,2.64,0,0,1-.12-2.81,7.15,7.15,0,0,0,.61-6.11,7.27,7.27,0,0,0-4.16-4.53,2.55,2.55,0,0,1-1.47-2.32,2.51,2.51,0,0,1,1.59-2.32A7.61,7.61,0,0,0,24,23.39a7.64,7.64,0,0,0-.73-6.11,2.38,2.38,0,0,1,.12-2.69,2.55,2.55,0,0,1,2.57-1,7.45,7.45,0,0,0,6-1.22A7.58,7.58,0,0,0,35,7.13a2.6,2.6,0,0,1,1.71-2.2,2.64,2.64,0,0,1,2.69.73,7.35,7.35,0,0,0,5.5,2.57,7,7,0,0,0,5.5-2.57h0a2.6,2.6,0,0,1,2.69-.73,2.43,2.43,0,0,1,1.71,2.2,7.58,7.58,0,0,0,3.06,5.26,7.45,7.45,0,0,0,6,1.22,2.35,2.35,0,0,1,2.57,1,2.64,2.64,0,0,1,.12,2.81,7.15,7.15,0,0,0-.61,6.11A7.27,7.27,0,0,0,70.07,28a2.55,2.55,0,0,1,1.47,2.32,2.51,2.51,0,0,1-1.59,2.32,7.36,7.36,0,0,0-3.42,10.64A2.38,2.38,0,0,1,66.4,46a2.55,2.55,0,0,1-2.57,1,7.45,7.45,0,0,0-6,1.22,7.58,7.58,0,0,0-3.06,5.26,2.6,2.6,0,0,1-1.71,2.2,2.64,2.64,0,0,1-2.69-.73,7.35,7.35,0,0,0-5.5-2.57,7,7,0,0,0-5.5,2.57,2.6,2.6,0,0,1-2.69.73A2.43,2.43,0,0,1,35,53.48a7.58,7.58,0,0,0-3.06-5.26,7.07,7.07,0,0,0-4.4-1.47,7,7,0,0,0-1.59.12A2.55,2.55,0,0,1,23.35,46ZM30.2,54.7A7.39,7.39,0,0,0,43,58.12a2.59,2.59,0,0,1,3.79,0,7.26,7.26,0,0,0,3.55,2.2l-15,24.95L32.4,73.9a2.32,2.32,0,0,0-2.94-1.71L18.09,74.88Z" transform="translate(-11.81)"/></svg>