<svg width="276" height="57" version="1.1" xmlns="http://www.w3.org/2000/svg" xmlns:xlink="http://www.w3.org/1999/xlink">
<title>logo</title>
<desc>Created using Figma</desc>
<g id="Canvas" transform="translate(-5985 -14)">
<g id="logo">
<g id="Group">
<g id="1 2">
<g id="HASHBACK">
<use xlink:href="#path0_fill" transform="translate(6026.37 22.0534)" fill="#333333" style="mix-blend-mode:overlay"/>
</g>
<g id="HASHBACK">
<use xlink:href="#path0_fill" transform="translate(6026.37 22.0534)" fill="#333333" style="mix-blend-mode:overlay"/>
</g>
<g id="HASHBACK">
<use xlink:href="#path0_fill" transform="translate(6026.37 22.0534)" fill="#333333" style="mix-blend-mode:overlay"/>
</g>
<g id="HASHBACK">
<use xlink:href="#path0_fill" transform="translate(6026.37 22.0534)" fill="#333333" style="mix-blend-mode:overlay"/>
</g>
<g id="HASHBACK">
<use xlink:href="#path0_fill" transform="translate(6026.37 22.0534)" fill="#333333" style="mix-blend-mode:overlay"/>
</g>
<g id="HASHBACK">
<use xlink:href="#path0_fill" transform="translate(6026.37 22.0534)" fill="#333333" style="mix-blend-mode:hard-light"/>
</g>
</g>
<g id="2 2">
<g id="Group">
<g id="Vector">
<mask id="mask0_outline_ins">
<use xlink:href="#path1_fill" fill="white" transform="translate(5986.34 15.3653)"/>
</mask>
<g mask="url(#mask0_outline_ins)">
<use xlink:href="#path2_stroke_2x" transform="translate(5986.34 15.3653)" fill="#FFFFFF" fill-opacity="0.7" style="mix-blend-mode:overlay"/>
</g>
</g>
<g id="Vector">
<mask id="mask1_outline_ins">
<use xlink:href="#path3_fill" fill="white" transform="translate(5985 14)"/>
</mask>
<g mask="url(#mask1_outline_ins)">
<use xlink:href="#path4_stroke_2x" transform="translate(5985 14)" fill="#FFFFFF" fill-opacity="0.7" style="mix-blend-mode:overlay"/>
</g>
</g>
<g id="Group" style="mix-blend-mode:overlay">
<g id="Vector">
<use xlink:href="#path5_fill" transform="translate(5991.04 20.1437)" fill="#333333"/>
</g>
<g id="Vector">
<use xlink:href="#path6_fill" transform="translate(5999.18 29.39)" fill="#FCD929"/>
</g>
</g>
<g id="Group" style="mix-blend-mode:overlay">
<g id="Vector">
<use xlink:href="#path5_fill" transform="translate(5991.04 20.1437)" fill="#333333"/>
</g>
<g id="Vector">
<use xlink:href="#path6_fill" transform="translate(5999.18 29.39)" fill="#FCD929"/>
</g>
</g>
<g id="Group" style="mix-blend-mode:overlay">
<g id="Vector">
<use xlink:href="#path5_fill" transform="translate(5991.04 20.1437)" fill="#333333"/>
</g>
<g id="Vector">
<use xlink:href="#path6_fill" transform="translate(5999.18 29.39)" fill="#FCD929"/>
</g>
</g>
<g id="Group" style="mix-blend-mode:hard-light">
<g id="Vector">
<use xlink:href="#path5_fill" transform="translate(5991.04 20.1437)" fill="#333333"/>
</g>
<g id="Vector">
<use xlink:href="#path6_fill" transform="translate(5999.18 29.39)" fill="#FCD929"/>
</g>
</g>
</g>
</g>
</g>
</g>
</g>
<defs>
<path id="path0_fill" d="M 25.6792 9.91121L 32.2288 9.91121L 32.2288 20.1471L 42.3574 20.1471L 42.3574 9.91121L 48.9069 9.91121L 48.9069 35L 42.3574 35L 42.3574 25.3725L 32.2288 25.3725L 32.2288 35L 25.6792 35L 25.6792 9.91121ZM 72.2118 35L 70.4939 30.562L 59.6495 30.562L 57.8958 35L 51.1673 35L 61.9401 9.91121L 68.6686 9.91121L 79.1909 35L 72.2118 35ZM 61.618 25.5514L 68.5612 25.5514L 65.1254 16.6039L 61.618 25.5514ZM 98.643 17.4629C 97.3068 16.6755 95.8752 16.0313 94.3482 15.5302C 92.845 15.0292 91.5804 14.7786 90.5545 14.7786C 89.7432 14.7786 89.099 14.9337 88.6218 15.2439C 88.1685 15.5302 87.9418 15.9597 87.9418 16.5324C 87.9418 17.0811 88.1446 17.5464 88.5502 17.9282C 88.9558 18.2861 89.4569 18.5843 90.0534 18.8229C 90.6499 19.0377 91.5327 19.324 92.7019 19.6819C 94.4436 20.1829 95.8752 20.684 96.9967 21.1851C 98.1419 21.6861 99.1202 22.4616 99.9314 23.5114C 100.743 24.5374 101.148 25.8855 101.148 27.5557C 101.148 29.2259 100.707 30.6575 99.8241 31.8505C 98.9412 33.0196 97.7244 33.9024 96.1735 34.4989C 94.6464 35.0954 92.9405 35.3937 91.0555 35.3937C 88.9797 35.3937 86.9039 35.0358 84.8281 34.32C 82.7761 33.5803 80.9985 32.5782 79.4953 31.3136L 82.0364 26.1957C 83.301 27.3171 84.7923 28.2357 86.5102 28.9515C 88.252 29.6673 89.7909 30.0252 91.1271 30.0252C 92.1054 30.0252 92.8689 29.8462 93.4177 29.4883C 93.9903 29.1304 94.2766 28.6055 94.2766 27.9136C 94.2766 27.3409 94.0619 26.8637 93.6324 26.482C 93.2268 26.1002 92.7019 25.802 92.0576 25.5872C 91.4373 25.3486 90.5545 25.0742 89.4092 24.7641C 87.6913 24.2869 86.2716 23.8097 85.1502 23.3325C 84.0287 22.8314 83.0624 22.0917 82.2512 21.1135C 81.4638 20.1114 81.0701 18.7871 81.0701 17.1408C 81.0701 15.5899 81.4757 14.2299 82.287 13.0607C 83.1221 11.8916 84.2912 10.9968 85.7944 10.3765C 87.3214 9.73226 89.0871 9.41015 91.0913 9.41015C 92.9047 9.41015 94.6942 9.67261 96.4598 10.1975C 98.2254 10.6986 99.7763 11.3786 101.113 12.2376L 98.643 17.4629ZM 104.494 9.91121L 111.044 9.91121L 111.044 20.1471L 121.172 20.1471L 121.172 9.91121L 127.722 9.91121L 127.722 35L 121.172 35L 121.172 25.3725L 111.044 25.3725L 111.044 35L 104.494 35L 104.494 9.91121ZM 144.513 9.91121C 146.398 9.91121 148.032 10.1737 149.416 10.6986C 150.824 11.1996 151.91 11.9274 152.673 12.8818C 153.437 13.8362 153.818 14.9576 153.818 16.246C 153.818 17.5583 153.425 18.7036 152.637 19.6819C 151.874 20.6601 150.824 21.3282 149.488 21.6861C 151.086 21.9963 152.339 22.724 153.246 23.8693C 154.176 25.0146 154.641 26.3985 154.641 28.021C 154.641 29.4287 154.248 30.6694 153.46 31.7431C 152.673 32.7929 151.552 33.6042 150.096 34.1768C 148.641 34.7256 146.935 35 144.978 35L 132.595 35L 132.595 9.91121L 144.513 9.91121ZM 144.155 19.8966C 145.062 19.8966 145.778 19.6819 146.302 19.2524C 146.827 18.7991 147.09 18.1787 147.09 17.3913C 147.09 16.6278 146.827 16.0432 146.302 15.6376C 145.778 15.2081 145.062 15.0053 144.155 15.0292L 139.144 15.0292L 139.144 19.8966L 144.155 19.8966ZM 144.155 29.9178C 145.3 29.9178 146.207 29.6792 146.875 29.202C 147.543 28.7248 147.877 28.0567 147.877 27.1978C 147.877 26.4104 147.543 25.79 146.875 25.3367C 146.207 24.8595 145.3 24.6328 144.155 24.6567L 139.144 24.6567L 139.144 29.9178L 144.155 29.9178ZM 176.646 35L 174.928 30.562L 164.084 30.562L 162.33 35L 155.601 35L 166.374 9.91121L 173.103 9.91121L 183.625 35L 176.646 35ZM 166.052 25.5514L 172.995 25.5514L 169.559 16.6039L 166.052 25.5514ZM 203.377 18.4292C 202.566 17.4032 201.599 16.592 200.478 15.9955C 199.356 15.3751 198.247 15.065 197.149 15.065C 195.885 15.065 194.728 15.3871 193.678 16.0313C 192.652 16.6517 191.841 17.5225 191.244 18.644C 190.648 19.7415 190.349 20.9703 190.349 22.3303C 190.349 23.6904 190.648 24.9311 191.244 26.0525C 191.841 27.1501 192.652 28.021 193.678 28.6652C 194.728 29.2855 195.885 29.5957 197.149 29.5957C 198.175 29.5957 199.249 29.3332 200.37 28.8083C 201.492 28.2834 202.494 27.5676 203.377 26.6609L 207.206 30.7768C 205.846 32.2084 204.224 33.3537 202.339 34.2126C 200.478 35.0477 198.629 35.4653 196.791 35.4653C 194.31 35.4653 192.067 34.8926 190.063 33.7473C 188.059 32.6021 186.484 31.0392 185.339 29.0589C 184.193 27.0785 183.621 24.8595 183.621 22.4019C 183.621 19.9682 184.205 17.7731 185.374 15.8166C 186.544 13.86 188.142 12.3211 190.17 11.1996C 192.222 10.0782 194.513 9.51752 197.042 9.51752C 198.903 9.51752 200.74 9.91121 202.554 10.6986C 204.367 11.4621 205.906 12.5119 207.171 13.8481L 203.377 18.4292ZM 234.134 35L 226.296 35L 219.711 25.2651L 216.561 28.7725L 216.561 35L 210.012 35L 210.012 9.91121L 216.561 9.91121L 216.561 20.7914L 225.974 9.91121L 233.562 9.91121L 224.256 20.2545L 234.134 35Z"/>
<path id="path1_fill" d="M 26.6587 54.2695C 41.3819 54.2695 53.3174 42.1208 53.3174 27.1347C 53.3174 12.1486 41.3819 0 26.6587 0C 11.9355 0 0 12.1486 0 27.1347C 0 42.1208 11.9355 54.2695 26.6587 54.2695Z"/>
<path id="path2_stroke_2x" d="M 52.3174 27.1347C 52.3174 41.5853 40.813 53.2695 26.6587 53.2695L 26.6587 55.2695C 41.9508 55.2695 54.3174 42.6564 54.3174 27.1347L 52.3174 27.1347ZM 26.6587 53.2695C 12.5044 53.2695 1 41.5853 1 27.1347L -1 27.1347C -1 42.6564 11.3666 55.2695 26.6587 55.2695L 26.6587 53.2695ZM 1 27.1347C 1 12.6842 12.5044 1 26.6587 1L 26.6587 -1C 11.3666 -1 -1 11.6131 -1 27.1347L 1 27.1347ZM 26.6587 1C 40.813 1 52.3174 12.6842 52.3174 27.1347L 54.3174 27.1347C 54.3174 11.6131 41.9508 -1 26.6587 -1L 26.6587 1Z"/>
<path id="path3_fill" d="M 28 57C 43.464 57 56 44.2401 56 28.5C 56 12.7599 43.464 0 28 0C 12.536 0 0 12.7599 0 28.5C 0 44.2401 12.536 57 28 57Z"/>
<path id="path4_stroke_2x" d="M 55 28.5C 55 43.7046 42.8951 56 28 56L 28 58C 44.0329 58 57 44.7756 57 28.5L 55 28.5ZM 28 56C 13.1049 56 1 43.7046 1 28.5L -1 28.5C -1 44.7756 11.9671 58 28 58L 28 56ZM 1 28.5C 1 13.2954 13.1049 1 28 1L 28 -1C 11.9671 -1 -1 12.2244 -1 28.5L 1 28.5ZM 28 1C 42.8951 1 55 13.2954 55 28.5L 57 28.5C 57 12.2244 44.0329 -1 28 -1L 28 1Z"/>
<path id="path5_fill" d="M 21.9641 44.7126C 34.0945 44.7126 43.9281 34.7033 43.9281 22.3563C 43.9281 10.0093 34.0945 0 21.9641 0C 9.83365 0 0 10.0093 0 22.3563C 0 34.7033 9.83365 44.7126 21.9641 44.7126Z"/>
<path id="path6_fill" d="M 16.1528 16.1102L 9.71784 16.1102L 11.1866 9.4579L 17.6216 9.4579L 16.1528 16.1102ZM 25.2469 16.1102L 20.2841 16.1102L 21.7528 9.4579L 26.7257 9.4579L 27.6311 5.3621L 22.6582 5.3621L 23.8419 8.33294e-07L 19.7073 8.33294e-07L 18.5236 5.3621L 12.092 5.3621L 13.2757 8.33294e-07L 9.14108 8.33294e-07L 7.94731 5.35186L 3.28958 5.35186L 2.38419 9.44767L 7.05198 9.44767L 5.6 16.1102L 0.905389 16.1102L 1.02334e-06 20.206L 4.66778 20.206L 3.50084 25.534L 7.63545 25.534L 8.81246 20.2026L 15.2474 20.2026L 14.0704 25.534L 18.205 25.534L 19.382 20.2026L 24.3416 20.2026L 25.2469 16.1102Z"/>
</defs>
</svg>
