<svg width="599" height="396" version="1.1" xmlns="http://www.w3.org/2000/svg" xmlns:xlink="http://www.w3.org/1999/xlink" id="main_logo">
<title>logo</title>
<desc>Created using Figma</desc>
<g id="Canvas_logo" transform="translate(-3534 -265)">
<g id="logo">
<g id="Group_logo">
<g id="The Token of Appreciation">
<use xlink:href="#path0_fill_logo" transform="translate(3673 641)" fill="#333333"/>
</g>
<g id="1 2">
<g id="HASHBACK1">
<use xlink:href="#path1_fill_logo" transform="translate(3527 492)" fill="#333333" style="mix-blend-mode:overlay"/>
</g>
<g id="HASHBACK2">
<use xlink:href="#path1_fill_logo" transform="translate(3527 492)" fill="#333333" style="mix-blend-mode:overlay"/>
</g>
<g id="HASHBACK3">
<use xlink:href="#path1_fill_logo" transform="translate(3527 492)" fill="#333333" style="mix-blend-mode:overlay"/>
</g>
<g id="HASHBACK4">
<use xlink:href="#path1_fill_logo" transform="translate(3527 492)" fill="#333333" style="mix-blend-mode:overlay"/>
</g>
<g id="HASHBACK5">
<use xlink:href="#path1_fill_logo" transform="translate(3527 493)" fill="#333333" style="mix-blend-mode:overlay"/>
</g>
<g id="HASHBACK6">
<use xlink:href="#path1_fill_logo" transform="translate(3527 492)" fill="#333333" style="mix-blend-mode:hard-light"/>
</g>
</g>
<g id="2 2">
<g id="Group1">
<g id="Vector1">
<mask id="mask0_outline_ins_logo">
<use xlink:href="#path2_fill_logo" fill="white" transform="translate(3717.82 270.82)"/>
</mask>
<g mask="url(#mask0_outline_ins_logo)">
<use xlink:href="#path3_stroke_2x_logo" transform="translate(3717.82 270.82)" fill="#FFFFFF" style="mix-blend-mode:overlay"/>
</g>
</g>
<g id="Vector2">
<mask id="mask1_outline_ins_logo">
<use xlink:href="#path4_fill_logo" fill="white" transform="translate(3712 265)"/>
</mask>
<g mask="url(#mask1_outline_ins_logo)">
<use xlink:href="#path5_stroke_2x_logo" transform="translate(3712 265)" fill="#FFFFFF" style="mix-blend-mode:overlay"/>
</g>
</g>
<g id="Group2" style="mix-blend-mode:overlay">
<g id="Vector3">
<use xlink:href="#path6_fill_logo" transform="translate(3738.19 291.192)" fill="#333333"/>
</g>
<g id="Vector4">
<use xlink:href="#path7_fill_logo" transform="translate(3773.55 330.61)" fill="#FCD929"/>
</g>
</g>
<g id="Group3" style="mix-blend-mode:overlay">
<g id="Vector5">
<use xlink:href="#path6_fill_logo" transform="translate(3738.19 291.192)" fill="#333333"/>
</g>
<g id="Vector6">
<use xlink:href="#path7_fill_logo" transform="translate(3773.55 330.61)" fill="#FCD929"/>
</g>
</g>
<g id="Group4" style="mix-blend-mode:overlay">
<g id="Vector7">
<use xlink:href="#path6_fill_logo" transform="translate(3738.19 291.192)" fill="#333333"/>
</g>
<g id="Vector8">
<use xlink:href="#path7_fill_logo" transform="translate(3773.55 330.61)" fill="#FCD929"/>
</g>
</g>
<g id="Group5" style="mix-blend-mode:hard-light">
<g id="Vector9">
<use xlink:href="#path6_fill_logo" transform="translate(3738.19 291.192)" fill="#333333"/>
</g>
<g id="Vector10">
<use xlink:href="#path7_fill_logo" transform="translate(3773.55 330.61)" fill="#FCD929"/>
</g>
</g>
</g>
</g>
</g>
</g>
</g>
<defs>
<path id="path0_fill_logo" d="M 25.1484 2.77344L 20.7148 2.77344L 20.7148 15L 18.2637 15L 18.2637 2.77344L 13.8691 2.77344L 13.8691 0.78125L 25.1484 0.78125L 25.1484 2.77344ZM 31.1328 5.58594C 31.9076 4.6875 32.8874 4.23828 34.0723 4.23828C 36.3249 4.23828 37.4674 5.52409 37.5 8.0957L 37.5 15L 35.127 15L 35.127 8.18359C 35.127 7.45443 34.9674 6.9401 34.6484 6.64062C 34.3359 6.33464 33.8737 6.18164 33.2617 6.18164C 32.3112 6.18164 31.6016 6.60482 31.1328 7.45117L 31.1328 15L 28.7598 15L 28.7598 0L 31.1328 0L 31.1328 5.58594ZM 46.5605 15.1953C 45.0566 15.1953 43.8359 14.7233 42.8984 13.7793C 41.9674 12.8288 41.502 11.5658 41.502 9.99023L 41.502 9.69727C 41.502 8.64258 41.7038 7.70182 42.1074 6.875C 42.5176 6.04167 43.0905 5.39388 43.8262 4.93164C 44.5618 4.4694 45.3822 4.23828 46.2871 4.23828C 47.7259 4.23828 48.8359 4.69727 49.6172 5.61523C 50.4049 6.5332 50.7988 7.83203 50.7988 9.51172L 50.7988 10.4688L 43.8945 10.4688C 43.9661 11.3411 44.2559 12.0312 44.7637 12.5391C 45.278 13.0469 45.9225 13.3008 46.6973 13.3008C 47.7845 13.3008 48.6699 12.8613 49.3535 11.9824L 50.6328 13.2031C 50.2096 13.8346 49.6432 14.3262 48.9336 14.6777C 48.2305 15.0228 47.4395 15.1953 46.5605 15.1953ZM 46.2773 6.14258C 45.6263 6.14258 45.099 6.37044 44.6953 6.82617C 44.2982 7.2819 44.0443 7.91667 43.9336 8.73047L 48.4551 8.73047L 48.4551 8.55469C 48.403 7.76042 48.1914 7.16146 47.8203 6.75781C 47.4492 6.34766 46.9349 6.14258 46.2773 6.14258ZM 71.5469 2.77344L 67.1133 2.77344L 67.1133 15L 64.6621 15L 64.6621 2.77344L 60.2676 2.77344L 60.2676 0.78125L 71.5469 0.78125L 71.5469 2.77344ZM 72.7168 9.61914C 72.7168 8.58398 72.9219 7.65299 73.332 6.82617C 73.7422 5.99284 74.3184 5.35482 75.0605 4.91211C 75.8027 4.46289 76.6556 4.23828 77.6191 4.23828C 79.0449 4.23828 80.2005 4.69727 81.0859 5.61523C 81.9779 6.5332 82.4596 7.75065 82.5312 9.26758L 82.541 9.82422C 82.541 10.8659 82.3392 11.7969 81.9355 12.6172C 81.5384 13.4375 80.9655 14.0723 80.2168 14.5215C 79.4746 14.9707 78.6152 15.1953 77.6387 15.1953C 76.1478 15.1953 74.9531 14.7005 74.0547 13.7109C 73.1628 12.7148 72.7168 11.39 72.7168 9.73633L 72.7168 9.61914ZM 75.0898 9.82422C 75.0898 10.9115 75.3145 11.7643 75.7637 12.3828C 76.2129 12.9948 76.8379 13.3008 77.6387 13.3008C 78.4395 13.3008 79.0612 12.9883 79.5039 12.3633C 79.9531 11.7383 80.1777 10.8236 80.1777 9.61914C 80.1777 8.55143 79.9466 7.70508 79.4844 7.08008C 79.0286 6.45508 78.4069 6.14258 77.6191 6.14258C 76.8444 6.14258 76.2292 6.45182 75.7734 7.07031C 75.3177 7.68229 75.0898 8.60026 75.0898 9.82422ZM 89.9805 10.4688L 88.9258 11.5527L 88.9258 15L 86.5527 15L 86.5527 0L 88.9258 0L 88.9258 8.65234L 89.668 7.72461L 92.5879 4.43359L 95.4395 4.43359L 91.5137 8.83789L 95.8594 15L 93.1152 15L 89.9805 10.4688ZM 103.455 15.1953C 101.951 15.1953 100.73 14.7233 99.793 13.7793C 98.862 12.8288 98.3965 11.5658 98.3965 9.99023L 98.3965 9.69727C 98.3965 8.64258 98.5983 7.70182 99.002 6.875C 99.4121 6.04167 99.985 5.39388 100.721 4.93164C 101.456 4.4694 102.277 4.23828 103.182 4.23828C 104.62 4.23828 105.73 4.69727 106.512 5.61523C 107.299 6.5332 107.693 7.83203 107.693 9.51172L 107.693 10.4688L 100.789 10.4688C 100.861 11.3411 101.15 12.0312 101.658 12.5391C 102.173 13.0469 102.817 13.3008 103.592 13.3008C 104.679 13.3008 105.564 12.8613 106.248 11.9824L 107.527 13.2031C 107.104 13.8346 106.538 14.3262 105.828 14.6777C 105.125 15.0228 104.334 15.1953 103.455 15.1953ZM 103.172 6.14258C 102.521 6.14258 101.993 6.37044 101.59 6.82617C 101.193 7.2819 100.939 7.91667 100.828 8.73047L 105.35 8.73047L 105.35 8.55469C 105.298 7.76042 105.086 7.16146 104.715 6.75781C 104.344 6.34766 103.829 6.14258 103.172 6.14258ZM 113.746 4.43359L 113.814 5.6543C 114.596 4.71029 115.621 4.23828 116.891 4.23828C 119.091 4.23828 120.211 5.49805 120.25 8.01758L 120.25 15L 117.877 15L 117.877 8.1543C 117.877 7.48372 117.73 6.98893 117.438 6.66992C 117.151 6.3444 116.679 6.18164 116.021 6.18164C 115.064 6.18164 114.352 6.61458 113.883 7.48047L 113.883 15L 111.51 15L 111.51 4.43359L 113.746 4.43359ZM 131.213 9.61914C 131.213 8.58398 131.418 7.65299 131.828 6.82617C 132.238 5.99284 132.814 5.35482 133.557 4.91211C 134.299 4.46289 135.152 4.23828 136.115 4.23828C 137.541 4.23828 138.697 4.69727 139.582 5.61523C 140.474 6.5332 140.956 7.75065 141.027 9.26758L 141.037 9.82422C 141.037 10.8659 140.835 11.7969 140.432 12.6172C 140.035 13.4375 139.462 14.0723 138.713 14.5215C 137.971 14.9707 137.111 15.1953 136.135 15.1953C 134.644 15.1953 133.449 14.7005 132.551 13.7109C 131.659 12.7148 131.213 11.39 131.213 9.73633L 131.213 9.61914ZM 133.586 9.82422C 133.586 10.9115 133.811 11.7643 134.26 12.3828C 134.709 12.9948 135.334 13.3008 136.135 13.3008C 136.936 13.3008 137.557 12.9883 138 12.3633C 138.449 11.7383 138.674 10.8236 138.674 9.61914C 138.674 8.55143 138.443 7.70508 137.98 7.08008C 137.525 6.45508 136.903 6.14258 136.115 6.14258C 135.34 6.14258 134.725 6.45182 134.27 7.07031C 133.814 7.68229 133.586 8.60026 133.586 9.82422ZM 145.879 15L 145.879 6.19141L 144.268 6.19141L 144.268 4.43359L 145.879 4.43359L 145.879 3.4668C 145.879 2.29492 146.204 1.38997 146.855 0.751953C 147.507 0.113932 148.418 -0.205078 149.59 -0.205078C 150.007 -0.205078 150.449 -0.146484 150.918 -0.0292969L 150.859 1.82617C 150.599 1.77409 150.296 1.74805 149.951 1.74805C 148.818 1.74805 148.252 2.33073 148.252 3.49609L 148.252 4.43359L 150.4 4.43359L 150.4 6.19141L 148.252 6.19141L 148.252 15L 145.879 15ZM 169.303 11.6895L 163.795 11.6895L 162.643 15L 160.074 15L 165.445 0.78125L 167.662 0.78125L 173.043 15L 170.465 15L 169.303 11.6895ZM 164.488 9.69727L 168.609 9.69727L 166.549 3.79883L 164.488 9.69727ZM 185.219 9.82422C 185.219 11.4583 184.848 12.7637 184.105 13.7402C 183.363 14.7103 182.367 15.1953 181.117 15.1953C 179.958 15.1953 179.031 14.8145 178.334 14.0527L 178.334 19.0625L 175.961 19.0625L 175.961 4.43359L 178.148 4.43359L 178.246 5.50781C 178.943 4.66146 179.89 4.23828 181.088 4.23828C 182.377 4.23828 183.386 4.72005 184.115 5.68359C 184.851 6.64062 185.219 7.97201 185.219 9.67773L 185.219 9.82422ZM 182.855 9.61914C 182.855 8.56445 182.644 7.72786 182.221 7.10938C 181.804 6.49089 181.205 6.18164 180.424 6.18164C 179.454 6.18164 178.757 6.58203 178.334 7.38281L 178.334 12.0703C 178.764 12.8906 179.467 13.3008 180.443 13.3008C 181.199 13.3008 181.788 12.998 182.211 12.3926C 182.641 11.7806 182.855 10.8561 182.855 9.61914ZM 198.488 9.82422C 198.488 11.4583 198.117 12.7637 197.375 13.7402C 196.633 14.7103 195.637 15.1953 194.387 15.1953C 193.228 15.1953 192.3 14.8145 191.604 14.0527L 191.604 19.0625L 189.23 19.0625L 189.23 4.43359L 191.418 4.43359L 191.516 5.50781C 192.212 4.66146 193.16 4.23828 194.357 4.23828C 195.646 4.23828 196.656 4.72005 197.385 5.68359C 198.12 6.64062 198.488 7.97201 198.488 9.67773L 198.488 9.82422ZM 196.125 9.61914C 196.125 8.56445 195.913 7.72786 195.49 7.10938C 195.074 6.49089 194.475 6.18164 193.693 6.18164C 192.723 6.18164 192.027 6.58203 191.604 7.38281L 191.604 12.0703C 192.033 12.8906 192.736 13.3008 193.713 13.3008C 194.468 13.3008 195.057 12.998 195.48 12.3926C 195.91 11.7806 196.125 10.8561 196.125 9.61914ZM 208.037 6.60156C 207.725 6.54948 207.402 6.52344 207.07 6.52344C 205.983 6.52344 205.251 6.9401 204.873 7.77344L 204.873 15L 202.5 15L 202.5 4.43359L 204.766 4.43359L 204.824 5.61523C 205.397 4.69727 206.191 4.23828 207.207 4.23828C 207.546 4.23828 207.826 4.28385 208.047 4.375L 208.037 6.60156ZM 215.994 15.1953C 214.49 15.1953 213.27 14.7233 212.332 13.7793C 211.401 12.8288 210.936 11.5658 210.936 9.99023L 210.936 9.69727C 210.936 8.64258 211.137 7.70182 211.541 6.875C 211.951 6.04167 212.524 5.39388 213.26 4.93164C 213.995 4.4694 214.816 4.23828 215.721 4.23828C 217.16 4.23828 218.27 4.69727 219.051 5.61523C 219.839 6.5332 220.232 7.83203 220.232 9.51172L 220.232 10.4688L 213.328 10.4688C 213.4 11.3411 213.689 12.0312 214.197 12.5391C 214.712 13.0469 215.356 13.3008 216.131 13.3008C 217.218 13.3008 218.104 12.8613 218.787 11.9824L 220.066 13.2031C 219.643 13.8346 219.077 14.3262 218.367 14.6777C 217.664 15.0228 216.873 15.1953 215.994 15.1953ZM 215.711 6.14258C 215.06 6.14258 214.533 6.37044 214.129 6.82617C 213.732 7.2819 213.478 7.91667 213.367 8.73047L 217.889 8.73047L 217.889 8.55469C 217.837 7.76042 217.625 7.16146 217.254 6.75781C 216.883 6.34766 216.368 6.14258 215.711 6.14258ZM 228.424 13.3008C 229.016 13.3008 229.508 13.1283 229.898 12.7832C 230.289 12.4382 230.497 12.0117 230.523 11.5039L 232.76 11.5039C 232.734 12.1615 232.529 12.7767 232.145 13.3496C 231.76 13.916 231.24 14.3652 230.582 14.6973C 229.924 15.0293 229.215 15.1953 228.453 15.1953C 226.975 15.1953 225.803 14.7168 224.938 13.7598C 224.072 12.8027 223.639 11.4811 223.639 9.79492L 223.639 9.55078C 223.639 7.94271 224.068 6.6569 224.928 5.69336C 225.787 4.72331 226.959 4.23828 228.443 4.23828C 229.7 4.23828 230.722 4.60612 231.51 5.3418C 232.304 6.07096 232.721 7.03125 232.76 8.22266L 230.523 8.22266C 230.497 7.61719 230.289 7.11914 229.898 6.72852C 229.514 6.33789 229.023 6.14258 228.424 6.14258C 227.656 6.14258 227.063 6.42253 226.646 6.98242C 226.23 7.53581 226.018 8.37891 226.012 9.51172L 226.012 9.89258C 226.012 11.0384 226.217 11.8945 226.627 12.4609C 227.044 13.0208 227.643 13.3008 228.424 13.3008ZM 239.076 15L 236.703 15L 236.703 4.43359L 239.076 4.43359L 239.076 15ZM 236.557 1.68945C 236.557 1.32487 236.671 1.02214 236.898 0.78125C 237.133 0.540365 237.465 0.419922 237.895 0.419922C 238.324 0.419922 238.656 0.540365 238.891 0.78125C 239.125 1.02214 239.242 1.32487 239.242 1.68945C 239.242 2.04753 239.125 2.34701 238.891 2.58789C 238.656 2.82227 238.324 2.93945 237.895 2.93945C 237.465 2.93945 237.133 2.82227 236.898 2.58789C 236.671 2.34701 236.557 2.04753 236.557 1.68945ZM 249.982 15C 249.878 14.7982 249.787 14.4694 249.709 14.0137C 248.954 14.8014 248.029 15.1953 246.936 15.1953C 245.874 15.1953 245.008 14.8926 244.338 14.2871C 243.667 13.6816 243.332 12.9329 243.332 12.041C 243.332 10.9147 243.749 10.0521 244.582 9.45312C 245.422 8.84766 246.62 8.54492 248.176 8.54492L 249.631 8.54492L 249.631 7.85156C 249.631 7.30469 249.478 6.86849 249.172 6.54297C 248.866 6.21094 248.4 6.04492 247.775 6.04492C 247.235 6.04492 246.792 6.18164 246.447 6.45508C 246.102 6.72201 245.93 7.0638 245.93 7.48047L 243.557 7.48047C 243.557 6.90104 243.749 6.36068 244.133 5.85938C 244.517 5.35156 245.038 4.95443 245.695 4.66797C 246.359 4.38151 247.098 4.23828 247.912 4.23828C 249.149 4.23828 250.135 4.55078 250.871 5.17578C 251.607 5.79427 251.984 6.66667 252.004 7.79297L 252.004 12.5586C 252.004 13.5091 252.137 14.2676 252.404 14.834L 252.404 15L 249.982 15ZM 247.375 13.291C 247.844 13.291 248.283 13.1771 248.693 12.9492C 249.11 12.7214 249.423 12.4154 249.631 12.0312L 249.631 10.0391L 248.352 10.0391C 247.473 10.0391 246.812 10.1921 246.369 10.498C 245.926 10.804 245.705 11.237 245.705 11.7969C 245.705 12.2526 245.855 12.6172 246.154 12.8906C 246.46 13.1576 246.867 13.291 247.375 13.291ZM 259.463 1.86523L 259.463 4.43359L 261.328 4.43359L 261.328 6.19141L 259.463 6.19141L 259.463 12.0898C 259.463 12.4935 259.541 12.7865 259.697 12.9688C 259.86 13.1445 260.146 13.2324 260.557 13.2324C 260.83 13.2324 261.107 13.1999 261.387 13.1348L 261.387 14.9707C 260.846 15.1204 260.326 15.1953 259.824 15.1953C 258.001 15.1953 257.09 14.1895 257.09 12.1777L 257.09 6.19141L 255.352 6.19141L 255.352 4.43359L 257.09 4.43359L 257.09 1.86523L 259.463 1.86523ZM 267.674 15L 265.301 15L 265.301 4.43359L 267.674 4.43359L 267.674 15ZM 265.154 1.68945C 265.154 1.32487 265.268 1.02214 265.496 0.78125C 265.73 0.540365 266.062 0.419922 266.492 0.419922C 266.922 0.419922 267.254 0.540365 267.488 0.78125C 267.723 1.02214 267.84 1.32487 267.84 1.68945C 267.84 2.04753 267.723 2.34701 267.488 2.58789C 267.254 2.82227 266.922 2.93945 266.492 2.93945C 266.062 2.93945 265.73 2.82227 265.496 2.58789C 265.268 2.34701 265.154 2.04753 265.154 1.68945ZM 271.822 9.61914C 271.822 8.58398 272.027 7.65299 272.438 6.82617C 272.848 5.99284 273.424 5.35482 274.166 4.91211C 274.908 4.46289 275.761 4.23828 276.725 4.23828C 278.15 4.23828 279.306 4.69727 280.191 5.61523C 281.083 6.5332 281.565 7.75065 281.637 9.26758L 281.646 9.82422C 281.646 10.8659 281.445 11.7969 281.041 12.6172C 280.644 13.4375 280.071 14.0723 279.322 14.5215C 278.58 14.9707 277.721 15.1953 276.744 15.1953C 275.253 15.1953 274.059 14.7005 273.16 13.7109C 272.268 12.7148 271.822 11.39 271.822 9.73633L 271.822 9.61914ZM 274.195 9.82422C 274.195 10.9115 274.42 11.7643 274.869 12.3828C 275.318 12.9948 275.943 13.3008 276.744 13.3008C 277.545 13.3008 278.167 12.9883 278.609 12.3633C 279.059 11.7383 279.283 10.8236 279.283 9.61914C 279.283 8.55143 279.052 7.70508 278.59 7.08008C 278.134 6.45508 277.512 6.14258 276.725 6.14258C 275.95 6.14258 275.335 6.45182 274.879 7.07031C 274.423 7.68229 274.195 8.60026 274.195 9.82422ZM 287.855 4.43359L 287.924 5.6543C 288.705 4.71029 289.73 4.23828 291 4.23828C 293.201 4.23828 294.32 5.49805 294.359 8.01758L 294.359 15L 291.986 15L 291.986 8.1543C 291.986 7.48372 291.84 6.98893 291.547 6.66992C 291.26 6.3444 290.788 6.18164 290.131 6.18164C 289.174 6.18164 288.461 6.61458 287.992 7.48047L 287.992 15L 285.619 15L 285.619 4.43359L 287.855 4.43359Z"/>
<path id="path1_fill_logo" d="M 7.28934 27.9442L 26.0999 27.9442L 26.0999 57.3422L 55.1895 57.3422L 55.1895 27.9442L 74.0001 27.9442L 74.0001 100L 55.1895 100L 55.1895 72.3495L 26.0999 72.3495L 26.0999 100L 7.28934 100L 7.28934 27.9442ZM 140.932 100L 135.998 87.254L 104.853 87.254L 99.8164 100L 80.4919 100L 111.432 27.9442L 130.756 27.9442L 160.976 100L 140.932 100ZM 110.507 72.8634L 130.448 72.8634L 120.58 47.1659L 110.507 72.8634ZM 216.844 49.6329C 213.006 47.3715 208.895 45.5213 204.509 44.0822C 200.192 42.6432 196.56 41.9236 193.613 41.9236C 191.283 41.9236 189.433 42.3691 188.062 43.2599C 186.76 44.0822 186.109 45.3157 186.109 46.9604C 186.109 48.5365 186.692 49.8727 187.857 50.9692C 189.022 51.9971 190.461 52.8537 192.174 53.5389C 193.887 54.1557 196.423 54.978 199.78 56.0059C 204.783 57.4449 208.895 58.884 212.115 60.3231C 215.405 61.7621 218.214 63.9892 220.544 67.0044C 222.874 69.9511 224.039 73.8228 224.039 78.6197C 224.039 83.4165 222.771 87.5281 220.236 90.9545C 217.7 94.3123 214.205 96.8478 209.751 98.5609C 205.365 100.274 200.466 101.131 195.052 101.131C 189.09 101.131 183.129 100.103 177.167 98.047C 171.273 95.9227 166.168 93.0445 161.851 89.4126L 169.149 74.7137C 172.781 77.9344 177.064 80.5727 181.998 82.6285C 187 84.6843 191.42 85.7122 195.258 85.7122C 198.067 85.7122 200.26 85.1982 201.836 84.1703C 203.481 83.1424 204.303 81.6349 204.303 79.6476C 204.303 78.0029 203.687 76.6324 202.453 75.536C 201.288 74.4396 199.78 73.583 197.93 72.9662C 196.149 72.281 193.613 71.4929 190.324 70.6021C 185.39 69.2315 181.313 67.861 178.092 66.4905C 174.871 65.0514 172.096 62.9271 169.766 60.1175C 167.504 57.2394 166.374 53.4361 166.374 48.7078C 166.374 44.2536 167.539 40.3475 169.869 36.9897C 172.267 33.6319 175.625 31.0622 179.942 29.2805C 184.328 27.4303 189.399 26.5052 195.155 26.5052C 200.363 26.5052 205.502 27.2589 210.573 28.7665C 215.644 30.2056 220.099 32.1586 223.936 34.6256L 216.844 49.6329ZM 233.648 27.9442L 252.459 27.9442L 252.459 57.3422L 281.548 57.3422L 281.548 27.9442L 300.359 27.9442L 300.359 100L 281.548 100L 281.548 72.3495L 252.459 72.3495L 252.459 100L 233.648 100L 233.648 27.9442ZM 348.583 27.9442C 353.997 27.9442 358.691 28.698 362.666 30.2056C 366.709 31.6446 369.827 33.7347 372.02 36.4758C 374.212 39.2168 375.309 42.4376 375.309 46.138C 375.309 49.907 374.178 53.1963 371.917 56.0059C 369.724 58.8155 366.709 60.7342 362.871 61.7621C 367.463 62.653 371.06 64.743 373.664 68.0323C 376.337 71.3216 377.673 75.2961 377.673 79.956C 377.673 83.999 376.542 87.5624 374.281 90.6461C 372.02 93.6613 368.799 95.9912 364.619 97.6358C 360.439 99.2119 355.539 100 349.92 100L 314.354 100L 314.354 27.9442L 348.583 27.9442ZM 347.556 56.6226C 350.16 56.6226 352.215 56.0059 353.723 54.7724C 355.231 53.4704 355.984 51.6887 355.984 49.4273C 355.984 47.2345 355.231 45.5556 353.723 44.3906C 352.215 43.1571 350.16 42.5747 347.556 42.6432L 333.165 42.6432L 333.165 56.6226L 347.556 56.6226ZM 347.556 85.4038C 350.845 85.4038 353.449 84.7186 355.368 83.348C 357.286 81.9775 358.246 80.0587 358.246 77.5918C 358.246 75.3304 357.286 73.5487 355.368 72.2467C 353.449 70.8762 350.845 70.2252 347.556 70.2937L 333.165 70.2937L 333.165 85.4038L 347.556 85.4038ZM 440.87 100L 435.937 87.254L 404.791 87.254L 399.754 100L 380.43 100L 411.37 27.9442L 430.694 27.9442L 460.914 100L 440.87 100ZM 410.445 72.8634L 430.386 72.8634L 420.518 47.1659L 410.445 72.8634ZM 517.643 52.4082C 515.313 49.4616 512.537 47.1317 509.317 45.4185C 506.096 43.6368 502.909 42.746 499.757 42.746C 496.125 42.746 492.802 43.6711 489.786 45.5213C 486.84 47.303 484.51 49.8042 482.797 53.025C 481.084 56.1772 480.227 59.7063 480.227 63.6123C 480.227 67.5184 481.084 71.0817 482.797 74.3025C 484.51 77.4547 486.84 79.956 489.786 81.8062C 492.802 83.5879 496.125 84.4787 499.757 84.4787C 502.704 84.4787 505.787 83.7249 509.008 82.2173C 512.229 80.7097 515.107 78.6539 517.643 76.0499L 528.641 87.8708C 524.735 91.9824 520.075 95.2717 514.662 97.7386C 509.317 100.137 504.006 101.336 498.729 101.336C 491.602 101.336 485.161 99.6916 479.405 96.4023C 473.648 93.1131 469.126 88.6246 465.836 82.9369C 462.547 77.2491 460.902 70.8762 460.902 63.8179C 460.902 56.8282 462.581 50.5237 465.939 44.9046C 469.297 39.2854 473.888 34.8654 479.713 31.6446C 485.606 28.4239 492.185 26.8135 499.449 26.8135C 504.794 26.8135 510.07 27.9442 515.278 30.2056C 520.486 32.3984 524.906 35.4136 528.538 39.2511L 517.643 52.4082ZM 605.978 100L 583.467 100L 564.554 72.0411L 555.509 82.1145L 555.509 100L 536.698 100L 536.698 27.9442L 555.509 27.9442L 555.509 59.1924L 582.542 27.9442L 604.334 27.9442L 577.608 57.6505L 605.978 100Z"/>
<path id="path2_fill_logo" d="M 115.68 231.359C 179.568 231.359 231.359 179.568 231.359 115.68C 231.359 51.7915 179.568 0 115.68 0C 51.7915 0 0 51.7915 0 115.68C 0 179.568 51.7915 231.359 115.68 231.359Z"/>
<path id="path3_stroke_2x_logo" d="M 230.359 115.68C 230.359 179.015 179.015 230.359 115.68 230.359L 115.68 232.359C 180.12 232.359 232.359 180.12 232.359 115.68L 230.359 115.68ZM 115.68 230.359C 52.3438 230.359 1 179.015 1 115.68L -1 115.68C -1 180.12 51.2393 232.359 115.68 232.359L 115.68 230.359ZM 1 115.68C 1 52.3438 52.3438 1 115.68 1L 115.68 -1C 51.2393 -1 -1 51.2393 -1 115.68L 1 115.68ZM 115.68 1C 179.015 1 230.359 52.3438 230.359 115.68L 232.359 115.68C 232.359 51.2393 180.12 -1 115.68 -1L 115.68 1Z"/>
<path id="path4_fill_logo" d="M 121.5 243C 188.603 243 243 188.603 243 121.5C 243 54.3974 188.603 0 121.5 0C 54.3974 0 0 54.3974 0 121.5C 0 188.603 54.3974 243 121.5 243Z"/>
<path id="path5_stroke_2x" d="M 242 121.5C 242 188.05 188.05 242 121.5 242L 121.5 244C 189.155 244 244 189.155 244 121.5L 242 121.5ZM 121.5 242C 54.9497 242 1 188.05 1 121.5L -1 121.5C -1 189.155 53.8451 244 121.5 244L 121.5 242ZM 1 121.5C 1 54.9497 54.9497 1 121.5 1L 121.5 -1C 53.8451 -1 -1 53.8451 -1 121.5L 1 121.5ZM 121.5 1C 188.05 1 242 54.9497 242 121.5L 244 121.5C 244 53.8451 189.155 -1 121.5 -1L 121.5 1Z"/>
<path id="path6_fill_logo" d="M 95.3084 190.617C 147.946 190.617 190.617 147.946 190.617 95.3084C 190.617 42.671 147.946 0 95.3084 0C 42.671 0 0 42.671 0 95.3084C 0 147.946 42.671 190.617 95.3084 190.617Z"/>
<path id="path7_fill_logo" d="M 70.0917 68.6802L 42.1685 68.6802L 48.5418 40.3205L 76.465 40.3205L 70.0917 68.6802ZM 109.554 68.6802L 88.0184 68.6802L 94.3917 40.3205L 115.971 40.3205L 119.899 22.8595L 98.3204 22.8595L 103.457 3.55247e-06L 85.5156 3.55247e-06L 80.3792 22.8595L 52.4705 22.8595L 57.607 3.55247e-06L 39.6657 3.55247e-06L 34.4856 22.8158L 14.2744 22.8158L 10.3457 40.2769L 30.6005 40.2769L 24.3 68.6802L 3.92874 68.6802L 4.44058e-06 86.1413L 20.2549 86.1413L 15.1911 108.855L 33.1324 108.855L 38.2398 86.1268L 66.1629 86.1268L 61.0556 108.855L 78.9968 108.855L 84.1042 86.1268L 105.625 86.1268L 109.554 68.6802Z"/>
</defs>
</svg>
