<svg id="Слой_1" data-name="Слой 1" xmlns="http://www.w3.org/2000/svg" viewBox="0 0 620.36 294.7"><defs><style>.cls-1{opacity:0.9;}.cls-2{fill:#001035;}.cls-3{fill:#f9e42b;}</style></defs><title>logo h</title><g class="cls-1"><circle class="cls-2" cx="290.84" cy="91.69" r="91.69"/></g><g class="cls-1"><path class="cls-3" d="M3674.78-1155.15h-26.86l6.13-27.28h26.86Zm38,0H3692l6.13-27.28h20.71l3.78-16.84h-20.71l4.94-22h-17.26l-4.94,22h-26.86l4.94-22h-17.26l-4.94,22h-19.48l-3.78,16.84h19.48l-6.13,27.28h-19.48l-3.78,16.84h19.48l-4.91,21.87h17.26l4.91-21.87H3671l-4.91,21.87h17.26l4.91-21.87H3709Z" transform="translate(-3374.19 1259.15)"/></g><g class="cls-1"><path class="cls-2" d="M3374.19-1035.67h18.25v28.53h28.23v-28.53h18.25v69.92h-18.25v-26.83h-28.23v26.83h-18.25v-69.92Z" transform="translate(-3374.19 1259.15)"/><path class="cls-2" d="M3503.86-965.74l-4.79-12.37h-30.22L3464-965.74h-18.75l30-69.92H3494l29.33,69.92h-19.45Zm-29.53-26.33h19.35l-9.58-24.94Z" transform="translate(-3374.19 1259.15)"/><path class="cls-2" d="M3565.56-1020a35.11,35.11,0,0,0-10.62-2.09,9.83,9.83,0,0,0-5.34,1.25,4.06,4.06,0,0,0-1.94,3.64,5,5,0,0,0,1.7,3.84,12.94,12.94,0,0,0,4.19,2.49q2.49,0.95,7.38,2.44a96.12,96.12,0,0,1,12,4.19,21,21,0,0,1,8.13,6.43q3.39,4.34,3.39,11.32a19.35,19.35,0,0,1-3.69,11.92,22.37,22.37,0,0,1-10.12,7.43,39.34,39.34,0,0,1-14.31,2.49,51.75,51.75,0,0,1-17.31-3,47.33,47.33,0,0,1-14.91-8.33l7.08-14.26a44,44,0,0,0,12.52,7.68,34.16,34.16,0,0,0,12.82,3,11.89,11.89,0,0,0,6.43-1.5,4.88,4.88,0,0,0,2.34-4.39,5.19,5.19,0,0,0-1.75-4,12.88,12.88,0,0,0-4.39-2.54q-2.64-.95-7.43-2.24a91.53,91.53,0,0,1-11.87-4,21,21,0,0,1-8-6.18q-3.34-4.14-3.34-11a19.25,19.25,0,0,1,3.44-11.37,21.91,21.91,0,0,1,9.78-7.53,38,38,0,0,1,14.71-2.64,53.4,53.4,0,0,1,15,2.14,49.3,49.3,0,0,1,13,5.74l-6.88,14.56A61.38,61.38,0,0,0,3565.56-1020Z" transform="translate(-3374.19 1259.15)"/><path class="cls-2" d="M3593.73-1035.67H3612v28.53h28.23v-28.53h18.25v69.92h-18.25v-26.83H3612v26.83h-18.25v-69.92Z" transform="translate(-3374.19 1259.15)"/><path class="cls-2" d="M3719-1033.52a20.12,20.12,0,0,1,9,6.13,14.56,14.56,0,0,1,3.19,9.38,15,15,0,0,1-3.24,9.58,16.25,16.25,0,0,1-8.83,5.59,17.17,17.17,0,0,1,10.52,6.08,17.92,17.92,0,0,1,3.84,11.57,16.86,16.86,0,0,1-3.29,10.32,20.45,20.45,0,0,1-9.38,6.78,39.59,39.59,0,0,1-14.26,2.34H3672v-69.92h33.22A39.76,39.76,0,0,1,3719-1033.52Zm-8.73,23.84a6.35,6.35,0,0,0,2.19-5.14,6,6,0,0,0-2.19-4.94,9,9,0,0,0-6-1.65h-14v13.57h14A9,9,0,0,0,3710.24-1009.68Zm1.6,27.78a6.48,6.48,0,0,0,2.79-5.59,6.07,6.07,0,0,0-2.79-5.24,12.59,12.59,0,0,0-7.58-1.85h-14v14.66h14A12.81,12.81,0,0,0,3711.84-981.9Z" transform="translate(-3374.19 1259.15)"/><path class="cls-2" d="M3794.83-965.74L3790-978.11h-30.22l-4.89,12.37h-18.75l30-69.92H3785l29.33,69.92h-19.45Zm-29.53-26.33h19.35l-9.58-24.94Z" transform="translate(-3374.19 1259.15)"/><path class="cls-2" d="M3861.16-1018.76a19.34,19.34,0,0,0-9.28-2.54,18.15,18.15,0,0,0-9.63,2.64,18.72,18.72,0,0,0-6.83,7.28,21.44,21.44,0,0,0-2.49,10.32,21.45,21.45,0,0,0,2.49,10.32,18.71,18.71,0,0,0,6.83,7.28,18.14,18.14,0,0,0,9.63,2.64,21.17,21.17,0,0,0,9-2.19,28.45,28.45,0,0,0,8.38-6l10.67,11.47A42.67,42.67,0,0,1,3866.4-968a37.44,37.44,0,0,1-15.51,3.54,37.12,37.12,0,0,1-18.75-4.79A35,35,0,0,1,3819-982.3a36.38,36.38,0,0,1-4.79-18.55,35.09,35.09,0,0,1,4.89-18.35,34.92,34.92,0,0,1,13.42-12.87,39,39,0,0,1,19.1-4.69,38.77,38.77,0,0,1,15.36,3.24,38.12,38.12,0,0,1,12.87,8.83l-10.57,12.77A26.09,26.09,0,0,0,3861.16-1018.76Z" transform="translate(-3374.19 1259.15)"/><path class="cls-2" d="M3954.92-965.74h-21.84l-18.35-27.13-8.78,9.78v17.36h-18.25v-69.92h18.25v30.32l26.23-30.32h21.15l-25.93,28.83Z" transform="translate(-3374.19 1259.15)"/></g><g class="cls-1"><path class="cls-2" d="M3972.52-1038.29a5.06,5.06,0,0,1-2.76.87,3.13,3.13,0,0,1-2.27-.83,3.35,3.35,0,0,1-.87-2.52v-6.51H3965v-1.58h1.67V-1052h2.09v3.16h3.6v1.58h-3.6v6.13a2.18,2.18,0,0,0,.36,1.4,1.32,1.32,0,0,0,1.07.42,3.72,3.72,0,0,0,1.82-.56Z" transform="translate(-3374.19 1259.15)"/><path class="cls-2" d="M3993.39-1048.11a4.66,4.66,0,0,1,1.16,3.33v7.27h-2.09v-6.71a3.23,3.23,0,0,0-.81-2.33,3,3,0,0,0-2.23-.84,3.37,3.37,0,0,0-2.62,1.18,4.36,4.36,0,0,0-1,2.91v5.8h-2.09v-6.71a3.26,3.26,0,0,0-.8-2.33,2.94,2.94,0,0,0-2.24-.84,3.41,3.41,0,0,0-2.63,1.18,4.33,4.33,0,0,0-1,2.91v5.8H3975v-11.76h2.07v2.47a4.44,4.44,0,0,1,4.38-2.53,4.5,4.5,0,0,1,2.7.78,3.81,3.81,0,0,1,1.46,2.18,4.46,4.46,0,0,1,4.58-3A4.16,4.16,0,0,1,3993.39-1048.11Z" transform="translate(-3374.19 1259.15)"/></g></svg>