<svg id="Слой_logo1" data-name="Слой logo1" xmlns="http://www.w3.org/2000/svg" viewBox="0 0 620.36 373.12"><defs><style>.cls-1{opacity:0.9;}.cls-2{fill:#001035;}.cls-3{fill:#fff41f;}</style></defs><title>logo h1</title><g class="cls-1"><circle class="cls-2" cx="290.84" cy="91.69" r="91.69"/></g><g class="cls-1"><path class="cls-3" d="M3674.78-1155.15h-26.86l6.13-27.28h26.86Zm38,0H3692l6.13-27.28h20.71l3.78-16.84h-20.71l4.94-22h-17.26l-4.94,22h-26.86l4.94-22h-17.26l-4.94,22h-19.48l-3.78,16.84h19.48l-6.13,27.28h-19.48l-3.78,16.84h19.48l-4.91,21.87h17.26l4.91-21.87H3671l-4.91,21.87h17.26l4.91-21.87H3709Z" transform="translate(-3374.19 1259.15)"/></g><g class="cls-1"><path class="cls-2" d="M3374.19-1035.67h18.25v28.53h28.23v-28.53h18.25v69.92h-18.25v-26.83h-28.23v26.83h-18.25v-69.92Z" transform="translate(-3374.19 1259.15)"/><path class="cls-2" d="M3503.86-965.74l-4.79-12.37h-30.22L3464-965.74h-18.75l30-69.92H3494l29.33,69.92h-19.45Zm-29.53-26.33h19.35l-9.58-24.94Z" transform="translate(-3374.19 1259.15)"/><path class="cls-2" d="M3565.56-1020a35.11,35.11,0,0,0-10.62-2.09,9.83,9.83,0,0,0-5.34,1.25,4.06,4.06,0,0,0-1.94,3.64,5,5,0,0,0,1.7,3.84,12.94,12.94,0,0,0,4.19,2.49q2.49,0.95,7.38,2.44a96.12,96.12,0,0,1,12,4.19,21,21,0,0,1,8.13,6.43q3.39,4.34,3.39,11.32a19.35,19.35,0,0,1-3.69,11.92,22.37,22.37,0,0,1-10.12,7.43,39.34,39.34,0,0,1-14.31,2.49,51.75,51.75,0,0,1-17.31-3,47.33,47.33,0,0,1-14.91-8.33l7.08-14.26a44,44,0,0,0,12.52,7.68,34.16,34.16,0,0,0,12.82,3,11.89,11.89,0,0,0,6.43-1.5,4.88,4.88,0,0,0,2.34-4.39,5.19,5.19,0,0,0-1.75-4,12.88,12.88,0,0,0-4.39-2.54q-2.64-.95-7.43-2.24a91.53,91.53,0,0,1-11.87-4,21,21,0,0,1-8-6.18q-3.34-4.14-3.34-11a19.25,19.25,0,0,1,3.44-11.37,21.91,21.91,0,0,1,9.78-7.53,38,38,0,0,1,14.71-2.64,53.4,53.4,0,0,1,15,2.14,49.3,49.3,0,0,1,13,5.74l-6.88,14.56A61.38,61.38,0,0,0,3565.56-1020Z" transform="translate(-3374.19 1259.15)"/><path class="cls-2" d="M3593.73-1035.67H3612v28.53h28.23v-28.53h18.25v69.92h-18.25v-26.83H3612v26.83h-18.25v-69.92Z" transform="translate(-3374.19 1259.15)"/><path class="cls-2" d="M3719-1033.52a20.12,20.12,0,0,1,9,6.13,14.56,14.56,0,0,1,3.19,9.38,15,15,0,0,1-3.24,9.58,16.25,16.25,0,0,1-8.83,5.59,17.17,17.17,0,0,1,10.52,6.08,17.92,17.92,0,0,1,3.84,11.57,16.86,16.86,0,0,1-3.29,10.32,20.45,20.45,0,0,1-9.38,6.78,39.59,39.59,0,0,1-14.26,2.34H3672v-69.92h33.22A39.76,39.76,0,0,1,3719-1033.52Zm-8.73,23.84a6.35,6.35,0,0,0,2.19-5.14,6,6,0,0,0-2.19-4.94,9,9,0,0,0-6-1.65h-14v13.57h14A9,9,0,0,0,3710.24-1009.68Zm1.6,27.78a6.48,6.48,0,0,0,2.79-5.59,6.07,6.07,0,0,0-2.79-5.24,12.59,12.59,0,0,0-7.58-1.85h-14v14.66h14A12.81,12.81,0,0,0,3711.84-981.9Z" transform="translate(-3374.19 1259.15)"/><path class="cls-2" d="M3794.83-965.74L3790-978.11h-30.22l-4.89,12.37h-18.75l30-69.92H3785l29.33,69.92h-19.45Zm-29.53-26.33h19.35l-9.58-24.94Z" transform="translate(-3374.19 1259.15)"/><path class="cls-2" d="M3861.16-1018.76a19.34,19.34,0,0,0-9.28-2.54,18.15,18.15,0,0,0-9.63,2.64,18.72,18.72,0,0,0-6.83,7.28,21.44,21.44,0,0,0-2.49,10.32,21.45,21.45,0,0,0,2.49,10.32,18.71,18.71,0,0,0,6.83,7.28,18.14,18.14,0,0,0,9.63,2.64,21.17,21.17,0,0,0,9-2.19,28.45,28.45,0,0,0,8.38-6l10.67,11.47A42.67,42.67,0,0,1,3866.4-968a37.44,37.44,0,0,1-15.51,3.54,37.12,37.12,0,0,1-18.75-4.79A35,35,0,0,1,3819-982.3a36.38,36.38,0,0,1-4.79-18.55,35.09,35.09,0,0,1,4.89-18.35,34.92,34.92,0,0,1,13.42-12.87,39,39,0,0,1,19.1-4.69,38.77,38.77,0,0,1,15.36,3.24,38.12,38.12,0,0,1,12.87,8.83l-10.57,12.77A26.09,26.09,0,0,0,3861.16-1018.76Z" transform="translate(-3374.19 1259.15)"/><path class="cls-2" d="M3954.92-965.74h-21.84l-18.35-27.13-8.78,9.78v17.36h-18.25v-69.92h18.25v30.32l26.23-30.32h21.15l-25.93,28.83Z" transform="translate(-3374.19 1259.15)"/></g><g class="cls-1"><path class="cls-2" d="M3972.52-1038.29a5.06,5.06,0,0,1-2.76.87,3.13,3.13,0,0,1-2.27-.83,3.35,3.35,0,0,1-.87-2.52v-6.51H3965v-1.58h1.67V-1052h2.09v3.16h3.6v1.58h-3.6v6.13a2.18,2.18,0,0,0,.36,1.4,1.32,1.32,0,0,0,1.07.42,3.72,3.72,0,0,0,1.82-.56Z" transform="translate(-3374.19 1259.15)"/><path class="cls-2" d="M3993.39-1048.11a4.66,4.66,0,0,1,1.16,3.33v7.27h-2.09v-6.71a3.23,3.23,0,0,0-.81-2.33,3,3,0,0,0-2.23-.84,3.37,3.37,0,0,0-2.62,1.18,4.36,4.36,0,0,0-1,2.91v5.8h-2.09v-6.71a3.26,3.26,0,0,0-.8-2.33,2.94,2.94,0,0,0-2.24-.84,3.41,3.41,0,0,0-2.63,1.18,4.33,4.33,0,0,0-1,2.91v5.8H3975v-11.76h2.07v2.47a4.44,4.44,0,0,1,4.38-2.53,4.5,4.5,0,0,1,2.7.78,3.81,3.81,0,0,1,1.46,2.18,4.46,4.46,0,0,1,4.58-3A4.16,4.16,0,0,1,3993.39-1048.11Z" transform="translate(-3374.19 1259.15)"/></g><g class="cls-1"><path class="cls-2" d="M3471.6-915.52h-8v21.83h-5.4v-21.83h-7.92v-4.37h21.34v4.37Z" transform="translate(-3374.19 1259.15)"/><path class="cls-2" d="M3479.41-911a6.49,6.49,0,0,1,5.2-2.48q6.33,0,6.42,7.36v12.47h-5.2V-906a3.62,3.62,0,0,0-.72-2.47,3.09,3.09,0,0,0-2.39-.8,3.54,3.54,0,0,0-3.31,1.76v13.84h-5.2v-27.64h5.2V-911Z" transform="translate(-3374.19 1259.15)"/><path class="cls-2" d="M3503.91-893.34a9.56,9.56,0,0,1-7-2.63,9.34,9.34,0,0,1-2.69-7v-0.5a11.77,11.77,0,0,1,1.13-5.25,8.33,8.33,0,0,1,3.21-3.56,9,9,0,0,1,4.74-1.25,8.08,8.08,0,0,1,6.29,2.52q2.29,2.52,2.29,7.14v2.12h-12.4a4.83,4.83,0,0,0,1.52,3.06,4.59,4.59,0,0,0,3.21,1.15,5.61,5.61,0,0,0,4.7-2.18l2.55,2.86a7.8,7.8,0,0,1-3.17,2.58A10.4,10.4,0,0,1,3503.91-893.34Zm-0.59-16a3.25,3.25,0,0,0-2.51,1,5.43,5.43,0,0,0-1.23,3h7.23v-0.42a3.87,3.87,0,0,0-.94-2.68A3.35,3.35,0,0,0,3503.32-909.33Z" transform="translate(-3374.19 1259.15)"/><path class="cls-2" d="M3529.79-902.93v9.23h-5.4v-26.2h10.22a11.82,11.82,0,0,1,5.19,1.08,8,8,0,0,1,3.45,3.07,8.55,8.55,0,0,1,1.21,4.53,7.52,7.52,0,0,1-2.64,6.07,11,11,0,0,1-7.3,2.22h-4.73Zm0-4.37h4.82a4.74,4.74,0,0,0,3.27-1,3.67,3.67,0,0,0,1.13-2.88,4.32,4.32,0,0,0-1.13-3.11,4.24,4.24,0,0,0-3.13-1.22h-4.95v8.22Z" transform="translate(-3374.19 1259.15)"/><path class="cls-2" d="M3558.76-908.29a14.18,14.18,0,0,0-1.87-.14q-3,0-3.87,2v12.74h-5.2v-19.47h4.91l0.14,2.32a4.82,4.82,0,0,1,4.34-2.68,5.45,5.45,0,0,1,1.62.23Z" transform="translate(-3374.19 1259.15)"/><path class="cls-2" d="M3559.8-903.61a11.55,11.55,0,0,1,1.12-5.16,8.17,8.17,0,0,1,3.21-3.51,9.37,9.37,0,0,1,4.87-1.24,8.87,8.87,0,0,1,6.43,2.41,9.68,9.68,0,0,1,2.78,6.55l0,1.33a10.18,10.18,0,0,1-2.5,7.19,8.69,8.69,0,0,1-6.71,2.71,8.74,8.74,0,0,1-6.72-2.7,10.36,10.36,0,0,1-2.51-7.34v-0.23Zm5.2,0.37a7.27,7.27,0,0,0,1,4.24,3.44,3.44,0,0,0,3,1.47,3.45,3.45,0,0,0,3-1.45,8,8,0,0,0,1.06-4.64,7.2,7.2,0,0,0-1.06-4.22,3.45,3.45,0,0,0-3-1.5,3.39,3.39,0,0,0-3,1.49A8.09,8.09,0,0,0,3565-903.24Z" transform="translate(-3374.19 1259.15)"/><path class="cls-2" d="M3580.64-903.61a11.55,11.55,0,0,1,1.12-5.16,8.17,8.17,0,0,1,3.21-3.51,9.37,9.37,0,0,1,4.87-1.24,8.87,8.87,0,0,1,6.43,2.41,9.68,9.68,0,0,1,2.78,6.55l0,1.33a10.18,10.18,0,0,1-2.5,7.19,8.69,8.69,0,0,1-6.71,2.71,8.74,8.74,0,0,1-6.72-2.7,10.36,10.36,0,0,1-2.51-7.34v-0.23Zm5.2,0.37a7.27,7.27,0,0,0,1,4.24,3.44,3.44,0,0,0,3,1.47,3.45,3.45,0,0,0,3-1.45,8,8,0,0,0,1.06-4.64,7.2,7.2,0,0,0-1.06-4.22,3.45,3.45,0,0,0-3-1.5,3.39,3.39,0,0,0-3,1.49A8.09,8.09,0,0,0,3585.84-903.24Z" transform="translate(-3374.19 1259.15)"/><path class="cls-2" d="M3603.71-893.7v-15.65h-2.9v-3.81h2.9v-1.66a6.72,6.72,0,0,1,1.88-5.08,7.28,7.28,0,0,1,5.26-1.81,12.17,12.17,0,0,1,2.64.36l-0.05,4a6.64,6.64,0,0,0-1.58-.16q-2.93,0-2.93,2.75v1.57h3.87v3.81h-3.87v15.65h-5.22Z" transform="translate(-3374.19 1259.15)"/><path class="cls-2" d="M3625.6-902.82h-10.13V-907h10.13v4.19Z" transform="translate(-3374.19 1259.15)"/><path class="cls-2" d="M3629-903.61a11.55,11.55,0,0,1,1.12-5.16,8.17,8.17,0,0,1,3.21-3.51,9.37,9.37,0,0,1,4.87-1.24,8.87,8.87,0,0,1,6.43,2.41,9.68,9.68,0,0,1,2.78,6.55l0,1.33a10.18,10.18,0,0,1-2.5,7.19,8.69,8.69,0,0,1-6.71,2.71,8.74,8.74,0,0,1-6.72-2.7,10.36,10.36,0,0,1-2.51-7.34v-0.23Zm5.2,0.37a7.27,7.27,0,0,0,1,4.24,3.44,3.44,0,0,0,3,1.47,3.45,3.45,0,0,0,3-1.45,8,8,0,0,0,1.06-4.64,7.2,7.2,0,0,0-1.06-4.22,3.45,3.45,0,0,0-3-1.5,3.39,3.39,0,0,0-3,1.49A8.09,8.09,0,0,0,3634.17-903.24Z" transform="translate(-3374.19 1259.15)"/><path class="cls-2" d="M3652-893.7v-15.65h-2.9v-3.81h2.9v-1.66a6.72,6.72,0,0,1,1.88-5.08,7.28,7.28,0,0,1,5.26-1.81,12.17,12.17,0,0,1,2.64.36l-0.05,4a6.64,6.64,0,0,0-1.58-.16q-2.93,0-2.93,2.75v1.57h3.87v3.81h-3.87v15.65H3652Z" transform="translate(-3374.19 1259.15)"/><path class="cls-2" d="M3673.93-902.82H3663.8V-907h10.13v4.19Z" transform="translate(-3374.19 1259.15)"/><path class="cls-2" d="M3692-900.57a2.77,2.77,0,0,0-1.08-2.35,14.17,14.17,0,0,0-3.89-1.73,27.57,27.57,0,0,1-4.44-1.79q-4.46-2.41-4.46-6.5a6.33,6.33,0,0,1,1.2-3.79,7.81,7.81,0,0,1,3.44-2.6,12.94,12.94,0,0,1,5-.94,11.78,11.78,0,0,1,5,1,8,8,0,0,1,3.41,2.87,7.51,7.51,0,0,1,1.21,4.21h-5.4a3.53,3.53,0,0,0-1.13-2.8,4.66,4.66,0,0,0-3.18-1,5,5,0,0,0-3.08.84,2.64,2.64,0,0,0-1.1,2.2,2.53,2.53,0,0,0,1.29,2.14,14.55,14.55,0,0,0,3.79,1.62,16.38,16.38,0,0,1,6.71,3.44,6.84,6.84,0,0,1,2.1,5.11,6.3,6.3,0,0,1-2.57,5.34,11.26,11.26,0,0,1-6.93,1.93,13.37,13.37,0,0,1-5.51-1.11,8.72,8.72,0,0,1-3.79-3,7.76,7.76,0,0,1-1.3-4.46h5.42q0,4.34,5.18,4.34a5,5,0,0,0,3-.78A2.55,2.55,0,0,0,3692-900.57Z" transform="translate(-3374.19 1259.15)"/><path class="cls-2" d="M3707-918v4.79h3.33v3.81H3707v9.72a2.32,2.32,0,0,0,.41,1.55,2.08,2.08,0,0,0,1.58.47,8.3,8.3,0,0,0,1.53-.13v3.94a10.72,10.72,0,0,1-3.15.47q-5.47,0-5.58-5.52v-10.49h-2.84v-3.81h2.84V-918h5.2Z" transform="translate(-3374.19 1259.15)"/><path class="cls-2" d="M3724.5-893.7a5.77,5.77,0,0,1-.52-1.75,6.29,6.29,0,0,1-4.91,2.1,6.91,6.91,0,0,1-4.74-1.66,5.33,5.33,0,0,1-1.88-4.17,5.5,5.5,0,0,1,2.29-4.75q2.29-1.66,6.63-1.67h2.39v-1.12a3.21,3.21,0,0,0-.69-2.16,2.73,2.73,0,0,0-2.19-.81,3.1,3.1,0,0,0-2.06.63,2.14,2.14,0,0,0-.75,1.73h-5.2a5.22,5.22,0,0,1,1-3.13,6.89,6.89,0,0,1,3-2.26,10.75,10.75,0,0,1,4.28-.82,8.5,8.5,0,0,1,5.71,1.81,6.33,6.33,0,0,1,2.11,5.08v8.44a9.3,9.3,0,0,0,.77,4.19v0.31h-5.25Zm-4.3-3.62a4.48,4.48,0,0,0,2.12-.51,3.36,3.36,0,0,0,1.44-1.38v-3.35h-1.94q-3.9,0-4.16,2.7l0,0.31a2.08,2.08,0,0,0,.68,1.6A2.65,2.65,0,0,0,3720.19-897.31Z" transform="translate(-3374.19 1259.15)"/><path class="cls-2" d="M3732.21-903.57a11.41,11.41,0,0,1,2.13-7.22,6.91,6.91,0,0,1,5.75-2.73,6.06,6.06,0,0,1,5,2.2l0.22-1.84H3750v18.82a8.31,8.31,0,0,1-1.16,4.44,7.45,7.45,0,0,1-3.27,2.88,11.48,11.48,0,0,1-4.93,1,10.68,10.68,0,0,1-4.17-.85,7.42,7.42,0,0,1-3.08-2.2l2.3-3.17a6.09,6.09,0,0,0,4.71,2.18,4.46,4.46,0,0,0,3.22-1.11,4.15,4.15,0,0,0,1.15-3.14v-1a6,6,0,0,1-4.73,2,6.89,6.89,0,0,1-5.68-2.74,11.4,11.4,0,0,1-2.17-7.28v-0.22Zm5.2,0.39a7.1,7.1,0,0,0,1.06,4.15,3.38,3.38,0,0,0,2.92,1.5,3.61,3.61,0,0,0,3.4-1.78v-8.2a3.6,3.6,0,0,0-3.37-1.78,3.4,3.4,0,0,0-2.94,1.53A8,8,0,0,0,3737.41-903.19Z" transform="translate(-3374.19 1259.15)"/><path class="cls-2" d="M3763-893.34a9.56,9.56,0,0,1-7-2.63,9.34,9.34,0,0,1-2.69-7v-0.5a11.77,11.77,0,0,1,1.13-5.25,8.33,8.33,0,0,1,3.21-3.56,9,9,0,0,1,4.74-1.25,8.08,8.08,0,0,1,6.29,2.52q2.29,2.52,2.29,7.14v2.12h-12.4a4.83,4.83,0,0,0,1.52,3.06,4.59,4.59,0,0,0,3.21,1.15,5.61,5.61,0,0,0,4.7-2.18l2.55,2.86a7.8,7.8,0,0,1-3.17,2.58A10.4,10.4,0,0,1,3763-893.34Zm-0.59-16a3.25,3.25,0,0,0-2.51,1,5.43,5.43,0,0,0-1.23,3h7.23v-0.42a3.87,3.87,0,0,0-.94-2.68A3.35,3.35,0,0,0,3762.37-909.33Z" transform="translate(-3374.19 1259.15)"/><path class="cls-2" d="M3802.08-915.52h-8v21.83h-5.4v-21.83h-7.92v-4.37h21.34v4.37Z" transform="translate(-3374.19 1259.15)"/><path class="cls-2" d="M3800.27-903.61a11.55,11.55,0,0,1,1.12-5.16,8.17,8.17,0,0,1,3.21-3.51,9.37,9.37,0,0,1,4.87-1.24,8.87,8.87,0,0,1,6.43,2.41,9.68,9.68,0,0,1,2.78,6.55l0,1.33a10.18,10.18,0,0,1-2.5,7.19,8.69,8.69,0,0,1-6.71,2.71,8.74,8.74,0,0,1-6.72-2.7,10.36,10.36,0,0,1-2.51-7.34v-0.23Zm5.2,0.37a7.27,7.27,0,0,0,1,4.24,3.44,3.44,0,0,0,3,1.47,3.45,3.45,0,0,0,3-1.45,8,8,0,0,0,1.06-4.64,7.2,7.2,0,0,0-1.06-4.22,3.45,3.45,0,0,0-3-1.5,3.39,3.39,0,0,0-3,1.49A8.09,8.09,0,0,0,3805.47-903.24Z" transform="translate(-3374.19 1259.15)"/><path class="cls-2" d="M3829-901.5l-1.87,1.87v5.94h-5.2v-27.64h5.2V-906l1-1.3,5-5.85h6.24l-7,8.11L3840-893.7h-6Z" transform="translate(-3374.19 1259.15)"/><path class="cls-2" d="M3850.2-893.34a9.56,9.56,0,0,1-7-2.63,9.34,9.34,0,0,1-2.69-7v-0.5a11.77,11.77,0,0,1,1.13-5.25,8.33,8.33,0,0,1,3.21-3.56,9,9,0,0,1,4.74-1.25,8.08,8.08,0,0,1,6.29,2.52q2.29,2.52,2.29,7.14v2.12h-12.4a4.83,4.83,0,0,0,1.52,3.06,4.59,4.59,0,0,0,3.21,1.15,5.61,5.61,0,0,0,4.7-2.18l2.55,2.86a7.8,7.8,0,0,1-3.17,2.58A10.4,10.4,0,0,1,3850.2-893.34Zm-0.59-16a3.25,3.25,0,0,0-2.51,1,5.43,5.43,0,0,0-1.23,3h7.23v-0.42a3.87,3.87,0,0,0-.94-2.68A3.35,3.35,0,0,0,3849.6-909.33Z" transform="translate(-3374.19 1259.15)"/><path class="cls-2" d="M3865.94-913.16l0.16,2.25a6.8,6.8,0,0,1,5.6-2.61,5.65,5.65,0,0,1,4.61,1.82,8.48,8.48,0,0,1,1.55,5.43v12.58h-5.2v-12.45a3.38,3.38,0,0,0-.72-2.4,3.22,3.22,0,0,0-2.39-.75,3.58,3.58,0,0,0-3.29,1.87v13.73H3861v-19.47h4.89Z" transform="translate(-3374.19 1259.15)"/></g></svg>