<svg viewBox="0 0 599 396" version="1.1" xmlns="http://www.w3.org/2000/svg" xmlns:xlink="http://www.w3.org/1999/xlink">
<g id="Canvas_logo" transform="translate(-3534 -265)">
<g id="logo">
<g id="Group_logo1">
<g id="Proof-of-Stage_logo">
<use xlink:href="#path0_fill_logo" transform="translate(3673 641)" fill="#333333"/>
</g>
<g id="1 2_logo">
<g id="HASHBACK_logo1" style="mix-blend-mode:overlay">
<use xlink:href="#path1_fill_logo" transform="translate(3527 492)" fill="#333333"/>
</g>
<g id="HASHBACK_logo2" style="mix-blend-mode:overlay">
<use xlink:href="#path1_fill_logo" transform="translate(3527 492)" fill="#333333"/>
</g>
<g id="HASHBACK_logo3" style="mix-blend-mode:overlay">
<use xlink:href="#path1_fill_logo" transform="translate(3527 492)" fill="#333333"/>
</g>
<g id="HASHBACK_logo4" style="mix-blend-mode:overlay">
<use xlink:href="#path1_fill_logo" transform="translate(3527 492)" fill="#333333"/>
</g>
<g id="HASHBACK_logo5" style="mix-blend-mode:overlay">
<use xlink:href="#path1_fill_logo" transform="translate(3527 492)" fill="#333333"/>
</g>
<g id="HASHBACK_logo6" style="mix-blend-mode:hard-light">
<use xlink:href="#path1_fill_logo" transform="translate(3527 492)" fill="#333333"/>
</g>
</g>
<g id="2 2_logo">
<g id="Group_logo2">
<g id="Vector_logo1">
<mask id="mask0_outline_ins_logo">
<use xlink:href="#path2_fill_logo" fill="white" transform="translate(3717.82 270.82)"/>
</mask>
<g mask="url(#mask0_outline_ins_logo)" style="mix-blend-mode:overlay">
<use xlink:href="#path3_stroke_2x_logo" transform="translate(3717.82 270.82)" fill="#FFFFFF" />
</g>
</g>
<g id="Vector_logo2">
<mask id="mask1_outline_ins">
<use xlink:href="#path4_fill_logo" fill="white" transform="translate(3712 265)"/>
</mask>
<g mask="url(#mask1_outline_ins)" style="mix-blend-mode:overlay">
<use xlink:href="#path5_stroke_2x_logo" transform="translate(3712 265)" fill="#FFFFFF"/>
</g>
</g>
<g id="Group_logo3" style="mix-blend-mode:overlay">
<g id="Vector_logo3">
<use xlink:href="#path6_fill_logo" transform="translate(3738.19 291.192)" fill="#333333"/>
</g>
<g id="Vector_logo4">
<use xlink:href="#path7_fill_logo" transform="translate(3773.55 330.61)" fill="#FCD929"/>
</g>
</g>
<g id="Group_logo4" style="mix-blend-mode:overlay">
<g id="Vector_logo5">
<use xlink:href="#path6_fill_logo" transform="translate(3738.19 291.192)" fill="#333333"/>
</g>
<g id="Vector_logo6">
<use xlink:href="#path7_fill_logo" transform="translate(3773.55 330.61)" fill="#FCD929"/>
</g>
</g>
<g id="Group_logo5" style="mix-blend-mode:overlay">
<g id="Vector_logo7">
<use xlink:href="#path6_fill_logo" transform="translate(3738.19 291.192)" fill="#333333"/>
</g>
<g id="Vector_logo8">
<use xlink:href="#path7_fill_logo" transform="translate(3773.55 330.61)" fill="#FCD929"/>
</g>
</g>
<g id="Group_logo6" style="mix-blend-mode:hard-light">
<g id="Vector_logo9">
<use xlink:href="#path6_fill_logo" transform="translate(3738.19 291.192)" fill="#333333"/>
</g>
<g id="Vector_logo10">
<use xlink:href="#path7_fill_logo" transform="translate(3773.55 330.61)" fill="#FCD929"/>
</g>
</g>
</g>
</g>
</g>
</g>
</g>
<defs>
<path id="path0_fill_logo" d="M 79.127 9.7168L 79.127 15L 76.6562 15L 76.6562 0.78125L 82.0957 0.78125C 83.6842 0.78125 84.944 1.19466 85.875 2.02148C 86.8125 2.84831 87.2812 3.94206 87.2812 5.30273C 87.2812 6.69596 86.8223 7.77995 85.9043 8.55469C 84.9928 9.32943 83.7135 9.7168 82.0664 9.7168L 79.127 9.7168ZM 79.127 7.73438L 82.0957 7.73438C 82.9746 7.73438 83.6452 7.5293 84.1074 7.11914C 84.5697 6.70247 84.8008 6.10352 84.8008 5.32227C 84.8008 4.55404 84.5664 3.94206 84.0977 3.48633C 83.6289 3.02409 82.9844 2.78646 82.1641 2.77344L 79.127 2.77344L 79.127 7.73438ZM 96.752 6.60156C 96.4395 6.54948 96.1172 6.52344 95.7852 6.52344C 94.6979 6.52344 93.9655 6.9401 93.5879 7.77344L 93.5879 15L 91.2148 15L 91.2148 4.43359L 93.4805 4.43359L 93.5391 5.61523C 94.112 4.69727 94.9062 4.23828 95.9219 4.23828C 96.2604 4.23828 96.5404 4.28385 96.7617 4.375L 96.752 6.60156ZM 99.4551 9.61914C 99.4551 8.58398 99.6602 7.65299 100.07 6.82617C 100.48 5.99284 101.057 5.35482 101.799 4.91211C 102.541 4.46289 103.394 4.23828 104.357 4.23828C 105.783 4.23828 106.939 4.69727 107.824 5.61523C 108.716 6.5332 109.198 7.75065 109.27 9.26758L 109.279 9.82422C 109.279 10.8659 109.077 11.7969 108.674 12.6172C 108.277 13.4375 107.704 14.0723 106.955 14.5215C 106.213 14.9707 105.354 15.1953 104.377 15.1953C 102.886 15.1953 101.691 14.7005 100.793 13.7109C 99.901 12.7148 99.4551 11.39 99.4551 9.73633L 99.4551 9.61914ZM 101.828 9.82422C 101.828 10.9115 102.053 11.7643 102.502 12.3828C 102.951 12.9948 103.576 13.3008 104.377 13.3008C 105.178 13.3008 105.799 12.9883 106.242 12.3633C 106.691 11.7383 106.916 10.8236 106.916 9.61914C 106.916 8.55143 106.685 7.70508 106.223 7.08008C 105.767 6.45508 105.145 6.14258 104.357 6.14258C 103.583 6.14258 102.967 6.45182 102.512 7.07031C 102.056 7.68229 101.828 8.60026 101.828 9.82422ZM 112.842 9.61914C 112.842 8.58398 113.047 7.65299 113.457 6.82617C 113.867 5.99284 114.443 5.35482 115.186 4.91211C 115.928 4.46289 116.781 4.23828 117.744 4.23828C 119.17 4.23828 120.326 4.69727 121.211 5.61523C 122.103 6.5332 122.585 7.75065 122.656 9.26758L 122.666 9.82422C 122.666 10.8659 122.464 11.7969 122.061 12.6172C 121.663 13.4375 121.09 14.0723 120.342 14.5215C 119.6 14.9707 118.74 15.1953 117.764 15.1953C 116.273 15.1953 115.078 14.7005 114.18 13.7109C 113.288 12.7148 112.842 11.39 112.842 9.73633L 112.842 9.61914ZM 115.215 9.82422C 115.215 10.9115 115.439 11.7643 115.889 12.3828C 116.338 12.9948 116.963 13.3008 117.764 13.3008C 118.564 13.3008 119.186 12.9883 119.629 12.3633C 120.078 11.7383 120.303 10.8236 120.303 9.61914C 120.303 8.55143 120.072 7.70508 119.609 7.08008C 119.154 6.45508 118.532 6.14258 117.744 6.14258C 116.969 6.14258 116.354 6.45182 115.898 7.07031C 115.443 7.68229 115.215 8.60026 115.215 9.82422ZM 127.508 15L 127.508 6.19141L 125.896 6.19141L 125.896 4.43359L 127.508 4.43359L 127.508 3.4668C 127.508 2.29492 127.833 1.38997 128.484 0.751953C 129.135 0.113932 130.047 -0.205078 131.219 -0.205078C 131.635 -0.205078 132.078 -0.146484 132.547 -0.0292969L 132.488 1.82617C 132.228 1.77409 131.925 1.74805 131.58 1.74805C 130.447 1.74805 129.881 2.33073 129.881 3.49609L 129.881 4.43359L 132.029 4.43359L 132.029 6.19141L 129.881 6.19141L 129.881 15L 127.508 15ZM 140.367 9.91211L 135.24 9.91211L 135.24 7.99805L 140.367 7.99805L 140.367 9.91211ZM 143.881 9.61914C 143.881 8.58398 144.086 7.65299 144.496 6.82617C 144.906 5.99284 145.482 5.35482 146.225 4.91211C 146.967 4.46289 147.82 4.23828 148.783 4.23828C 150.209 4.23828 151.365 4.69727 152.25 5.61523C 153.142 6.5332 153.624 7.75065 153.695 9.26758L 153.705 9.82422C 153.705 10.8659 153.503 11.7969 153.1 12.6172C 152.702 13.4375 152.13 14.0723 151.381 14.5215C 150.639 14.9707 149.779 15.1953 148.803 15.1953C 147.312 15.1953 146.117 14.7005 145.219 13.7109C 144.327 12.7148 143.881 11.39 143.881 9.73633L 143.881 9.61914ZM 146.254 9.82422C 146.254 10.9115 146.479 11.7643 146.928 12.3828C 147.377 12.9948 148.002 13.3008 148.803 13.3008C 149.604 13.3008 150.225 12.9883 150.668 12.3633C 151.117 11.7383 151.342 10.8236 151.342 9.61914C 151.342 8.55143 151.111 7.70508 150.648 7.08008C 150.193 6.45508 149.571 6.14258 148.783 6.14258C 148.008 6.14258 147.393 6.45182 146.938 7.07031C 146.482 7.68229 146.254 8.60026 146.254 9.82422ZM 158.547 15L 158.547 6.19141L 156.936 6.19141L 156.936 4.43359L 158.547 4.43359L 158.547 3.4668C 158.547 2.29492 158.872 1.38997 159.523 0.751953C 160.174 0.113932 161.086 -0.205078 162.258 -0.205078C 162.674 -0.205078 163.117 -0.146484 163.586 -0.0292969L 163.527 1.82617C 163.267 1.77409 162.964 1.74805 162.619 1.74805C 161.486 1.74805 160.92 2.33073 160.92 3.49609L 160.92 4.43359L 163.068 4.43359L 163.068 6.19141L 160.92 6.19141L 160.92 15L 158.547 15ZM 171.406 9.91211L 166.279 9.91211L 166.279 7.99805L 171.406 7.99805L 171.406 9.91211ZM 183.025 11.3379C 183.025 10.7129 182.804 10.2311 182.361 9.89258C 181.925 9.55404 181.134 9.21224 179.988 8.86719C 178.842 8.52214 177.931 8.13802 177.254 7.71484C 175.958 6.90104 175.311 5.83984 175.311 4.53125C 175.311 3.38542 175.776 2.44141 176.707 1.69922C 177.645 0.957031 178.859 0.585938 180.35 0.585938C 181.339 0.585938 182.221 0.768229 182.996 1.13281C 183.771 1.4974 184.38 2.01823 184.822 2.69531C 185.265 3.36589 185.486 4.11133 185.486 4.93164L 183.025 4.93164C 183.025 4.18945 182.791 3.61003 182.322 3.19336C 181.86 2.77018 181.196 2.55859 180.33 2.55859C 179.523 2.55859 178.895 2.73112 178.445 3.07617C 178.003 3.42122 177.781 3.90299 177.781 4.52148C 177.781 5.04232 178.022 5.47852 178.504 5.83008C 178.986 6.17513 179.78 6.51367 180.887 6.8457C 181.993 7.17122 182.882 7.54557 183.553 7.96875C 184.223 8.38542 184.715 8.86719 185.027 9.41406C 185.34 9.95443 185.496 10.5892 185.496 11.3184C 185.496 12.5033 185.04 13.4473 184.129 14.1504C 183.224 14.847 181.993 15.1953 180.438 15.1953C 179.409 15.1953 178.462 15.0065 177.596 14.6289C 176.736 14.2448 176.066 13.7174 175.584 13.0469C 175.109 12.3763 174.871 11.5951 174.871 10.7031L 177.342 10.7031C 177.342 11.5104 177.609 12.1354 178.143 12.5781C 178.676 13.0208 179.441 13.2422 180.438 13.2422C 181.297 13.2422 181.941 13.0697 182.371 12.7246C 182.807 12.373 183.025 11.9108 183.025 11.3379ZM 192.408 1.86523L 192.408 4.43359L 194.273 4.43359L 194.273 6.19141L 192.408 6.19141L 192.408 12.0898C 192.408 12.4935 192.486 12.7865 192.643 12.9688C 192.805 13.1445 193.092 13.2324 193.502 13.2324C 193.775 13.2324 194.052 13.1999 194.332 13.1348L 194.332 14.9707C 193.792 15.1204 193.271 15.1953 192.77 15.1953C 190.947 15.1953 190.035 14.1895 190.035 12.1777L 190.035 6.19141L 188.297 6.19141L 188.297 4.43359L 190.035 4.43359L 190.035 1.86523L 192.408 1.86523ZM 204.408 15C 204.304 14.7982 204.213 14.4694 204.135 14.0137C 203.38 14.8014 202.455 15.1953 201.361 15.1953C 200.3 15.1953 199.434 14.8926 198.764 14.2871C 198.093 13.6816 197.758 12.9329 197.758 12.041C 197.758 10.9147 198.174 10.0521 199.008 9.45312C 199.848 8.84766 201.046 8.54492 202.602 8.54492L 204.057 8.54492L 204.057 7.85156C 204.057 7.30469 203.904 6.86849 203.598 6.54297C 203.292 6.21094 202.826 6.04492 202.201 6.04492C 201.661 6.04492 201.218 6.18164 200.873 6.45508C 200.528 6.72201 200.355 7.0638 200.355 7.48047L 197.982 7.48047C 197.982 6.90104 198.174 6.36068 198.559 5.85938C 198.943 5.35156 199.464 4.95443 200.121 4.66797C 200.785 4.38151 201.524 4.23828 202.338 4.23828C 203.575 4.23828 204.561 4.55078 205.297 5.17578C 206.033 5.79427 206.41 6.66667 206.43 7.79297L 206.43 12.5586C 206.43 13.5091 206.563 14.2676 206.83 14.834L 206.83 15L 204.408 15ZM 201.801 13.291C 202.27 13.291 202.709 13.1771 203.119 12.9492C 203.536 12.7214 203.848 12.4154 204.057 12.0312L 204.057 10.0391L 202.777 10.0391C 201.898 10.0391 201.238 10.1921 200.795 10.498C 200.352 10.804 200.131 11.237 200.131 11.7969C 200.131 12.2526 200.281 12.6172 200.58 12.8906C 200.886 13.1576 201.293 13.291 201.801 13.291ZM 210.5 9.63867C 210.5 7.99805 210.884 6.68945 211.652 5.71289C 212.427 4.72982 213.452 4.23828 214.729 4.23828C 215.933 4.23828 216.88 4.6582 217.57 5.49805L 217.678 4.43359L 219.816 4.43359L 219.816 14.6777C 219.816 16.0645 219.383 17.1582 218.518 17.959C 217.658 18.7598 216.496 19.1602 215.031 19.1602C 214.257 19.1602 213.498 18.9974 212.756 18.6719C 212.02 18.3529 211.46 17.9329 211.076 17.4121L 212.199 15.9863C 212.928 16.8522 213.827 17.2852 214.895 17.2852C 215.682 17.2852 216.304 17.0703 216.76 16.6406C 217.215 16.2174 217.443 15.5924 217.443 14.7656L 217.443 14.0527C 216.76 14.8145 215.848 15.1953 214.709 15.1953C 213.472 15.1953 212.46 14.7038 211.672 13.7207C 210.891 12.7376 210.5 11.377 210.5 9.63867ZM 212.863 9.84375C 212.863 10.9049 213.078 11.7415 213.508 12.3535C 213.944 12.959 214.546 13.2617 215.314 13.2617C 216.271 13.2617 216.981 12.8516 217.443 12.0312L 217.443 7.38281C 216.994 6.58203 216.291 6.18164 215.334 6.18164C 214.553 6.18164 213.944 6.49089 213.508 7.10938C 213.078 7.72786 212.863 8.63932 212.863 9.84375ZM 228.916 15.1953C 227.412 15.1953 226.191 14.7233 225.254 13.7793C 224.323 12.8288 223.857 11.5658 223.857 9.99023L 223.857 9.69727C 223.857 8.64258 224.059 7.70182 224.463 6.875C 224.873 6.04167 225.446 5.39388 226.182 4.93164C 226.917 4.4694 227.738 4.23828 228.643 4.23828C 230.081 4.23828 231.191 4.69727 231.973 5.61523C 232.76 6.5332 233.154 7.83203 233.154 9.51172L 233.154 10.4688L 226.25 10.4688C 226.322 11.3411 226.611 12.0312 227.119 12.5391C 227.633 13.0469 228.278 13.3008 229.053 13.3008C 230.14 13.3008 231.025 12.8613 231.709 11.9824L 232.988 13.2031C 232.565 13.8346 231.999 14.3262 231.289 14.6777C 230.586 15.0228 229.795 15.1953 228.916 15.1953ZM 228.633 6.14258C 227.982 6.14258 227.454 6.37044 227.051 6.82617C 226.654 7.2819 226.4 7.91667 226.289 8.73047L 230.811 8.73047L 230.811 8.55469C 230.758 7.76042 230.547 7.16146 230.176 6.75781C 229.805 6.34766 229.29 6.14258 228.633 6.14258Z"/>
<path id="path1_fill_logo" d="M 7.28934 27.9442L 26.0999 27.9442L 26.0999 57.3422L 55.1895 57.3422L 55.1895 27.9442L 74.0001 27.9442L 74.0001 100L 55.1895 100L 55.1895 72.3495L 26.0999 72.3495L 26.0999 100L 7.28934 100L 7.28934 27.9442ZM 140.932 100L 135.998 87.254L 104.853 87.254L 99.8164 100L 80.4919 100L 111.432 27.9442L 130.756 27.9442L 160.976 100L 140.932 100ZM 110.507 72.8634L 130.448 72.8634L 120.58 47.1659L 110.507 72.8634ZM 216.844 49.6329C 213.006 47.3715 208.895 45.5213 204.509 44.0822C 200.192 42.6432 196.56 41.9236 193.613 41.9236C 191.283 41.9236 189.433 42.3691 188.062 43.2599C 186.76 44.0822 186.109 45.3157 186.109 46.9604C 186.109 48.5365 186.692 49.8727 187.857 50.9692C 189.022 51.9971 190.461 52.8537 192.174 53.5389C 193.887 54.1557 196.423 54.978 199.78 56.0059C 204.783 57.4449 208.895 58.884 212.115 60.3231C 215.405 61.7621 218.214 63.9892 220.544 67.0044C 222.874 69.9511 224.039 73.8228 224.039 78.6197C 224.039 83.4165 222.771 87.5281 220.236 90.9545C 217.7 94.3123 214.205 96.8478 209.751 98.5609C 205.365 100.274 200.466 101.131 195.052 101.131C 189.09 101.131 183.129 100.103 177.167 98.047C 171.273 95.9227 166.168 93.0445 161.851 89.4126L 169.149 74.7137C 172.781 77.9344 177.064 80.5727 181.998 82.6285C 187 84.6843 191.42 85.7122 195.258 85.7122C 198.067 85.7122 200.26 85.1982 201.836 84.1703C 203.481 83.1424 204.303 81.6349 204.303 79.6476C 204.303 78.0029 203.687 76.6324 202.453 75.536C 201.288 74.4396 199.78 73.583 197.93 72.9662C 196.149 72.281 193.613 71.4929 190.324 70.6021C 185.39 69.2315 181.313 67.861 178.092 66.4905C 174.871 65.0514 172.096 62.9271 169.766 60.1175C 167.504 57.2394 166.374 53.4361 166.374 48.7078C 166.374 44.2536 167.539 40.3475 169.869 36.9897C 172.267 33.6319 175.625 31.0622 179.942 29.2805C 184.328 27.4303 189.399 26.5052 195.155 26.5052C 200.363 26.5052 205.502 27.2589 210.573 28.7665C 215.644 30.2056 220.099 32.1586 223.936 34.6256L 216.844 49.6329ZM 233.648 27.9442L 252.459 27.9442L 252.459 57.3422L 281.548 57.3422L 281.548 27.9442L 300.359 27.9442L 300.359 100L 281.548 100L 281.548 72.3495L 252.459 72.3495L 252.459 100L 233.648 100L 233.648 27.9442ZM 348.583 27.9442C 353.997 27.9442 358.691 28.698 362.666 30.2056C 366.709 31.6446 369.827 33.7347 372.02 36.4758C 374.212 39.2168 375.309 42.4376 375.309 46.138C 375.309 49.907 374.178 53.1963 371.917 56.0059C 369.724 58.8155 366.709 60.7342 362.871 61.7621C 367.463 62.653 371.06 64.743 373.664 68.0323C 376.337 71.3216 377.673 75.2961 377.673 79.956C 377.673 83.999 376.542 87.5624 374.281 90.6461C 372.02 93.6613 368.799 95.9912 364.619 97.6358C 360.439 99.2119 355.539 100 349.92 100L 314.354 100L 314.354 27.9442L 348.583 27.9442ZM 347.556 56.6226C 350.16 56.6226 352.215 56.0059 353.723 54.7724C 355.231 53.4704 355.984 51.6887 355.984 49.4273C 355.984 47.2345 355.231 45.5556 353.723 44.3906C 352.215 43.1571 350.16 42.5747 347.556 42.6432L 333.165 42.6432L 333.165 56.6226L 347.556 56.6226ZM 347.556 85.4038C 350.845 85.4038 353.449 84.7186 355.368 83.348C 357.286 81.9775 358.246 80.0587 358.246 77.5918C 358.246 75.3304 357.286 73.5487 355.368 72.2467C 353.449 70.8762 350.845 70.2252 347.556 70.2937L 333.165 70.2937L 333.165 85.4038L 347.556 85.4038ZM 440.87 100L 435.937 87.254L 404.791 87.254L 399.754 100L 380.43 100L 411.37 27.9442L 430.694 27.9442L 460.914 100L 440.87 100ZM 410.445 72.8634L 430.386 72.8634L 420.518 47.1659L 410.445 72.8634ZM 517.643 52.4082C 515.313 49.4616 512.537 47.1317 509.317 45.4185C 506.096 43.6368 502.909 42.746 499.757 42.746C 496.125 42.746 492.802 43.6711 489.786 45.5213C 486.84 47.303 484.51 49.8042 482.797 53.025C 481.084 56.1772 480.227 59.7063 480.227 63.6123C 480.227 67.5184 481.084 71.0817 482.797 74.3025C 484.51 77.4547 486.84 79.956 489.786 81.8062C 492.802 83.5879 496.125 84.4787 499.757 84.4787C 502.704 84.4787 505.787 83.7249 509.008 82.2173C 512.229 80.7097 515.107 78.6539 517.643 76.0499L 528.641 87.8708C 524.735 91.9824 520.075 95.2717 514.662 97.7386C 509.317 100.137 504.006 101.336 498.729 101.336C 491.602 101.336 485.161 99.6916 479.405 96.4023C 473.648 93.1131 469.126 88.6246 465.836 82.9369C 462.547 77.2491 460.902 70.8762 460.902 63.8179C 460.902 56.8282 462.581 50.5237 465.939 44.9046C 469.297 39.2854 473.888 34.8654 479.713 31.6446C 485.606 28.4239 492.185 26.8135 499.449 26.8135C 504.794 26.8135 510.07 27.9442 515.278 30.2056C 520.486 32.3984 524.906 35.4136 528.538 39.2511L 517.643 52.4082ZM 605.978 100L 583.467 100L 564.554 72.0411L 555.509 82.1145L 555.509 100L 536.698 100L 536.698 27.9442L 555.509 27.9442L 555.509 59.1924L 582.542 27.9442L 604.334 27.9442L 577.608 57.6505L 605.978 100Z"/>
<path id="path2_fill_logo" d="M 115.68 231.359C 179.568 231.359 231.359 179.568 231.359 115.68C 231.359 51.7915 179.568 0 115.68 0C 51.7915 0 0 51.7915 0 115.68C 0 179.568 51.7915 231.359 115.68 231.359Z"/>
<path id="path3_stroke_2x_logo" d="M 230.359 115.68C 230.359 179.015 179.015 230.359 115.68 230.359L 115.68 232.359C 180.12 232.359 232.359 180.12 232.359 115.68L 230.359 115.68ZM 115.68 230.359C 52.3438 230.359 1 179.015 1 115.68L -1 115.68C -1 180.12 51.2393 232.359 115.68 232.359L 115.68 230.359ZM 1 115.68C 1 52.3438 52.3438 1 115.68 1L 115.68 -1C 51.2393 -1 -1 51.2393 -1 115.68L 1 115.68ZM 115.68 1C 179.015 1 230.359 52.3438 230.359 115.68L 232.359 115.68C 232.359 51.2393 180.12 -1 115.68 -1L 115.68 1Z"/>
<path id="path4_fill_logo" d="M 121.5 243C 188.603 243 243 188.603 243 121.5C 243 54.3974 188.603 0 121.5 0C 54.3974 0 0 54.3974 0 121.5C 0 188.603 54.3974 243 121.5 243Z"/>
<path id="path5_stroke_2x_logo" d="M 242 121.5C 242 188.05 188.05 242 121.5 242L 121.5 244C 189.155 244 244 189.155 244 121.5L 242 121.5ZM 121.5 242C 54.9497 242 1 188.05 1 121.5L -1 121.5C -1 189.155 53.8451 244 121.5 244L 121.5 242ZM 1 121.5C 1 54.9497 54.9497 1 121.5 1L 121.5 -1C 53.8451 -1 -1 53.8451 -1 121.5L 1 121.5ZM 121.5 1C 188.05 1 242 54.9497 242 121.5L 244 121.5C 244 53.8451 189.155 -1 121.5 -1L 121.5 1Z"/>
<path id="path6_fill_logo" d="M 95.3084 190.617C 147.946 190.617 190.617 147.946 190.617 95.3084C 190.617 42.671 147.946 0 95.3084 0C 42.671 0 0 42.671 0 95.3084C 0 147.946 42.671 190.617 95.3084 190.617Z"/>
<path id="path7_fill_logo" d="M 70.0917 68.6802L 42.1685 68.6802L 48.5418 40.3205L 76.465 40.3205L 70.0917 68.6802ZM 109.554 68.6802L 88.0184 68.6802L 94.3917 40.3205L 115.971 40.3205L 119.899 22.8595L 98.3204 22.8595L 103.457 3.55247e-06L 85.5156 3.55247e-06L 80.3792 22.8595L 52.4705 22.8595L 57.607 3.55247e-06L 39.6657 3.55247e-06L 34.4856 22.8158L 14.2744 22.8158L 10.3457 40.2769L 30.6005 40.2769L 24.3 68.6802L 3.92874 68.6802L 4.44058e-06 86.1413L 20.2549 86.1413L 15.1911 108.855L 33.1324 108.855L 38.2398 86.1268L 66.1629 86.1268L 61.0556 108.855L 78.9968 108.855L 84.1042 86.1268L 105.625 86.1268L 109.554 68.6802Z"/>
</defs>
</svg>
