<svg  {{ with .size }} width="{{ . }}" {{ end }} viewBox="0 0 51 51" version="1.1" xmlns="http://www.w3.org/2000/svg" xmlns:xlink="http://www.w3.org/1999/xlink">
<g id="Canvas_medium" transform="translate(-3345 -3083)">
<g id="5-08_medium">
<g id="Vector_medium">
<use xlink:href="#path0_fill_medium" transform="translate(3345 3083)" {{ with .fill }} fill="{{ . }}" {{ end }} />
</g>
</g>
</g>
<defs>
<path id="path0_fill_medium" d="M 25.07 1.9938e-06C 20.1101 0.00197964 15.2621 1.47458 11.139 4.2316C 7.01597 6.98863 3.80296 10.9063 1.90624 15.4892C 0.00953114 20.0722 -0.48571 25.1146 0.483136 29.979C 1.45198 34.8434 3.84141 39.3113 7.34931 42.8178C 10.8572 46.3243 15.3261 48.7119 20.1908 49.6788C 25.0556 50.6457 30.0978 50.1485 34.68 48.2499C 39.2622 46.3514 43.1786 43.1368 45.934 39.0127C 48.6893 34.8885 50.16 30.0399 50.16 25.08C 50.16 21.7856 49.511 18.5235 48.25 15.48C 46.9889 12.4365 45.1407 9.67125 42.8107 7.34223C 40.4808 5.0132 37.7148 3.16603 34.6708 1.90623C 31.6268 0.646433 28.3644 -0.00131156 25.07 1.9938e-06ZM 19.58 37.35C 16.58 35.86 13.97 34.58 11.38 33.19C 11.1695 33.0095 11.0006 32.7855 10.885 32.5334C 10.7693 32.2814 10.7096 32.0073 10.71 31.73C 10.71 25.64 10.71 19.55 10.71 12.96C 13.71 14.44 16.34 15.73 18.95 17.09C 19.1207 17.2017 19.2653 17.3488 19.374 17.5213C 19.4827 17.6939 19.553 17.8879 19.58 18.09C 19.59 24.42 19.58 30.7 19.58 37.35ZM 27.76 31.48C 25.62 30.4 23.46 29.36 21.36 28.21C 21.1716 28.0552 21.0188 27.8616 20.9118 27.6425C 20.8048 27.4234 20.7462 27.1838 20.74 26.94C 20.6246 24.576 20.7857 22.2066 21.22 19.88L 28.13 31.07L 27.76 31.48ZM 24.99 23.76C 24.8341 23.4231 24.7534 23.0563 24.7534 22.685C 24.7534 22.3137 24.8341 21.9469 24.99 21.61C 26.65 18.71 28.46 15.91 30.37 12.81L 39.37 17.27L 30.17 32.27C 28.28 29.22 26.55 26.54 24.99 23.76ZM 39.46 37.31L 30.91 33L 39.46 19.1L 39.46 37.31Z"/>
</defs>
</svg>
