<svg width="398" height="419" viewBox="0 0 398 419" version="1.1" xmlns="http://www.w3.org/2000/svg" xmlns:xlink="http://www.w3.org/1999/xlink">
<title>1</title>
<desc>Created using Figma</desc>
<g id="Canvas1" transform="translate(-3242 -1109)">
<g id="1">
<g id="rect_red" filter="url(#filter0_red)">
<use xlink:href="#path0_stroke_red" transform="translate(3255 1117)" fill="#FFFFFF"/>
</g>
<g id="rect_red2" filter="url(#filter1_red)">
<use xlink:href="#path1_fill_red" transform="translate(3245 1107)" fill="#DE2738" style="mix-blend-mode:hard-light"/>
</g>
<g id="Vector_red5">
<use xlink:href="#path2_fill_red" transform="translate(3246 1304.5)" fill="#E42645"/>
</g>
<g id="red_4">
<use xlink:href="#path3_fill_red" transform="translate(3344 1407)" fill="#000000" fill-opacity="0.01"/>
<mask id="mask0_outline_ins">
<use xlink:href="#path3_fill_red" fill="white" transform="translate(3344 1407)"/>
</mask>
<g mask="url(#mask0_outline_ins)">
<use xlink:href="#path4_stroke_2x_red" transform="translate(3344 1407)" fill="#FFFFFF"/>
</g>
</g>
<g id="Learn more">
<use xlink:href="#path5_fill_red" transform="translate(3368 1430)" fill="#FFFFFF"/>
</g>
<g id="Become a Hashbacker">
<use xlink:href="#path6_fill_red" transform="translate(3280 1296)" fill="#FFFFFF"/>
</g>
<g id="3-01">
<g id="Vector_red0">
<use xlink:href="#path7_fill_red" transform="translate(3450.15 1148)" fill="#FFFFFF"/>
</g>
<g id="Vector_red1">
<use xlink:href="#path8_fill_red" transform="translate(3387 1175.26)" fill="#FFFFFF"/>
</g>
<g id="Vector_red2">
<use xlink:href="#path9_fill_red" transform="translate(3466.03 1163.75)" fill="#FFFFFF"/>
</g>
</g>
</g>
</g>
<defs>
<filter id="filter0_red" filterUnits="userSpaceOnUse" x="3242" y="1110" width="398" height="418" color-interpolation-filters="sRGB">
<feFlood flood-opacity="0" result="BackgroundImageFix"/>
<feColorMatrix in="SourceAlpha" type="matrix" values="0 0 0 0 0 0 0 0 0 0 0 0 0 0 0 0 0 0 255 0"/>
<feOffset dx="0" dy="5"/>
<feGaussianBlur stdDeviation="6"/>
<feColorMatrix type="matrix" values="0 0 0 0 0 0 0 0 0 0 0 0 0 0 0 0 0 0 0.15 0"/>
<feBlend mode="normal" in2="BackgroundImageFix" result="effect1_dropShadow"/>
<feBlend mode="normal" in="SourceGraphic" in2="effect1_dropShadow" result="shape"/>
</filter>
<filter id="filter1_red" filterUnits="userSpaceOnUse" x="3241" y="1108" width="380" height="399" color-interpolation-filters="sRGB">
<feFlood flood-opacity="0" result="BackgroundImageFix"/>
<feColorMatrix in="SourceAlpha" type="matrix" values="0 0 0 0 0 0 0 0 0 0 0 0 0 0 0 0 0 0 255 0"/>
<feOffset dx="0" dy="4"/>
<feGaussianBlur stdDeviation="2"/>
<feColorMatrix type="matrix" values="0 0 0 0 0 0 0 0 0 0 0 0 0 0 0 0 0 0 0.25 0"/>
<feBlend mode="normal" in2="BackgroundImageFix" result="effect1_dropShadow"/>
<feBlend mode="normal" in="SourceGraphic" in2="effect1_dropShadow" result="shape"/>
</filter>
<path id="path0_stroke_red" d="M 0.999936 1.99998L 0.999936 0.499977L -0.500064 0.499977L -0.500064 1.99998L 0.999936 1.99998ZM 371 1.99998L 372.5 1.99998L 372.5 0.499977L 371 0.499977L 371 1.99998ZM 371 392L 371 393.5L 372.5 393.5L 372.5 392L 371 392ZM 0.999936 392L -0.500064 392L -0.500064 393.5L 0.999936 393.5L 0.999936 392ZM 0.999936 3.49998L 371 3.49998L 371 0.499977L 0.999936 0.499977L 0.999936 3.49998ZM 369.5 1.99998L 369.5 392L 372.5 392L 372.5 1.99998L 369.5 1.99998ZM 371 390.5L 0.999936 390.5L 0.999936 393.5L 371 393.5L 371 390.5ZM 2.49994 392L 2.49994 1.99998L -0.500064 1.99998L -0.500064 392L 2.49994 392Z"/>
<path id="path1_fill_red" fill-rule="evenodd" d="M 0.999936 1.99998L 371 1.99998L 371 392L 0.999936 392L 0.999936 1.99998Z"/>
<path id="path2_fill_red" d="M 179.5 0L 0 194.5L 369 194.5L 179.5 0Z"/>
<path id="path3_fill_red" fill-rule="evenodd" d="M 26.9999 1.99985L 147 1.99985C 160.807 1.99985 172 13.1927 172 26.9998C 172 40.807 160.807 52 147 52L 26.9999 52C 13.1928 52 1.99988 40.807 1.99988 26.9998C 1.99988 13.1927 13.1928 1.99985 26.9999 1.99985Z"/>
<path id="path4_stroke_2x_red" d="M 26.9999 3.99985L 147 3.99985L 147 -0.000151038L 26.9999 -0.000151038L 26.9999 3.99985ZM 147 3.99985C 159.703 3.99985 170 14.2973 170 26.9998L 174 26.9998C 174 12.0881 161.912 -0.000151038 147 -0.000151038L 147 3.99985ZM 170 26.9998C 170 39.7024 159.703 50 147 50L 147 54C 161.912 54 174 41.9115 174 26.9998L 170 26.9998ZM 147 50L 26.9999 50L 26.9999 54L 147 54L 147 50ZM 26.9999 50C 14.2974 50 3.99988 39.7024 3.99988 26.9998L -0.000120044 26.9998C -0.000120044 41.9115 12.0882 54 26.9999 54L 26.9999 50ZM 3.99988 26.9998C 3.99988 14.2973 14.2974 3.99985 26.9999 3.99985L 26.9999 -0.000151038C 12.0882 -0.000151038 -0.000120044 12.0881 -0.000120044 26.9998L 3.99988 26.9998Z"/>
<path id="path5_fill_red" d="M 16.8828 7.11719L 21.8594 7.11719L 21.8594 9L 14.5391 9L 14.5391 -2.375L 16.8828 -2.375L 16.8828 7.11719ZM 28.5531 9.15625C 27.3135 9.15625 26.3031 8.77604 25.5219 8.01562C 24.7458 7.25521 24.3578 6.24219 24.3578 4.97656L 24.3578 4.75781C 24.3578 3.90885 24.5219 3.15104 24.85 2.48438C 25.1781 1.8125 25.6417 1.29688 26.2406 0.9375C 26.8448 0.572917 27.5323 0.390625 28.3031 0.390625C 29.4594 0.390625 30.3682 0.755208 31.0297 1.48438C 31.6964 2.21354 32.0297 3.2474 32.0297 4.58594L 32.0297 5.50781L 26.6469 5.50781C 26.7198 6.0599 26.9385 6.5026 27.3031 6.83594C 27.6729 7.16927 28.1391 7.33594 28.7016 7.33594C 29.5714 7.33594 30.251 7.02083 30.7406 6.39062L 31.85 7.63281C 31.5115 8.11198 31.0531 8.48698 30.475 8.75781C 29.8969 9.02344 29.2563 9.15625 28.5531 9.15625ZM 28.2953 2.21875C 27.8474 2.21875 27.4828 2.36979 27.2016 2.67188C 26.9255 2.97396 26.7484 3.40625 26.6703 3.96875L 29.8109 3.96875L 29.8109 3.78906C 29.8005 3.28906 29.6651 2.90365 29.4047 2.63281C 29.1443 2.35677 28.7745 2.21875 28.2953 2.21875ZM 39.8172 9C 39.713 8.79688 39.6375 8.54427 39.5906 8.24219C 39.0438 8.85156 38.3328 9.15625 37.4578 9.15625C 36.6297 9.15625 35.9422 8.91667 35.3953 8.4375C 34.8536 7.95833 34.5828 7.35417 34.5828 6.625C 34.5828 5.72917 34.9135 5.04167 35.575 4.5625C 36.2417 4.08333 37.2026 3.84115 38.4578 3.83594L 39.4969 3.83594L 39.4969 3.35156C 39.4969 2.96094 39.3953 2.64844 39.1922 2.41406C 38.9943 2.17969 38.6792 2.0625 38.2469 2.0625C 37.8667 2.0625 37.5672 2.15365 37.3484 2.33594C 37.1349 2.51823 37.0281 2.76823 37.0281 3.08594L 34.7703 3.08594C 34.7703 2.59635 34.9214 2.14323 35.2234 1.72656C 35.5255 1.3099 35.9526 0.984375 36.5047 0.75C 37.0568 0.510417 37.6766 0.390625 38.3641 0.390625C 39.4057 0.390625 40.2313 0.653646 40.8406 1.17969C 41.4552 1.70052 41.7625 2.4349 41.7625 3.38281L 41.7625 7.04688C 41.7677 7.84896 41.8797 8.45573 42.0984 8.86719L 42.0984 9L 39.8172 9ZM 37.95 7.42969C 38.2833 7.42969 38.5906 7.35677 38.8719 7.21094C 39.1531 7.0599 39.3615 6.85938 39.4969 6.60938L 39.4969 5.15625L 38.6531 5.15625C 37.5229 5.15625 36.9214 5.54688 36.8484 6.32812L 36.8406 6.46094C 36.8406 6.74219 36.9396 6.97396 37.1375 7.15625C 37.3354 7.33854 37.6063 7.42969 37.95 7.42969ZM 49.8469 2.66406C 49.5396 2.6224 49.2688 2.60156 49.0344 2.60156C 48.1802 2.60156 47.6203 2.89062 47.3547 3.46875L 47.3547 9L 45.0969 9L 45.0969 0.546875L 47.2297 0.546875L 47.2922 1.55469C 47.7453 0.778646 48.3729 0.390625 49.175 0.390625C 49.425 0.390625 49.6594 0.424479 49.8781 0.492188L 49.8469 2.66406ZM 54.6188 0.546875L 54.6891 1.52344C 55.2932 0.768229 56.1031 0.390625 57.1188 0.390625C 58.0146 0.390625 58.6813 0.653646 59.1188 1.17969C 59.5563 1.70573 59.7802 2.49219 59.7906 3.53906L 59.7906 9L 57.5328 9L 57.5328 3.59375C 57.5328 3.11458 57.4286 2.76823 57.2203 2.55469C 57.012 2.33594 56.6656 2.22656 56.1813 2.22656C 55.5458 2.22656 55.0693 2.4974 54.7516 3.03906L 54.7516 9L 52.4938 9L 52.4938 0.546875L 54.6188 0.546875ZM 70.8109 0.546875L 70.8813 1.49219C 71.4802 0.757812 72.2901 0.390625 73.3109 0.390625C 74.3995 0.390625 75.1469 0.820312 75.5531 1.67969C 76.1469 0.820312 76.9932 0.390625 78.0922 0.390625C 79.0089 0.390625 79.6912 0.658854 80.1391 1.19531C 80.587 1.72656 80.8109 2.52865 80.8109 3.60156L 80.8109 9L 78.5453 9L 78.5453 3.60938C 78.5453 3.13021 78.4516 2.78125 78.2641 2.5625C 78.0766 2.33854 77.7458 2.22656 77.2719 2.22656C 76.5948 2.22656 76.126 2.54948 75.8656 3.19531L 75.8734 9L 73.6156 9L 73.6156 3.61719C 73.6156 3.1276 73.5193 2.77344 73.3266 2.55469C 73.1339 2.33594 72.8057 2.22656 72.3422 2.22656C 71.7016 2.22656 71.238 2.49219 70.9516 3.02344L 70.9516 9L 68.6938 9L 68.6938 0.546875L 70.8109 0.546875ZM 83.8016 4.69531C 83.8016 3.85677 83.963 3.10938 84.2859 2.45312C 84.6089 1.79688 85.0724 1.28906 85.6766 0.929688C 86.2859 0.570312 86.9917 0.390625 87.7938 0.390625C 88.9344 0.390625 89.8641 0.739583 90.5828 1.4375C 91.3068 2.13542 91.7104 3.08333 91.7938 4.28125L 91.8094 4.85938C 91.8094 6.15625 91.4474 7.19792 90.7234 7.98438C 89.9995 8.76562 89.0281 9.15625 87.8094 9.15625C 86.5906 9.15625 85.6167 8.76562 84.8875 7.98438C 84.1635 7.20312 83.8016 6.14062 83.8016 4.79688L 83.8016 4.69531ZM 86.0594 4.85938C 86.0594 5.66146 86.2104 6.27604 86.5125 6.70312C 86.8146 7.125 87.2469 7.33594 87.8094 7.33594C 88.3563 7.33594 88.7833 7.1276 89.0906 6.71094C 89.3979 6.28906 89.5516 5.61719 89.5516 4.69531C 89.5516 3.90885 89.3979 3.29948 89.0906 2.86719C 88.7833 2.4349 88.351 2.21875 87.7938 2.21875C 87.2417 2.21875 86.8146 2.4349 86.5125 2.86719C 86.2104 3.29427 86.0594 3.95833 86.0594 4.85938ZM 99.55 2.66406C 99.2427 2.6224 98.9719 2.60156 98.7375 2.60156C 97.8833 2.60156 97.3234 2.89062 97.0578 3.46875L 97.0578 9L 94.8 9L 94.8 0.546875L 96.9328 0.546875L 96.9953 1.55469C 97.4484 0.778646 98.076 0.390625 98.8781 0.390625C 99.1281 0.390625 99.3625 0.424479 99.5813 0.492188L 99.55 2.66406ZM 105.978 9.15625C 104.739 9.15625 103.728 8.77604 102.947 8.01562C 102.171 7.25521 101.783 6.24219 101.783 4.97656L 101.783 4.75781C 101.783 3.90885 101.947 3.15104 102.275 2.48438C 102.603 1.8125 103.067 1.29688 103.666 0.9375C 104.27 0.572917 104.957 0.390625 105.728 0.390625C 106.884 0.390625 107.793 0.755208 108.455 1.48438C 109.121 2.21354 109.455 3.2474 109.455 4.58594L 109.455 5.50781L 104.072 5.50781C 104.145 6.0599 104.364 6.5026 104.728 6.83594C 105.098 7.16927 105.564 7.33594 106.127 7.33594C 106.996 7.33594 107.676 7.02083 108.166 6.39062L 109.275 7.63281C 108.936 8.11198 108.478 8.48698 107.9 8.75781C 107.322 9.02344 106.681 9.15625 105.978 9.15625ZM 105.72 2.21875C 105.272 2.21875 104.908 2.36979 104.627 2.67188C 104.351 2.97396 104.173 3.40625 104.095 3.96875L 107.236 3.96875L 107.236 3.78906C 107.226 3.28906 107.09 2.90365 106.83 2.63281C 106.569 2.35677 106.199 2.21875 105.72 2.21875Z"/>
<path id="path6_fill_red" d="M 90.2656 30L 90.2656 7.25L 98.2344 7.25C 100.995 7.25 103.089 7.78125 104.516 8.84375C 105.943 9.89583 106.656 11.4427 106.656 13.4844C 106.656 14.599 106.37 15.5833 105.797 16.4375C 105.224 17.2812 104.427 17.901 103.406 18.2969C 104.573 18.5885 105.49 19.1771 106.156 20.0625C 106.833 20.9479 107.172 22.0312 107.172 23.3125C 107.172 25.5 106.474 27.1562 105.078 28.2812C 103.682 29.4062 101.693 29.9792 99.1094 30L 90.2656 30ZM 94.9531 20.0938L 94.9531 26.2344L 98.9688 26.2344C 100.073 26.2344 100.932 25.974 101.547 25.4531C 102.172 24.9219 102.484 24.1927 102.484 23.2656C 102.484 21.1823 101.406 20.125 99.25 20.0938L 94.9531 20.0938ZM 94.9531 16.7812L 98.4219 16.7812C 100.786 16.7396 101.969 15.7969 101.969 13.9531C 101.969 12.9219 101.667 12.1823 101.062 11.7344C 100.469 11.276 99.526 11.0469 98.2344 11.0469L 94.9531 11.0469L 94.9531 16.7812ZM 118.188 30.3125C 115.708 30.3125 113.688 29.5521 112.125 28.0312C 110.573 26.5104 109.797 24.4844 109.797 21.9531L 109.797 21.5156C 109.797 19.8177 110.125 18.3021 110.781 16.9688C 111.438 15.625 112.365 14.5938 113.562 13.875C 114.771 13.1458 116.146 12.7812 117.688 12.7812C 120 12.7812 121.818 13.5104 123.141 14.9688C 124.474 16.4271 125.141 18.4948 125.141 21.1719L 125.141 23.0156L 114.375 23.0156C 114.521 24.1198 114.958 25.0052 115.688 25.6719C 116.427 26.3385 117.359 26.6719 118.484 26.6719C 120.224 26.6719 121.583 26.0417 122.562 24.7812L 124.781 27.2656C 124.104 28.224 123.188 28.974 122.031 29.5156C 120.875 30.0469 119.594 30.3125 118.188 30.3125ZM 117.672 16.4375C 116.776 16.4375 116.047 16.7396 115.484 17.3438C 114.932 17.9479 114.578 18.8125 114.422 19.9375L 120.703 19.9375L 120.703 19.5781C 120.682 18.5781 120.411 17.8073 119.891 17.2656C 119.37 16.7135 118.63 16.4375 117.672 16.4375ZM 134.75 26.6719C 135.583 26.6719 136.26 26.4427 136.781 25.9844C 137.302 25.526 137.573 24.9167 137.594 24.1562L 141.828 24.1562C 141.818 25.3021 141.505 26.3542 140.891 27.3125C 140.276 28.2604 139.432 29 138.359 29.5312C 137.297 30.0521 136.12 30.3125 134.828 30.3125C 132.411 30.3125 130.505 29.5469 129.109 28.0156C 127.714 26.474 127.016 24.349 127.016 21.6406L 127.016 21.3438C 127.016 18.7396 127.708 16.6615 129.094 15.1094C 130.479 13.5573 132.38 12.7812 134.797 12.7812C 136.911 12.7812 138.604 13.3854 139.875 14.5938C 141.156 15.7917 141.807 17.3906 141.828 19.3906L 137.594 19.3906C 137.573 18.5156 137.302 17.8073 136.781 17.2656C 136.26 16.7135 135.573 16.4375 134.719 16.4375C 133.667 16.4375 132.87 16.8229 132.328 17.5938C 131.797 18.3542 131.531 19.5938 131.531 21.3125L 131.531 21.7812C 131.531 23.5208 131.797 24.7708 132.328 25.5312C 132.859 26.2917 133.667 26.6719 134.75 26.6719ZM 143.703 21.3906C 143.703 19.7135 144.026 18.2188 144.672 16.9062C 145.318 15.5938 146.245 14.5781 147.453 13.8594C 148.672 13.1406 150.083 12.7812 151.688 12.7812C 153.969 12.7812 155.828 13.4792 157.266 14.875C 158.714 16.2708 159.521 18.1667 159.688 20.5625L 159.719 21.7188C 159.719 24.3125 158.995 26.3958 157.547 27.9688C 156.099 29.5312 154.156 30.3125 151.719 30.3125C 149.281 30.3125 147.333 29.5312 145.875 27.9688C 144.427 26.4062 143.703 24.2812 143.703 21.5938L 143.703 21.3906ZM 148.219 21.7188C 148.219 23.3229 148.521 24.5521 149.125 25.4062C 149.729 26.25 150.594 26.6719 151.719 26.6719C 152.812 26.6719 153.667 26.2552 154.281 25.4219C 154.896 24.5781 155.203 23.2344 155.203 21.3906C 155.203 19.8177 154.896 18.599 154.281 17.7344C 153.667 16.8698 152.802 16.4375 151.688 16.4375C 150.583 16.4375 149.729 16.8698 149.125 17.7344C 148.521 18.5885 148.219 19.9167 148.219 21.7188ZM 166.734 13.0938L 166.875 14.9844C 168.073 13.5156 169.693 12.7812 171.734 12.7812C 173.911 12.7812 175.406 13.6406 176.219 15.3594C 177.406 13.6406 179.099 12.7812 181.297 12.7812C 183.13 12.7812 184.495 13.3177 185.391 14.3906C 186.286 15.4531 186.734 17.0573 186.734 19.2031L 186.734 30L 182.203 30L 182.203 19.2188C 182.203 18.2604 182.016 17.5625 181.641 17.125C 181.266 16.6771 180.604 16.4531 179.656 16.4531C 178.302 16.4531 177.365 17.099 176.844 18.3906L 176.859 30L 172.344 30L 172.344 19.2344C 172.344 18.2552 172.151 17.5469 171.766 17.1094C 171.38 16.6719 170.724 16.4531 169.797 16.4531C 168.516 16.4531 167.589 16.9844 167.016 18.0469L 167.016 30L 162.5 30L 162.5 13.0938L 166.734 13.0938ZM 198 30.3125C 195.521 30.3125 193.5 29.5521 191.938 28.0312C 190.385 26.5104 189.609 24.4844 189.609 21.9531L 189.609 21.5156C 189.609 19.8177 189.938 18.3021 190.594 16.9688C 191.25 15.625 192.177 14.5938 193.375 13.875C 194.583 13.1458 195.958 12.7812 197.5 12.7812C 199.812 12.7812 201.63 13.5104 202.953 14.9688C 204.286 16.4271 204.953 18.4948 204.953 21.1719L 204.953 23.0156L 194.188 23.0156C 194.333 24.1198 194.771 25.0052 195.5 25.6719C 196.24 26.3385 197.172 26.6719 198.297 26.6719C 200.036 26.6719 201.396 26.0417 202.375 24.7812L 204.594 27.2656C 203.917 28.224 203 28.974 201.844 29.5156C 200.688 30.0469 199.406 30.3125 198 30.3125ZM 197.484 16.4375C 196.589 16.4375 195.859 16.7396 195.297 17.3438C 194.745 17.9479 194.391 18.8125 194.234 19.9375L 200.516 19.9375L 200.516 19.5781C 200.495 18.5781 200.224 17.8073 199.703 17.2656C 199.182 16.7135 198.443 16.4375 197.484 16.4375ZM 64.0625 67C 63.8542 66.5938 63.7031 66.0885 63.6094 65.4844C 62.5156 66.7031 61.0938 67.3125 59.3438 67.3125C 57.6875 67.3125 56.3125 66.8333 55.2188 65.875C 54.1354 64.9167 53.5938 63.7083 53.5938 62.25C 53.5938 60.4583 54.2552 59.0833 55.5781 58.125C 56.9115 57.1667 58.8333 56.6823 61.3438 56.6719L 63.4219 56.6719L 63.4219 55.7031C 63.4219 54.9219 63.2188 54.2969 62.8125 53.8281C 62.4167 53.3594 61.7865 53.125 60.9219 53.125C 60.1615 53.125 59.5625 53.3073 59.125 53.6719C 58.6979 54.0365 58.4844 54.5365 58.4844 55.1719L 53.9688 55.1719C 53.9688 54.1927 54.2708 53.2865 54.875 52.4531C 55.4792 51.6198 56.3333 50.9688 57.4375 50.5C 58.5417 50.0208 59.7812 49.7812 61.1562 49.7812C 63.2396 49.7812 64.8906 50.3073 66.1094 51.3594C 67.3385 52.401 67.9531 53.8698 67.9531 55.7656L 67.9531 63.0938C 67.9635 64.6979 68.1875 65.9115 68.625 66.7344L 68.625 67L 64.0625 67ZM 60.3281 63.8594C 60.9948 63.8594 61.6094 63.7135 62.1719 63.4219C 62.7344 63.1198 63.151 62.7188 63.4219 62.2188L 63.4219 59.3125L 61.7344 59.3125C 59.474 59.3125 58.2708 60.0938 58.125 61.6562L 58.1094 61.9219C 58.1094 62.4844 58.3073 62.9479 58.7031 63.3125C 59.099 63.6771 59.6406 63.8594 60.3281 63.8594ZM 98.2031 67L 93.5156 67L 93.5156 57.25L 84.375 57.25L 84.375 67L 79.6875 67L 79.6875 44.25L 84.375 44.25L 84.375 53.4688L 93.5156 53.4688L 93.5156 44.25L 98.2031 44.25L 98.2031 67ZM 111.812 67C 111.604 66.5938 111.453 66.0885 111.359 65.4844C 110.266 66.7031 108.844 67.3125 107.094 67.3125C 105.438 67.3125 104.062 66.8333 102.969 65.875C 101.885 64.9167 101.344 63.7083 101.344 62.25C 101.344 60.4583 102.005 59.0833 103.328 58.125C 104.661 57.1667 106.583 56.6823 109.094 56.6719L 111.172 56.6719L 111.172 55.7031C 111.172 54.9219 110.969 54.2969 110.562 53.8281C 110.167 53.3594 109.536 53.125 108.672 53.125C 107.911 53.125 107.312 53.3073 106.875 53.6719C 106.448 54.0365 106.234 54.5365 106.234 55.1719L 101.719 55.1719C 101.719 54.1927 102.021 53.2865 102.625 52.4531C 103.229 51.6198 104.083 50.9688 105.188 50.5C 106.292 50.0208 107.531 49.7812 108.906 49.7812C 110.99 49.7812 112.641 50.3073 113.859 51.3594C 115.089 52.401 115.703 53.8698 115.703 55.7656L 115.703 63.0938C 115.714 64.6979 115.938 65.9115 116.375 66.7344L 116.375 67L 111.812 67ZM 108.078 63.8594C 108.745 63.8594 109.359 63.7135 109.922 63.4219C 110.484 63.1198 110.901 62.7188 111.172 62.2188L 111.172 59.3125L 109.484 59.3125C 107.224 59.3125 106.021 60.0938 105.875 61.6562L 105.859 61.9219C 105.859 62.4844 106.057 62.9479 106.453 63.3125C 106.849 63.6771 107.391 63.8594 108.078 63.8594ZM 128.328 62.3281C 128.328 61.776 128.052 61.3438 127.5 61.0312C 126.958 60.7083 126.083 60.4219 124.875 60.1719C 120.854 59.3281 118.844 57.6198 118.844 55.0469C 118.844 53.5469 119.464 52.2969 120.703 51.2969C 121.953 50.2865 123.583 49.7812 125.594 49.7812C 127.74 49.7812 129.453 50.2865 130.734 51.2969C 132.026 52.3073 132.672 53.6198 132.672 55.2344L 128.156 55.2344C 128.156 54.5885 127.948 54.0573 127.531 53.6406C 127.115 53.2135 126.464 53 125.578 53C 124.818 53 124.229 53.1719 123.812 53.5156C 123.396 53.8594 123.188 54.2969 123.188 54.8281C 123.188 55.3281 123.422 55.7344 123.891 56.0469C 124.37 56.349 125.172 56.6146 126.297 56.8438C 127.422 57.0625 128.37 57.3125 129.141 57.5938C 131.526 58.4688 132.719 59.9844 132.719 62.1406C 132.719 63.6823 132.057 64.9323 130.734 65.8906C 129.411 66.8385 127.703 67.3125 125.609 67.3125C 124.193 67.3125 122.932 67.0625 121.828 66.5625C 120.734 66.0521 119.875 65.3594 119.25 64.4844C 118.625 63.599 118.312 62.6458 118.312 61.625L 122.594 61.625C 122.635 62.4271 122.932 63.0417 123.484 63.4688C 124.036 63.8958 124.776 64.1094 125.703 64.1094C 126.568 64.1094 127.219 63.9479 127.656 63.625C 128.104 63.2917 128.328 62.8594 128.328 62.3281ZM 140.047 51.9375C 141.245 50.5 142.75 49.7812 144.562 49.7812C 148.229 49.7812 150.089 51.9115 150.141 56.1719L 150.141 67L 145.625 67L 145.625 56.2969C 145.625 55.3281 145.417 54.6146 145 54.1562C 144.583 53.6875 143.891 53.4531 142.922 53.4531C 141.599 53.4531 140.641 53.9635 140.047 54.9844L 140.047 67L 135.531 67L 135.531 43L 140.047 43L 140.047 51.9375ZM 168.781 58.7031C 168.781 61.4115 168.203 63.526 167.047 65.0469C 165.891 66.5573 164.276 67.3125 162.203 67.3125C 160.37 67.3125 158.906 66.6094 157.812 65.2031L 157.609 67L 153.547 67L 153.547 43L 158.062 43L 158.062 51.6094C 159.104 50.3906 160.474 49.7812 162.172 49.7812C 164.234 49.7812 165.849 50.5417 167.016 52.0625C 168.193 53.5729 168.781 55.7031 168.781 58.4531L 168.781 58.7031ZM 164.266 58.375C 164.266 56.6667 163.995 55.4219 163.453 54.6406C 162.911 53.849 162.104 53.4531 161.031 53.4531C 159.594 53.4531 158.604 54.0417 158.062 55.2188L 158.062 61.8906C 158.615 63.0781 159.615 63.6719 161.062 63.6719C 162.521 63.6719 163.479 62.9531 163.938 61.5156C 164.156 60.8281 164.266 59.7812 164.266 58.375ZM 181.375 67C 181.167 66.5938 181.016 66.0885 180.922 65.4844C 179.828 66.7031 178.406 67.3125 176.656 67.3125C 175 67.3125 173.625 66.8333 172.531 65.875C 171.448 64.9167 170.906 63.7083 170.906 62.25C 170.906 60.4583 171.568 59.0833 172.891 58.125C 174.224 57.1667 176.146 56.6823 178.656 56.6719L 180.734 56.6719L 180.734 55.7031C 180.734 54.9219 180.531 54.2969 180.125 53.8281C 179.729 53.3594 179.099 53.125 178.234 53.125C 177.474 53.125 176.875 53.3073 176.438 53.6719C 176.01 54.0365 175.797 54.5365 175.797 55.1719L 171.281 55.1719C 171.281 54.1927 171.583 53.2865 172.188 52.4531C 172.792 51.6198 173.646 50.9688 174.75 50.5C 175.854 50.0208 177.094 49.7812 178.469 49.7812C 180.552 49.7812 182.203 50.3073 183.422 51.3594C 184.651 52.401 185.266 53.8698 185.266 55.7656L 185.266 63.0938C 185.276 64.6979 185.5 65.9115 185.938 66.7344L 185.938 67L 181.375 67ZM 177.641 63.8594C 178.307 63.8594 178.922 63.7135 179.484 63.4219C 180.047 63.1198 180.464 62.7188 180.734 62.2188L 180.734 59.3125L 179.047 59.3125C 176.786 59.3125 175.583 60.0938 175.438 61.6562L 175.422 61.9219C 175.422 62.4844 175.62 62.9479 176.016 63.3125C 176.411 63.6771 176.953 63.8594 177.641 63.8594ZM 195.766 63.6719C 196.599 63.6719 197.276 63.4427 197.797 62.9844C 198.318 62.526 198.589 61.9167 198.609 61.1562L 202.844 61.1562C 202.833 62.3021 202.521 63.3542 201.906 64.3125C 201.292 65.2604 200.448 66 199.375 66.5312C 198.312 67.0521 197.135 67.3125 195.844 67.3125C 193.427 67.3125 191.521 66.5469 190.125 65.0156C 188.729 63.474 188.031 61.349 188.031 58.6406L 188.031 58.3438C 188.031 55.7396 188.724 53.6615 190.109 52.1094C 191.495 50.5573 193.396 49.7812 195.812 49.7812C 197.927 49.7812 199.62 50.3854 200.891 51.5938C 202.172 52.7917 202.823 54.3906 202.844 56.3906L 198.609 56.3906C 198.589 55.5156 198.318 54.8073 197.797 54.2656C 197.276 53.7135 196.589 53.4375 195.734 53.4375C 194.682 53.4375 193.885 53.8229 193.344 54.5938C 192.812 55.3542 192.547 56.5938 192.547 58.3125L 192.547 58.7812C 192.547 60.5208 192.812 61.7708 193.344 62.5312C 193.875 63.2917 194.682 63.6719 195.766 63.6719ZM 211.562 60.2188L 209.938 61.8438L 209.938 67L 205.422 67L 205.422 43L 209.938 43L 209.938 56.2969L 210.812 55.1719L 215.141 50.0938L 220.562 50.0938L 214.453 57.1406L 221.094 67L 215.906 67L 211.562 60.2188ZM 229.984 67.3125C 227.505 67.3125 225.484 66.5521 223.922 65.0312C 222.37 63.5104 221.594 61.4844 221.594 58.9531L 221.594 58.5156C 221.594 56.8177 221.922 55.3021 222.578 53.9688C 223.234 52.625 224.161 51.5938 225.359 50.875C 226.568 50.1458 227.943 49.7812 229.484 49.7812C 231.797 49.7812 233.615 50.5104 234.938 51.9688C 236.271 53.4271 236.938 55.4948 236.938 58.1719L 236.938 60.0156L 226.172 60.0156C 226.318 61.1198 226.755 62.0052 227.484 62.6719C 228.224 63.3385 229.156 63.6719 230.281 63.6719C 232.021 63.6719 233.38 63.0417 234.359 61.7812L 236.578 64.2656C 235.901 65.224 234.984 65.974 233.828 66.5156C 232.672 67.0469 231.391 67.3125 229.984 67.3125ZM 229.469 53.4375C 228.573 53.4375 227.844 53.7396 227.281 54.3438C 226.729 54.9479 226.375 55.8125 226.219 56.9375L 232.5 56.9375L 232.5 56.5781C 232.479 55.5781 232.208 54.8073 231.688 54.2656C 231.167 53.7135 230.427 53.4375 229.469 53.4375ZM 249.016 54.3281C 248.401 54.2448 247.859 54.2031 247.391 54.2031C 245.682 54.2031 244.562 54.7812 244.031 55.9375L 244.031 67L 239.516 67L 239.516 50.0938L 243.781 50.0938L 243.906 52.1094C 244.812 50.5573 246.068 49.7812 247.672 49.7812C 248.172 49.7812 248.641 49.849 249.078 49.9844L 249.016 54.3281Z"/>
<path id="path7_fill_red" d="M 31.3419 4.18818e-05C 25.3488 0.00541071 19.4827 1.7274 14.4376 4.96226C 9.39253 8.19711 5.37966 12.8094 2.87381 18.2535C 0.367959 23.6976 -0.525988 29.7455 0.297743 35.6817C 1.12147 41.6179 3.62841 47.194 7.52192 51.75L 4.52192 61.58L 2.41192 69.06L 16.9119 59.24C 21.1338 61.4353 25.7996 62.642 30.5565 62.7688C 35.3134 62.8957 40.0368 61.9394 44.3698 59.9722C 48.7027 58.005 52.5316 55.0784 55.5671 51.4138C 58.6026 47.7491 60.7653 43.4423 61.8914 38.8189C 63.0176 34.1955 63.0779 29.3766 62.0678 24.7265C 61.0576 20.0764 59.0035 15.7168 56.0606 11.9773C 53.1177 8.23789 49.3632 5.21645 45.0809 3.14147C 40.7985 1.06648 36.1005 -0.00773085 31.3419 4.18818e-05ZM 31.3419 59.78C 26.5267 59.7762 21.7916 58.5477 17.5819 56.21L 16.8019 55.75L 7.60192 61.98L 10.9019 50.98L 10.3319 50.35C 5.98383 45.5148 3.42876 39.3327 3.09447 32.8386C 2.76018 26.3445 4.66697 19.9327 8.49559 14.6766C 12.3242 9.42051 17.8423 5.63919 24.1259 3.96572C 30.4096 2.29225 37.0774 2.82822 43.0131 5.48388C 48.9488 8.13954 53.792 12.7537 56.7319 18.5539C 59.6719 24.354 60.53 30.9881 59.1627 37.3454C 57.7954 43.7027 54.2857 49.3974 49.2211 53.476C 44.1566 57.5546 37.8446 59.7695 31.3419 59.75L 31.3419 59.78Z"/>
<path id="path8_fill_red" d="M 80.9527 78.2655C 80.9527 77.9255 80.1927 69.8655 70.9527 65.4755C 68.3227 64.2355 57.0127 59.0055 53.7727 57.4755L 53.7727 51.9755C 54.825 50.7206 55.5713 49.2382 55.9527 47.6455C 56.1827 46.6455 56.4127 45.7055 56.6127 44.9055L 56.6627 44.9055C 57.2212 44.9235 57.7737 44.7851 58.2578 44.5059C 58.7419 44.2268 59.1384 43.8179 59.4027 43.3255C 59.4706 43.2252 59.5276 43.1179 59.5727 43.0055C 59.5727 42.9055 64.2027 32.6455 61.9627 29.0055C 61.6003 28.4023 61.0375 27.9457 60.3727 27.7155C 60.3727 27.4755 60.4427 27.2255 60.4727 26.9755C 60.7427 24.3855 60.8827 21.6655 60.9227 18.4155C 60.9527 10.5855 53.8527 4.48551 51.1027 2.82551C 47.8953 0.895164 44.205 -0.0829041 40.4627 0.00550538C 36.8182 0.150438 33.2504 1.09617 30.0127 2.77551C 27.5127 4.07551 26.0127 5.6955 25.5827 7.5855C 25.4427 8.17832 25.4122 8.79173 25.4927 9.3955C 24.4147 9.6509 23.4199 10.1776 22.6027 10.9255C 20.8627 12.5355 20.0427 15.0655 20.1627 18.4355L 20.1627 19.9755C 20.2227 22.0755 20.3027 24.4555 20.5627 26.9755C 20.5627 27.2355 20.6227 27.4855 20.6627 27.7155C 19.9993 27.9432 19.4368 28.3961 19.0727 28.9955C 16.8327 32.6455 21.4027 42.9155 21.4827 43.0755L 21.6427 43.3655C 21.9031 43.8546 22.2969 44.2599 22.7783 44.5342C 23.2597 44.8086 23.8091 44.9408 24.3627 44.9155L 24.4127 44.9155C 24.6127 45.7155 24.8427 46.6755 25.0727 47.6555C 25.4573 49.26 26.2106 50.7528 27.2727 52.0155L 27.2727 57.4855C 24.0227 58.9855 12.7127 64.2055 10.0827 65.4855C 0.802663 69.8755 0.0826636 77.9355 0.0826636 78.2755C -0.0275544 80.0505 -0.0275544 81.8306 0.0826636 83.6055L 0.142664 84.4855L 0.952663 84.8355C 13.3506 90.6805 26.8572 93.8006 40.5627 93.9855C 54.2681 93.8009 67.7748 90.6808 80.1727 84.8355L 80.9327 84.4455L 80.9827 83.5955C 81.0943 81.8206 81.0943 80.0404 80.9827 78.2655L 80.9527 78.2655ZM 77.9527 82.4855C 74.3627 84.1655 58.7127 90.9355 40.4727 90.9355C 22.2327 90.9355 6.64266 84.2055 3.04266 82.4855C 2.96266 80.3155 3.10266 78.4855 3.10266 78.4855C 3.10266 78.2155 3.77266 71.7855 11.4327 68.1655C 14.4327 66.7255 29.3127 59.8755 29.4327 59.8155L 30.3027 59.4155L 30.3027 50.7855L 29.8427 50.3455C 28.9582 49.3975 28.3346 48.2364 28.0327 46.9755C 27.4527 44.4455 26.8227 42.0655 26.8127 42.0355L 25.7527 38.1055L 24.1127 41.5455C 22.7227 38.4855 20.7327 31.4855 21.7627 30.4855C 21.891 30.4983 22.0182 30.5217 22.1427 30.5555L 24.7327 31.2955L 23.9527 28.7555C 23.7692 28.0631 23.6388 27.3577 23.5627 26.6455C 23.3127 24.2455 23.2427 21.9255 23.1827 19.8855L 23.1327 18.3255C 23.0427 15.8855 23.5327 14.1455 24.5827 13.1455C 25.3342 12.467 26.3208 12.1082 27.3327 12.1455L 30.7227 12.5355L 28.7227 9.77551C 28.4476 9.31227 28.3582 8.76198 28.4727 8.23551C 28.7027 7.23551 29.7027 6.2355 31.3727 5.4055C 34.1958 3.95013 37.2998 3.12126 40.4727 2.97551L 40.5827 2.97551C 43.7174 2.91516 46.8056 3.74006 49.4927 5.3555C 51.6727 6.6955 57.8927 11.9555 57.8227 18.3555C 57.8227 21.5055 57.6527 24.1355 57.3927 26.6355C 57.3158 27.3443 57.1854 28.0463 57.0027 28.7355L 56.2627 31.3355L 58.8627 30.5855C 59.0155 30.5363 59.173 30.5028 59.3327 30.4855C 60.3327 31.4855 58.3327 38.4255 56.9027 41.4855L 55.2927 37.8455L 54.2027 41.9855C 54.2027 41.9855 53.5727 44.4855 52.9527 46.9755C 52.6538 48.2325 52.0335 49.3903 51.1527 50.3355L 50.6827 50.7755L 50.6827 59.4155L 51.5527 59.8155C 51.7027 59.8855 66.5527 66.7255 69.5527 68.1655C 77.1727 71.7755 77.8527 78.1655 77.8827 78.4855C 77.9722 79.8169 77.9956 81.1518 77.9527 82.4855Z"/>
<path id="path9_fill_red" d="M 27.38 0L 22.62 0L 21.26 6L 13.86 6L 15.22 0L 10.46 0L 9.1 6L 3.73 6L 2.73 10.64L 8.1 10.64L 6.41 18.16L 1 18.16L 1.83105e-06 22.8L 5.32 22.8L 3.97 28.8L 8.73 28.8L 10.08 22.8L 17.48 22.8L 16.13 28.8L 20.92 28.8L 22.27 22.8L 27.92 22.8L 28.92 18.16L 23.21 18.16L 24.9 10.64L 30.61 10.64L 31.61 6L 25.9 6L 27.38 0ZM 18.53 18.22L 11.12 18.22L 12.81 10.7L 20.21 10.7L 18.53 18.22Z"/>
</defs>
</svg>
