<svg width="398" height="419" viewBox="0 0 398 419" version="1.1" xmlns="http://www.w3.org/2000/svg" xmlns:xlink="http://www.w3.org/1999/xlink">
<title>2</title>
<desc>Created using Figma</desc>
<g id="Canvas" transform="translate(-3642 -1109)">
<g id="2">
<g id="rect3" filter="url(#filter0_d)">
<use xlink:href="#path0_stroke" transform="translate(3655 1117)" fill="#FFFFFF"/>
</g>
<g id="rect3_1" filter="url(#filter1_d)">
<use xlink:href="#path1_fill" transform="translate(3646 1109)" fill="#162E8E" style="mix-blend-mode:hard-light"/>
</g>
<g id="Vector 6">
<use xlink:href="#path2_fill" transform="translate(3647 1300)" fill="#2832B6"/>
</g>
<g id="&#208;&#159;&#209;&#128;&#209;&#143;&#208;&#188;&#208;&#190;&#209;&#131;&#208;&#179;&#208;&#190;&#208;&#187;&#209;&#140;&#208;&#189;&#208;&#184;&#208;&#186; 4 &#208;&#186;&#208;&#190;&#208;&#191;&#208;&#184;&#209;&#143;" filter="url(#filter2_d)">
<use xlink:href="#path3_fill" transform="translate(3746 1409)" fill="#FFFFFF"/>
</g>
<g id="Learn more">
<use xlink:href="#path4_fill" transform="translate(3768 1430)" fill="#3C4F95"/>
</g>
<g id="Join the Team">
<use xlink:href="#path5_fill" transform="translate(3680 1318)" fill="#FFFFFF"/>
</g>
<g id="3-02">
<g id="Vector">
<use xlink:href="#path6_fill" transform="translate(3809.92 1155)" fill="#FFFFFF"/>
</g>
<g id="Vector">
<use xlink:href="#path7_fill" transform="translate(3774 1220.88)" fill="#FFFFFF"/>
</g>
<g id="Vector">
<use xlink:href="#path8_fill" transform="translate(3843.21 1220.83)" fill="#FFFFFF"/>
</g>
<g id="Vector">
<use xlink:href="#path9_fill" transform="translate(3816.37 1212.5)" fill="#FFFFFF"/>
</g>
</g>
</g>
</g>
<defs>
<filter id="filter0_d" filterUnits="userSpaceOnUse" x="3642" y="1110" width="398" height="418" color-interpolation-filters="sRGB">
<feFlood flood-opacity="0" result="BackgroundImageFix"/>
<feColorMatrix in="SourceAlpha" type="matrix" values="0 0 0 0 0 0 0 0 0 0 0 0 0 0 0 0 0 0 255 0"/>
<feOffset dx="0" dy="5"/>
<feGaussianBlur stdDeviation="6"/>
<feColorMatrix type="matrix" values="0 0 0 0 0 0 0 0 0 0 0 0 0 0 0 0 0 0 0.15 0"/>
<feBlend mode="normal" in2="BackgroundImageFix" result="effect1_dropShadow"/>
<feBlend mode="normal" in="SourceGraphic" in2="effect1_dropShadow" result="shape"/>
</filter>
<filter id="filter1_d" filterUnits="userSpaceOnUse" x="3642" y="1109" width="378" height="398" color-interpolation-filters="sRGB">
<feFlood flood-opacity="0" result="BackgroundImageFix"/>
<feColorMatrix in="SourceAlpha" type="matrix" values="0 0 0 0 0 0 0 0 0 0 0 0 0 0 0 0 0 0 255 0"/>
<feOffset dx="0" dy="4"/>
<feGaussianBlur stdDeviation="2"/>
<feColorMatrix type="matrix" values="0 0 0 0 0 0 0 0 0 0 0 0 0 0 0 0 0 0 0.25 0"/>
<feBlend mode="normal" in2="BackgroundImageFix" result="effect1_dropShadow"/>
<feBlend mode="normal" in="SourceGraphic" in2="effect1_dropShadow" result="shape"/>
</filter>
<filter id="filter2_d" filterUnits="userSpaceOnUse" x="3731" y="1393" width="207" height="87" color-interpolation-filters="sRGB">
<feFlood flood-opacity="0" result="BackgroundImageFix"/>
<feColorMatrix in="SourceAlpha" type="matrix" values="0 0 0 0 0 0 0 0 0 0 0 0 0 0 0 0 0 0 255 0"/>
<feOffset dx="3.1" dy="2.6"/>
<feGaussianBlur stdDeviation="9"/>
<feColorMatrix type="matrix" values="0 0 0 0 0.219608 0 0 0 0 0.219608 0 0 0 0 0.219608 0 0 0 0.47 0"/>
<feBlend mode="normal" in2="BackgroundImageFix" result="effect1_dropShadow"/>
<feBlend mode="normal" in="SourceGraphic" in2="effect1_dropShadow" result="shape"/>
</filter>
<path id="path0_stroke" d="M 0.999936 1.99998L 0.999936 0.499977L -0.500064 0.499977L -0.500064 1.99998L 0.999936 1.99998ZM 371 1.99998L 372.5 1.99998L 372.5 0.499977L 371 0.499977L 371 1.99998ZM 371 392L 371 393.5L 372.5 393.5L 372.5 392L 371 392ZM 0.999936 392L -0.500064 392L -0.500064 393.5L 0.999936 393.5L 0.999936 392ZM 0.999936 3.49998L 371 3.49998L 371 0.499977L 0.999936 0.499977L 0.999936 3.49998ZM 369.5 1.99998L 369.5 392L 372.5 392L 372.5 1.99998L 369.5 1.99998ZM 371 390.5L 0.999936 390.5L 0.999936 393.5L 371 393.5L 371 390.5ZM 2.49994 392L 2.49994 1.99998L -0.500064 1.99998L -0.500064 392L 2.49994 392Z"/>
<path id="path1_fill" fill-rule="evenodd" d="M 0 0L 370 0L 370 390L 0 390L 0 0Z"/>
<path id="path2_fill" d="M 183 0L 0 199L 366 199L 183 0Z"/>
<path id="path3_fill" fill-rule="evenodd" d="M 25.0001 0L 145 0C 158.807 0 170 11.1929 170 25C 170 38.8071 158.807 50.0001 145 50.0001L 25.0001 50.0001C 11.1929 50.0001 0 38.8071 0 25C 0 11.1929 11.1929 0 25.0001 0Z"/>
<path id="path4_fill" d="M 16.8828 7.11719L 21.8594 7.11719L 21.8594 9L 14.5391 9L 14.5391 -2.375L 16.8828 -2.375L 16.8828 7.11719ZM 28.5531 9.15625C 27.3135 9.15625 26.3031 8.77604 25.5219 8.01562C 24.7458 7.25521 24.3578 6.24219 24.3578 4.97656L 24.3578 4.75781C 24.3578 3.90885 24.5219 3.15104 24.85 2.48438C 25.1781 1.8125 25.6417 1.29688 26.2406 0.9375C 26.8448 0.572917 27.5323 0.390625 28.3031 0.390625C 29.4594 0.390625 30.3682 0.755208 31.0297 1.48438C 31.6964 2.21354 32.0297 3.2474 32.0297 4.58594L 32.0297 5.50781L 26.6469 5.50781C 26.7198 6.0599 26.9385 6.5026 27.3031 6.83594C 27.6729 7.16927 28.1391 7.33594 28.7016 7.33594C 29.5714 7.33594 30.251 7.02083 30.7406 6.39062L 31.85 7.63281C 31.5115 8.11198 31.0531 8.48698 30.475 8.75781C 29.8969 9.02344 29.2563 9.15625 28.5531 9.15625ZM 28.2953 2.21875C 27.8474 2.21875 27.4828 2.36979 27.2016 2.67188C 26.9255 2.97396 26.7484 3.40625 26.6703 3.96875L 29.8109 3.96875L 29.8109 3.78906C 29.8005 3.28906 29.6651 2.90365 29.4047 2.63281C 29.1443 2.35677 28.7745 2.21875 28.2953 2.21875ZM 39.8172 9C 39.713 8.79688 39.6375 8.54427 39.5906 8.24219C 39.0438 8.85156 38.3328 9.15625 37.4578 9.15625C 36.6297 9.15625 35.9422 8.91667 35.3953 8.4375C 34.8536 7.95833 34.5828 7.35417 34.5828 6.625C 34.5828 5.72917 34.9135 5.04167 35.575 4.5625C 36.2417 4.08333 37.2026 3.84115 38.4578 3.83594L 39.4969 3.83594L 39.4969 3.35156C 39.4969 2.96094 39.3953 2.64844 39.1922 2.41406C 38.9943 2.17969 38.6792 2.0625 38.2469 2.0625C 37.8667 2.0625 37.5672 2.15365 37.3484 2.33594C 37.1349 2.51823 37.0281 2.76823 37.0281 3.08594L 34.7703 3.08594C 34.7703 2.59635 34.9214 2.14323 35.2234 1.72656C 35.5255 1.3099 35.9526 0.984375 36.5047 0.75C 37.0568 0.510417 37.6766 0.390625 38.3641 0.390625C 39.4057 0.390625 40.2313 0.653646 40.8406 1.17969C 41.4552 1.70052 41.7625 2.4349 41.7625 3.38281L 41.7625 7.04688C 41.7677 7.84896 41.8797 8.45573 42.0984 8.86719L 42.0984 9L 39.8172 9ZM 37.95 7.42969C 38.2833 7.42969 38.5906 7.35677 38.8719 7.21094C 39.1531 7.0599 39.3615 6.85938 39.4969 6.60938L 39.4969 5.15625L 38.6531 5.15625C 37.5229 5.15625 36.9214 5.54688 36.8484 6.32812L 36.8406 6.46094C 36.8406 6.74219 36.9396 6.97396 37.1375 7.15625C 37.3354 7.33854 37.6063 7.42969 37.95 7.42969ZM 49.8469 2.66406C 49.5396 2.6224 49.2688 2.60156 49.0344 2.60156C 48.1802 2.60156 47.6203 2.89062 47.3547 3.46875L 47.3547 9L 45.0969 9L 45.0969 0.546875L 47.2297 0.546875L 47.2922 1.55469C 47.7453 0.778646 48.3729 0.390625 49.175 0.390625C 49.425 0.390625 49.6594 0.424479 49.8781 0.492188L 49.8469 2.66406ZM 54.6188 0.546875L 54.6891 1.52344C 55.2932 0.768229 56.1031 0.390625 57.1188 0.390625C 58.0146 0.390625 58.6813 0.653646 59.1188 1.17969C 59.5563 1.70573 59.7802 2.49219 59.7906 3.53906L 59.7906 9L 57.5328 9L 57.5328 3.59375C 57.5328 3.11458 57.4286 2.76823 57.2203 2.55469C 57.012 2.33594 56.6656 2.22656 56.1813 2.22656C 55.5458 2.22656 55.0693 2.4974 54.7516 3.03906L 54.7516 9L 52.4938 9L 52.4938 0.546875L 54.6188 0.546875ZM 70.8109 0.546875L 70.8813 1.49219C 71.4802 0.757812 72.2901 0.390625 73.3109 0.390625C 74.3995 0.390625 75.1469 0.820312 75.5531 1.67969C 76.1469 0.820312 76.9932 0.390625 78.0922 0.390625C 79.0089 0.390625 79.6912 0.658854 80.1391 1.19531C 80.587 1.72656 80.8109 2.52865 80.8109 3.60156L 80.8109 9L 78.5453 9L 78.5453 3.60938C 78.5453 3.13021 78.4516 2.78125 78.2641 2.5625C 78.0766 2.33854 77.7458 2.22656 77.2719 2.22656C 76.5948 2.22656 76.126 2.54948 75.8656 3.19531L 75.8734 9L 73.6156 9L 73.6156 3.61719C 73.6156 3.1276 73.5193 2.77344 73.3266 2.55469C 73.1339 2.33594 72.8057 2.22656 72.3422 2.22656C 71.7016 2.22656 71.238 2.49219 70.9516 3.02344L 70.9516 9L 68.6938 9L 68.6938 0.546875L 70.8109 0.546875ZM 83.8016 4.69531C 83.8016 3.85677 83.963 3.10938 84.2859 2.45312C 84.6089 1.79688 85.0724 1.28906 85.6766 0.929688C 86.2859 0.570312 86.9917 0.390625 87.7938 0.390625C 88.9344 0.390625 89.8641 0.739583 90.5828 1.4375C 91.3068 2.13542 91.7104 3.08333 91.7938 4.28125L 91.8094 4.85938C 91.8094 6.15625 91.4474 7.19792 90.7234 7.98438C 89.9995 8.76562 89.0281 9.15625 87.8094 9.15625C 86.5906 9.15625 85.6167 8.76562 84.8875 7.98438C 84.1635 7.20312 83.8016 6.14062 83.8016 4.79688L 83.8016 4.69531ZM 86.0594 4.85938C 86.0594 5.66146 86.2104 6.27604 86.5125 6.70312C 86.8146 7.125 87.2469 7.33594 87.8094 7.33594C 88.3563 7.33594 88.7833 7.1276 89.0906 6.71094C 89.3979 6.28906 89.5516 5.61719 89.5516 4.69531C 89.5516 3.90885 89.3979 3.29948 89.0906 2.86719C 88.7833 2.4349 88.351 2.21875 87.7938 2.21875C 87.2417 2.21875 86.8146 2.4349 86.5125 2.86719C 86.2104 3.29427 86.0594 3.95833 86.0594 4.85938ZM 99.55 2.66406C 99.2427 2.6224 98.9719 2.60156 98.7375 2.60156C 97.8833 2.60156 97.3234 2.89062 97.0578 3.46875L 97.0578 9L 94.8 9L 94.8 0.546875L 96.9328 0.546875L 96.9953 1.55469C 97.4484 0.778646 98.076 0.390625 98.8781 0.390625C 99.1281 0.390625 99.3625 0.424479 99.5813 0.492188L 99.55 2.66406ZM 105.978 9.15625C 104.739 9.15625 103.728 8.77604 102.947 8.01562C 102.171 7.25521 101.783 6.24219 101.783 4.97656L 101.783 4.75781C 101.783 3.90885 101.947 3.15104 102.275 2.48438C 102.603 1.8125 103.067 1.29688 103.666 0.9375C 104.27 0.572917 104.957 0.390625 105.728 0.390625C 106.884 0.390625 107.793 0.755208 108.455 1.48438C 109.121 2.21354 109.455 3.2474 109.455 4.58594L 109.455 5.50781L 104.072 5.50781C 104.145 6.0599 104.364 6.5026 104.728 6.83594C 105.098 7.16927 105.564 7.33594 106.127 7.33594C 106.996 7.33594 107.676 7.02083 108.166 6.39062L 109.275 7.63281C 108.936 8.11198 108.478 8.48698 107.9 8.75781C 107.322 9.02344 106.681 9.15625 105.978 9.15625ZM 105.72 2.21875C 105.272 2.21875 104.908 2.36979 104.627 2.67188C 104.351 2.97396 104.173 3.40625 104.095 3.96875L 107.236 3.96875L 107.236 3.78906C 107.226 3.28906 107.09 2.90365 106.83 2.63281C 106.569 2.35677 106.199 2.21875 105.72 2.21875Z"/>
<path id="path5_fill" d="M 60.1875 7.25L 64.875 7.25L 64.875 23C 64.875 24.4479 64.5521 25.7292 63.9062 26.8438C 63.2708 27.9479 62.3698 28.8021 61.2031 29.4062C 60.0365 30.0104 58.7188 30.3125 57.25 30.3125C 54.8438 30.3125 52.9688 29.7031 51.625 28.4844C 50.2812 27.2552 49.6094 25.5208 49.6094 23.2812L 54.3281 23.2812C 54.3281 24.3958 54.5625 25.2188 55.0312 25.75C 55.5 26.2812 56.2396 26.5469 57.25 26.5469C 58.1458 26.5469 58.8594 26.2396 59.3906 25.625C 59.9219 25.0104 60.1875 24.1354 60.1875 23L 60.1875 7.25ZM 67.8906 21.3906C 67.8906 19.7135 68.2135 18.2188 68.8594 16.9062C 69.5052 15.5938 70.4323 14.5781 71.6406 13.8594C 72.8594 13.1406 74.2708 12.7812 75.875 12.7812C 78.1562 12.7812 80.0156 13.4792 81.4531 14.875C 82.901 16.2708 83.7083 18.1667 83.875 20.5625L 83.9062 21.7188C 83.9062 24.3125 83.1823 26.3958 81.7344 27.9688C 80.2865 29.5312 78.3438 30.3125 75.9062 30.3125C 73.4688 30.3125 71.5208 29.5312 70.0625 27.9688C 68.6146 26.4062 67.8906 24.2812 67.8906 21.5938L 67.8906 21.3906ZM 72.4062 21.7188C 72.4062 23.3229 72.7083 24.5521 73.3125 25.4062C 73.9167 26.25 74.7812 26.6719 75.9062 26.6719C 77 26.6719 77.8542 26.2552 78.4688 25.4219C 79.0833 24.5781 79.3906 23.2344 79.3906 21.3906C 79.3906 19.8177 79.0833 18.599 78.4688 17.7344C 77.8542 16.8698 76.9896 16.4375 75.875 16.4375C 74.7708 16.4375 73.9167 16.8698 73.3125 17.7344C 72.7083 18.5885 72.4062 19.9167 72.4062 21.7188ZM 91.4531 30L 86.9219 30L 86.9219 13.0938L 91.4531 13.0938L 91.4531 30ZM 86.6562 8.71875C 86.6562 8.04167 86.8802 7.48438 87.3281 7.04688C 87.7865 6.60938 88.4062 6.39062 89.1875 6.39062C 89.9583 6.39062 90.5729 6.60938 91.0312 7.04688C 91.4896 7.48438 91.7188 8.04167 91.7188 8.71875C 91.7188 9.40625 91.4844 9.96875 91.0156 10.4062C 90.5573 10.8438 89.9479 11.0625 89.1875 11.0625C 88.4271 11.0625 87.8125 10.8438 87.3438 10.4062C 86.8854 9.96875 86.6562 9.40625 86.6562 8.71875ZM 99.3438 13.0938L 99.4844 15.0469C 100.693 13.5365 102.312 12.7812 104.344 12.7812C 106.135 12.7812 107.469 13.3073 108.344 14.3594C 109.219 15.4115 109.667 16.9844 109.688 19.0781L 109.688 30L 105.172 30L 105.172 19.1875C 105.172 18.2292 104.964 17.5365 104.547 17.1094C 104.13 16.6719 103.438 16.4531 102.469 16.4531C 101.198 16.4531 100.245 16.9948 99.6094 18.0781L 99.6094 30L 95.0938 30L 95.0938 13.0938L 99.3438 13.0938ZM 126.5 8.9375L 126.5 13.0938L 129.391 13.0938L 129.391 16.4062L 126.5 16.4062L 126.5 24.8438C 126.5 25.4688 126.62 25.9167 126.859 26.1875C 127.099 26.4583 127.557 26.5938 128.234 26.5938C 128.734 26.5938 129.177 26.5573 129.562 26.4844L 129.562 29.9062C 128.677 30.1771 127.766 30.3125 126.828 30.3125C 123.661 30.3125 122.047 28.7135 121.984 25.5156L 121.984 16.4062L 119.516 16.4062L 119.516 13.0938L 121.984 13.0938L 121.984 8.9375L 126.5 8.9375ZM 136.312 14.9375C 137.51 13.5 139.016 12.7812 140.828 12.7812C 144.495 12.7812 146.354 14.9115 146.406 19.1719L 146.406 30L 141.891 30L 141.891 19.2969C 141.891 18.3281 141.682 17.6146 141.266 17.1562C 140.849 16.6875 140.156 16.4531 139.188 16.4531C 137.865 16.4531 136.906 16.9635 136.312 17.9844L 136.312 30L 131.797 30L 131.797 6L 136.312 6L 136.312 14.9375ZM 157.594 30.3125C 155.115 30.3125 153.094 29.5521 151.531 28.0312C 149.979 26.5104 149.203 24.4844 149.203 21.9531L 149.203 21.5156C 149.203 19.8177 149.531 18.3021 150.188 16.9688C 150.844 15.625 151.771 14.5938 152.969 13.875C 154.177 13.1458 155.552 12.7812 157.094 12.7812C 159.406 12.7812 161.224 13.5104 162.547 14.9688C 163.88 16.4271 164.547 18.4948 164.547 21.1719L 164.547 23.0156L 153.781 23.0156C 153.927 24.1198 154.365 25.0052 155.094 25.6719C 155.833 26.3385 156.766 26.6719 157.891 26.6719C 159.63 26.6719 160.99 26.0417 161.969 24.7812L 164.188 27.2656C 163.51 28.224 162.594 28.974 161.438 29.5156C 160.281 30.0469 159 30.3125 157.594 30.3125ZM 157.078 16.4375C 156.182 16.4375 155.453 16.7396 154.891 17.3438C 154.339 17.9479 153.984 18.8125 153.828 19.9375L 160.109 19.9375L 160.109 19.5781C 160.089 18.5781 159.818 17.8073 159.297 17.2656C 158.776 16.7135 158.036 16.4375 157.078 16.4375ZM 191.578 11.0469L 184.609 11.0469L 184.609 30L 179.922 30L 179.922 11.0469L 173.047 11.0469L 173.047 7.25L 191.578 7.25L 191.578 11.0469ZM 200.344 30.3125C 197.865 30.3125 195.844 29.5521 194.281 28.0312C 192.729 26.5104 191.953 24.4844 191.953 21.9531L 191.953 21.5156C 191.953 19.8177 192.281 18.3021 192.938 16.9688C 193.594 15.625 194.521 14.5938 195.719 13.875C 196.927 13.1458 198.302 12.7812 199.844 12.7812C 202.156 12.7812 203.974 13.5104 205.297 14.9688C 206.63 16.4271 207.297 18.4948 207.297 21.1719L 207.297 23.0156L 196.531 23.0156C 196.677 24.1198 197.115 25.0052 197.844 25.6719C 198.583 26.3385 199.516 26.6719 200.641 26.6719C 202.38 26.6719 203.74 26.0417 204.719 24.7812L 206.938 27.2656C 206.26 28.224 205.344 28.974 204.188 29.5156C 203.031 30.0469 201.75 30.3125 200.344 30.3125ZM 199.828 16.4375C 198.932 16.4375 198.203 16.7396 197.641 17.3438C 197.089 17.9479 196.734 18.8125 196.578 19.9375L 202.859 19.9375L 202.859 19.5781C 202.839 18.5781 202.568 17.8073 202.047 17.2656C 201.526 16.7135 200.786 16.4375 199.828 16.4375ZM 219.672 30C 219.464 29.5938 219.312 29.0885 219.219 28.4844C 218.125 29.7031 216.703 30.3125 214.953 30.3125C 213.297 30.3125 211.922 29.8333 210.828 28.875C 209.745 27.9167 209.203 26.7083 209.203 25.25C 209.203 23.4583 209.865 22.0833 211.188 21.125C 212.521 20.1667 214.443 19.6823 216.953 19.6719L 219.031 19.6719L 219.031 18.7031C 219.031 17.9219 218.828 17.2969 218.422 16.8281C 218.026 16.3594 217.396 16.125 216.531 16.125C 215.771 16.125 215.172 16.3073 214.734 16.6719C 214.307 17.0365 214.094 17.5365 214.094 18.1719L 209.578 18.1719C 209.578 17.1927 209.88 16.2865 210.484 15.4531C 211.089 14.6198 211.943 13.9688 213.047 13.5C 214.151 13.0208 215.391 12.7812 216.766 12.7812C 218.849 12.7812 220.5 13.3073 221.719 14.3594C 222.948 15.401 223.562 16.8698 223.562 18.7656L 223.562 26.0938C 223.573 27.6979 223.797 28.9115 224.234 29.7344L 224.234 30L 219.672 30ZM 215.938 26.8594C 216.604 26.8594 217.219 26.7135 217.781 26.4219C 218.344 26.1198 218.76 25.7188 219.031 25.2188L 219.031 22.3125L 217.344 22.3125C 215.083 22.3125 213.88 23.0938 213.734 24.6562L 213.719 24.9219C 213.719 25.4844 213.917 25.9479 214.312 26.3125C 214.708 26.6771 215.25 26.8594 215.938 26.8594ZM 231.266 13.0938L 231.406 14.9844C 232.604 13.5156 234.224 12.7812 236.266 12.7812C 238.443 12.7812 239.938 13.6406 240.75 15.3594C 241.938 13.6406 243.63 12.7812 245.828 12.7812C 247.661 12.7812 249.026 13.3177 249.922 14.3906C 250.818 15.4531 251.266 17.0573 251.266 19.2031L 251.266 30L 246.734 30L 246.734 19.2188C 246.734 18.2604 246.547 17.5625 246.172 17.125C 245.797 16.6771 245.135 16.4531 244.188 16.4531C 242.833 16.4531 241.896 17.099 241.375 18.3906L 241.391 30L 236.875 30L 236.875 19.2344C 236.875 18.2552 236.682 17.5469 236.297 17.1094C 235.911 16.6719 235.255 16.4531 234.328 16.4531C 233.047 16.4531 232.12 16.9844 231.547 18.0469L 231.547 30L 227.031 30L 227.031 13.0938L 231.266 13.0938Z"/>
<path id="path6_fill" d="M 0.147783 47.5L 1.66778 48.28C 8.42486 51.4692 15.7867 53.1741 23.2578 53.28C 30.729 53.1744 38.0908 51.4695 44.8478 48.28L 46.3678 47.5L 46.4778 45.8C 46.5423 44.7743 46.5423 43.7457 46.4778 42.72C 46.2116 40.8708 45.4763 39.1207 44.342 37.6362C 43.2077 36.1518 41.7121 34.9826 39.9978 34.24C 38.8578 33.7 34.7378 31.79 32.3378 30.69L 32.3378 30C 32.8496 29.236 33.2189 28.3856 33.4278 27.49L 33.4278 27.35C 34.0037 27.0183 34.4935 26.5559 34.8578 26L 34.9978 25.78L 35.1178 25.52C 35.4978 24.72 38.0378 19.1 36.2278 16.16C 36.1156 15.9766 35.9885 15.8026 35.8478 15.64C 35.9478 14.48 35.9978 13.25 36.0178 11.85C 36.0778 6.94 32.0178 3.15 29.8878 1.85C 27.9705 0.677621 25.7748 0.0389205 23.5278 8.88178e-16L 23.1478 8.88178e-16C 20.9258 0.0950917 18.7516 0.675334 16.7778 1.7C 15.9573 2.06054 15.2258 2.5966 14.6349 3.27043C 14.044 3.94426 13.6081 4.73945 13.3578 5.6C 12.9396 5.84819 12.5562 6.15084 12.2178 6.5C 11.5706 7.22947 11.0811 8.08477 10.78 9.01227C 10.4788 9.93978 10.3726 10.9195 10.4678 11.89C 10.4678 12.14 10.4678 12.41 10.4678 12.68C 10.4678 13.57 10.5278 14.55 10.6078 15.61C 10.4671 15.7726 10.34 15.9465 10.2278 16.13C 8.39778 19.13 11.0478 24.88 11.3578 25.53L 11.4178 25.67L 11.5978 25.88L 11.5978 26L 11.5978 26.07C 11.9612 26.609 12.4436 27.0572 13.0078 27.38L 13.0078 27.52C 13.2483 28.4111 13.6481 29.2513 14.1878 30L 14.1878 30.7C 11.7978 31.81 7.66778 33.7 6.52778 34.25C 4.81293 34.9918 3.31686 36.1608 2.18242 37.6453C 1.04798 39.1299 0.31304 40.8805 0.0477842 42.73C -0.0159271 43.7557 -0.0159271 44.7843 0.0477842 45.81L 0.147783 47.5ZM 3.03778 42.94C 3.25556 41.6163 3.80811 40.3702 4.64296 39.32C 5.4778 38.2699 6.56723 37.4506 7.80778 36.94C 9.40778 36.18 17.1878 32.6 17.1878 32.6L 17.1878 28.94C 16.6168 28.3432 16.2162 27.6042 16.0278 26.8C 15.7278 25.48 15.3978 24.26 15.3978 24.26C 15.345 24.3909 15.2609 24.5068 15.1528 24.5975C 15.0446 24.6882 14.9159 24.7508 14.7778 24.78C 14.6369 24.7601 14.5031 24.7059 14.388 24.6222C 14.2729 24.5385 14.1802 24.4279 14.1178 24.3L 14.1178 24.23C 13.8078 23.57 11.3178 17.36 13.5378 17.3C 13.6766 17.308 13.8141 17.3315 13.9478 17.37C 13.8391 16.9666 13.7622 16.5554 13.7178 16.14C 13.5478 14.54 13.5378 13.02 13.4878 11.77C 13.3478 8.04 15.6878 7.77 16.3578 7.77L 16.5378 7.77C 16.5378 7.77 15.1878 5.91 18.1878 4.34C 19.7599 3.52899 21.4903 3.07164 23.2578 3L 23.5278 3C 25.2268 3.01696 26.8905 3.4864 28.3478 4.36C 29.8078 5.25 33.0878 8.19 33.0478 11.78C 33.0478 13.03 32.9878 14.55 32.8178 16.15C 32.7766 16.5651 32.7031 16.9764 32.5978 17.38C 32.7314 17.3413 32.8689 17.3178 33.0078 17.31C 35.2278 17.37 32.7378 23.58 32.4178 24.24L 32.4178 24.31C 32.3554 24.4379 32.2626 24.5485 32.1476 24.6322C 32.0325 24.7159 31.8987 24.7701 31.7578 24.79C 31.6197 24.7608 31.4909 24.6982 31.3828 24.6075C 31.2747 24.5168 31.1905 24.4009 31.1378 24.27C 31.1378 24.27 30.8178 25.49 30.5078 26.81C 30.3203 27.6146 29.9196 28.3538 29.3478 28.95L 29.3478 32.6C 29.3478 32.6 37.1178 36.18 38.7178 36.94C 39.9578 37.4514 41.0467 38.271 41.8815 39.3209C 42.7162 40.3709 43.2691 41.6166 43.4878 42.94C 43.543 43.8258 43.543 44.7142 43.4878 45.6C 37.1498 48.5675 30.2552 50.1591 23.2578 50.27C 16.2604 50.1591 9.36576 48.5675 3.02778 45.6C 2.97715 44.7173 2.98049 43.8323 3.03778 42.95L 3.03778 42.94Z"/>
<path id="path7_fill" d="M 40.1178 34.12C 38.9778 33.58 34.8578 31.67 32.4578 30.57L 32.4578 29.87C 32.9547 29.116 33.3136 28.2796 33.5178 27.4L 33.5178 27.26C 34.082 26.9372 34.5644 26.489 34.9278 25.95L 35.0678 25.73L 35.1878 25.47C 35.5678 24.67 38.1078 19.05 36.2978 16.11C 36.1856 15.9265 36.0585 15.7526 35.9178 15.59C 36.0178 14.43 36.0678 13.2 36.0878 11.8C 36.1478 6.89 32.0878 3.1 29.9578 1.8C 28.0268 0.640024 25.8203 0.0184812 23.5678 -2.74658e-06L 23.2778 -2.74658e-06C 21.0566 0.0919866 18.8824 0.668808 16.9078 1.69C 16.1003 2.04666 15.3793 2.57352 14.7942 3.23454C 14.2092 3.89556 13.7737 4.67516 13.5178 5.52C 13.0996 5.76819 12.7162 6.07084 12.3778 6.42C 11.7306 7.14947 11.2411 8.00477 10.94 8.93227C 10.6388 9.85978 10.5326 10.8395 10.6278 11.81C 10.6278 12.06 10.6278 12.33 10.6278 12.6C 10.6278 13.49 10.6878 14.47 10.7678 15.53C 10.627 15.6926 10.4999 15.8665 10.3878 16.05C 8.55778 19.05 11.2078 24.8 11.5178 25.45L 11.5778 25.59L 11.6878 25.78L 11.6878 25.85L 11.6878 25.92C 12.0512 26.459 12.5336 26.9072 13.0978 27.23L 13.0978 27.37C 13.3084 28.2619 13.6776 29.1087 14.1878 29.87L 14.1878 30.57C 11.7978 31.68 7.66778 33.57 6.52778 34.12C 4.81293 34.8618 3.31686 36.0308 2.18242 37.5153C 1.04798 38.9999 0.313039 40.7505 0.0477832 42.6C -0.0159281 43.6257 -0.0159281 44.6543 0.0477832 45.68L 0.157784 47.39L 1.67778 48.17C 8.43486 51.3592 15.7967 53.0641 23.2678 53.17C 30.739 53.0644 38.1008 51.3595 44.8578 48.17L 46.3778 47.39L 46.4878 45.69C 46.5524 44.6643 46.5524 43.6356 46.4878 42.61C 46.2338 40.7706 45.5158 39.026 44.4014 37.5407C 43.287 36.0554 41.8128 34.8782 40.1178 34.12ZM 43.6178 45.49C 37.2798 48.4575 30.3852 50.0491 23.3878 50.16C 16.3904 50.0491 9.49576 48.4575 3.15778 45.49C 3.10341 44.6042 3.10341 43.7158 3.15778 42.83C 3.37556 41.5063 3.92811 40.2602 4.76296 39.21C 5.5978 38.1599 6.68723 37.3406 7.92778 36.83C 9.52778 36.07 17.3078 32.49 17.3078 32.49L 17.3078 28.83C 16.7368 28.2332 16.3362 27.4942 16.1478 26.69C 15.8478 25.37 15.5178 24.15 15.5178 24.15C 15.465 24.2809 15.3809 24.3968 15.2728 24.4875C 15.1646 24.5782 15.0359 24.6409 14.8978 24.67C 14.7569 24.6501 14.6231 24.5959 14.508 24.5122C 14.3929 24.4285 14.3002 24.3179 14.2378 24.19L 14.2378 24.12C 13.9278 23.46 11.4378 17.25 13.6578 17.19C 13.7966 17.198 13.9341 17.2215 14.0678 17.26C 13.9602 16.8863 13.88 16.5053 13.8278 16.12C 13.6578 14.52 13.6478 13 13.5978 11.75C 13.4578 8.02 15.7978 7.75 16.4678 7.75L 16.6478 7.75C 16.6478 7.75 15.2978 5.89 18.2978 4.32C 19.8751 3.5027 21.6127 3.04184 23.3878 2.97L 23.6578 2.97C 25.3657 2.96469 27.0439 3.41704 28.5178 4.28C 29.9778 5.17 33.2578 8.11 33.2178 11.7C 33.2178 12.95 33.1578 14.47 32.9878 16.07C 32.9434 16.4854 32.8664 16.8966 32.7578 17.3C 32.8914 17.2613 33.0289 17.2378 33.1678 17.23C 35.3878 17.29 32.8978 23.5 32.5778 24.16L 32.5778 24.23C 32.5154 24.3579 32.4226 24.4685 32.3076 24.5522C 32.1925 24.6359 32.0587 24.6901 31.9178 24.71C 31.7797 24.6808 31.6509 24.6182 31.5428 24.5275C 31.4347 24.4368 31.3505 24.3209 31.2978 24.19C 31.2978 24.19 30.9778 25.41 30.6678 26.73C 30.4803 27.5346 30.0796 28.2738 29.5078 28.87L 29.5078 32.53C 29.5078 32.53 37.2778 36.11 38.8778 36.87C 40.1178 37.3814 41.2067 38.201 42.0415 39.2509C 42.8762 40.3009 43.4291 41.5466 43.6478 42.87C 43.693 43.7564 43.683 44.6448 43.6178 45.53L 43.6178 45.49Z"/>
<path id="path8_fill" d="M 46.6478 42.69C 46.3816 40.8408 45.6463 39.0906 44.512 37.6062C 43.3777 36.1218 41.8821 34.9526 40.1678 34.21C 39.0278 33.67 34.9078 31.76 32.5078 30.66L 32.5078 29.96C 33.0196 29.196 33.3889 28.3456 33.5978 27.45L 33.5978 27.31C 34.162 26.9872 34.6444 26.539 35.0078 26L 35.1578 25.78L 35.3078 25.47C 35.6878 24.67 38.2278 19.05 36.4178 16.11C 36.3056 15.9265 36.1785 15.7526 36.0378 15.59C 36.1378 14.43 36.1878 13.2 36.2078 11.8C 36.2678 6.89 32.2078 3.1 30.0778 1.8C 28.1468 0.640021 25.9403 0.0184858 23.6878 1.83105e-06L 23.3078 1.83105e-06C 21.0866 0.0919912 18.9124 0.668805 16.9378 1.69C 16.1173 2.05054 15.3858 2.58661 14.7949 3.26043C 14.204 3.93426 13.7681 4.72945 13.5178 5.59C 13.0996 5.83819 12.7162 6.14084 12.3778 6.49C 11.7306 7.21947 11.2411 8.07477 10.94 9.00228C 10.6388 9.92978 10.5326 10.9095 10.6278 11.88C 10.6278 12.13 10.6278 12.4 10.6278 12.67C 10.6278 13.56 10.6878 14.54 10.7678 15.6C 10.6271 15.7626 10.5 15.9365 10.3878 16.12C 8.55779 19.12 11.2078 24.87 11.5178 25.52L 11.5778 25.66L 11.6878 25.85L 11.6878 25.92L 11.6878 25.99C 12.0512 26.529 12.5336 26.9772 13.0978 27.3L 13.0978 27.44C 13.3084 28.3319 13.6776 29.1787 14.1878 29.94L 14.1878 30.64C 11.7978 31.75 7.66778 33.64 6.52778 34.19C 4.81293 34.9318 3.31686 36.1008 2.18242 37.5853C 1.04797 39.0699 0.313037 40.8205 0.0477813 42.67C -0.01593 43.6957 -0.01593 44.7243 0.0477813 45.75L 0.307783 47.48L 1.82778 48.26C 8.58486 51.4492 15.9467 53.1541 23.4178 53.26C 30.889 53.1544 38.2508 51.4495 45.0078 48.26L 46.5278 47.48L 46.6378 45.78C 46.7061 44.7512 46.7094 43.7192 46.6478 42.69ZM 43.6478 45.58C 37.3098 48.5475 30.4152 50.1391 23.4178 50.25C 16.4204 50.1391 9.52576 48.5475 3.18778 45.58C 3.13341 44.6942 3.13341 43.8058 3.18778 42.92C 3.40556 41.5963 3.95811 40.3502 4.79296 39.3C 5.62781 38.2499 6.71723 37.4306 7.95779 36.92C 9.55779 36.16 17.3378 32.58 17.3378 32.58L 17.3378 28.92C 16.7668 28.3232 16.3662 27.5842 16.1778 26.78C 15.8778 25.46 15.5478 24.24 15.5478 24.24C 15.495 24.3709 15.4109 24.4868 15.3028 24.5775C 15.1946 24.6682 15.0659 24.7308 14.9278 24.76C 14.7941 24.7341 14.6683 24.6772 14.5606 24.5938C 14.453 24.5104 14.3663 24.403 14.3078 24.28L 14.3078 24.17C 13.9978 23.51 11.5078 17.3 13.7278 17.24C 13.8666 17.248 14.0041 17.2715 14.1378 17.31C 14.0234 16.9368 13.9365 16.5558 13.8778 16.17C 13.7078 14.57 13.6978 13.05 13.6478 11.8C 13.5078 8.07 15.8478 7.8 16.5178 7.8L 16.6978 7.8C 16.6978 7.8 15.3078 5.9 18.3078 4.33C 19.8851 3.5127 21.6227 3.05184 23.3978 2.98L 23.6678 2.98C 25.3668 2.99696 27.0305 3.4664 28.4878 4.34C 29.9478 5.23 33.2278 8.17 33.1878 11.76C 33.1878 13.01 33.1278 14.53 32.9578 16.13C 32.9134 16.5454 32.8364 16.9566 32.7278 17.36C 32.8614 17.3213 32.9989 17.2978 33.1378 17.29C 35.3578 17.35 32.8678 23.56 32.5478 24.22L 32.5478 24.29C 32.4854 24.4179 32.3926 24.5285 32.2776 24.6122C 32.1625 24.6959 32.0287 24.7501 31.8878 24.77C 31.7497 24.7408 31.6209 24.6782 31.5128 24.5875C 31.4047 24.4968 31.3205 24.3809 31.2678 24.25C 31.2678 24.25 30.9478 25.47 30.6378 26.79C 30.4503 27.5946 30.0496 28.3338 29.4778 28.93L 29.4778 32.59C 29.4778 32.59 37.2478 36.17 38.8478 36.93C 40.0878 37.4414 41.1767 38.261 42.0115 39.3109C 42.8462 40.3609 43.3991 41.6066 43.6178 42.93C 43.6892 43.8115 43.7059 44.6965 43.6678 45.58L 43.6478 45.58Z"/>
<path id="path9_fill" d="M 15.15 0L 15.15 12.05L -1.52588e-06 21.77L 1.79 24.57L 16.61 15.06L 30.03 24.52L 31.95 21.81L 18.47 12.31L 18.47 0L 15.15 0Z"/>
</defs>
</svg>
