<svg width="399" height="419" viewBox="0 0 399 419" version="1.1" xmlns="http://www.w3.org/2000/svg" xmlns:xlink="http://www.w3.org/1999/xlink">
<title>3</title>
<desc>Created using Figma</desc>
<g id="Canvas" transform="translate(-4042 -1109)">
<g id="3">
<g id="&#208;&#159;&#209;&#128;&#209;&#143;&#208;&#188;&#208;&#190;&#209;&#131;&#208;&#179;&#208;&#190;&#208;&#187;&#209;&#140;&#208;&#189;&#208;&#184;&#208;&#186; 2" filter="url(#filter0_d)">
<use xlink:href="#path0_stroke" transform="translate(4056 1117)" fill="#FFFFFF"/>
</g>
<g id="&#208;&#159;&#209;&#128;&#209;&#143;&#208;&#188;&#208;&#190;&#209;&#131;&#208;&#179;&#208;&#190;&#208;&#187;&#209;&#140;&#208;&#189;&#208;&#184;&#208;&#186; 2 &#208;&#186;&#208;&#190;&#208;&#191;&#208;&#184;&#209;&#143; 2" filter="url(#filter1_d)">
<use xlink:href="#path1_fill" transform="translate(4044 1107)" fill="#F28D15" style="mix-blend-mode:hard-light"/>
</g>
<g id="Vector 6">
<use xlink:href="#path2_fill" transform="translate(4050 1300)" fill="#F2994A"/>
</g>
<g id="&#208;&#159;&#209;&#128;&#209;&#143;&#208;&#188;&#208;&#190;&#209;&#131;&#208;&#179;&#208;&#190;&#208;&#187;&#209;&#140;&#208;&#189;&#208;&#184;&#208;&#186; 4 &#208;&#186;&#208;&#190;&#208;&#191;&#208;&#184;&#209;&#143; 2">
<use xlink:href="#path3_fill" transform="translate(4145 1407)" fill="#000000" fill-opacity="0.01"/>
<mask id="mask0_outline_ins">
<use xlink:href="#path3_fill" fill="white" transform="translate(4145 1407)"/>
</mask>
<g mask="url(#mask0_outline_ins)">
<use xlink:href="#path4_stroke_2x" transform="translate(4145 1407)" fill="#FFFFFF"/>
</g>
</g>
<g id="Learn more &#208;&#186;&#208;&#190;&#208;&#191;&#208;&#184;&#209;&#143;">
<use xlink:href="#path5_fill" transform="translate(4168 1430)" fill="#FFFFFF"/>
</g>
<g id="Early Business Sponsorship">
<use xlink:href="#path6_fill" transform="translate(4080 1296)" fill="#FFFFFF"/>
</g>
<g id="3-03">
<g id="Vector">
<use xlink:href="#path7_fill" transform="translate(4170 1175)" fill="#FFFFFF"/>
</g>
<g id="Vector">
<use xlink:href="#path8_fill" transform="translate(4267.09 1190.44)" fill="#FFFFFF"/>
</g>
<g id="Vector">
<use xlink:href="#path9_fill" transform="translate(4193.33 1184.24)" fill="#FFFFFF"/>
</g>
</g>
</g>
</g>
<defs>
<filter id="filter0_d" filterUnits="userSpaceOnUse" x="4043" y="1110" width="398" height="418" color-interpolation-filters="sRGB">
<feFlood flood-opacity="0" result="BackgroundImageFix"/>
<feColorMatrix in="SourceAlpha" type="matrix" values="0 0 0 0 0 0 0 0 0 0 0 0 0 0 0 0 0 0 255 0"/>
<feOffset dx="0" dy="5"/>
<feGaussianBlur stdDeviation="6"/>
<feColorMatrix type="matrix" values="0 0 0 0 0 0 0 0 0 0 0 0 0 0 0 0 0 0 0.15 0"/>
<feBlend mode="normal" in2="BackgroundImageFix" result="effect1_dropShadow"/>
<feBlend mode="normal" in="SourceGraphic" in2="effect1_dropShadow" result="shape"/>
</filter>
<filter id="filter1_d" filterUnits="userSpaceOnUse" x="4042" y="1108" width="378" height="399" color-interpolation-filters="sRGB">
<feFlood flood-opacity="0" result="BackgroundImageFix"/>
<feColorMatrix in="SourceAlpha" type="matrix" values="0 0 0 0 0 0 0 0 0 0 0 0 0 0 0 0 0 0 255 0"/>
<feOffset dx="0" dy="4"/>
<feGaussianBlur stdDeviation="2"/>
<feColorMatrix type="matrix" values="0 0 0 0 0 0 0 0 0 0 0 0 0 0 0 0 0 0 0.25 0"/>
<feBlend mode="normal" in2="BackgroundImageFix" result="effect1_dropShadow"/>
<feBlend mode="normal" in="SourceGraphic" in2="effect1_dropShadow" result="shape"/>
</filter>
<path id="path0_stroke" d="M 0.999936 1.99998L 0.999936 0.499977L -0.500064 0.499977L -0.500064 1.99998L 0.999936 1.99998ZM 371 1.99998L 372.5 1.99998L 372.5 0.499977L 371 0.499977L 371 1.99998ZM 371 392L 371 393.5L 372.5 393.5L 372.5 392L 371 392ZM 0.999936 392L -0.500064 392L -0.500064 393.5L 0.999936 393.5L 0.999936 392ZM 0.999936 3.49998L 371 3.49998L 371 0.499977L 0.999936 0.499977L 0.999936 3.49998ZM 369.5 1.99998L 369.5 392L 372.5 392L 372.5 1.99998L 369.5 1.99998ZM 371 390.5L 0.999936 390.5L 0.999936 393.5L 371 393.5L 371 390.5ZM 2.49994 392L 2.49994 1.99998L -0.500064 1.99998L -0.500064 392L 2.49994 392Z"/>
<path id="path1_fill" fill-rule="evenodd" d="M 2.00003 1.99998L 372 1.99998L 372 392L 2.00003 392L 2.00003 1.99998Z"/>
<path id="path2_fill" d="M 183 0L 0 199L 366 199L 183 0Z"/>
<path id="path3_fill" fill-rule="evenodd" d="M 26 1.99985L 146 1.99985C 159.807 1.99985 171 13.1927 171 26.9998C 171 40.807 159.807 52 146 52L 26 52C 12.1927 52 1.00001 40.807 1.00001 26.9998C 1.00001 13.1927 12.1927 1.99985 26 1.99985Z"/>
<path id="path4_stroke_2x" d="M 26 3.99985L 146 3.99985L 146 -0.000151038L 26 -0.000151038L 26 3.99985ZM 146 3.99985C 158.703 3.99985 169 14.2973 169 26.9998L 173 26.9998C 173 12.0881 160.912 -0.000151038 146 -0.000151038L 146 3.99985ZM 169 26.9998C 169 39.7024 158.703 50 146 50L 146 54C 160.912 54 173 41.9115 173 26.9998L 169 26.9998ZM 146 50L 26 50L 26 54L 146 54L 146 50ZM 26 50C 13.2973 50 3.00001 39.7024 3.00001 26.9998L -0.999992 26.9998C -0.999992 41.9115 11.0881 54 26 54L 26 50ZM 3.00001 26.9998C 3.00001 14.2973 13.2973 3.99985 26 3.99985L 26 -0.000151038C 11.0882 -0.000151038 -0.999992 12.0881 -0.999992 26.9998L 3.00001 26.9998Z"/>
<path id="path5_fill" d="M 16.8828 7.11719L 21.8594 7.11719L 21.8594 9L 14.5391 9L 14.5391 -2.375L 16.8828 -2.375L 16.8828 7.11719ZM 28.5531 9.15625C 27.3135 9.15625 26.3031 8.77604 25.5219 8.01562C 24.7458 7.25521 24.3578 6.24219 24.3578 4.97656L 24.3578 4.75781C 24.3578 3.90885 24.5219 3.15104 24.85 2.48438C 25.1781 1.8125 25.6417 1.29688 26.2406 0.9375C 26.8448 0.572917 27.5323 0.390625 28.3031 0.390625C 29.4594 0.390625 30.3682 0.755208 31.0297 1.48438C 31.6964 2.21354 32.0297 3.2474 32.0297 4.58594L 32.0297 5.50781L 26.6469 5.50781C 26.7198 6.0599 26.9385 6.5026 27.3031 6.83594C 27.6729 7.16927 28.1391 7.33594 28.7016 7.33594C 29.5714 7.33594 30.251 7.02083 30.7406 6.39062L 31.85 7.63281C 31.5115 8.11198 31.0531 8.48698 30.475 8.75781C 29.8969 9.02344 29.2563 9.15625 28.5531 9.15625ZM 28.2953 2.21875C 27.8474 2.21875 27.4828 2.36979 27.2016 2.67188C 26.9255 2.97396 26.7484 3.40625 26.6703 3.96875L 29.8109 3.96875L 29.8109 3.78906C 29.8005 3.28906 29.6651 2.90365 29.4047 2.63281C 29.1443 2.35677 28.7745 2.21875 28.2953 2.21875ZM 39.8172 9C 39.713 8.79688 39.6375 8.54427 39.5906 8.24219C 39.0438 8.85156 38.3328 9.15625 37.4578 9.15625C 36.6297 9.15625 35.9422 8.91667 35.3953 8.4375C 34.8536 7.95833 34.5828 7.35417 34.5828 6.625C 34.5828 5.72917 34.9135 5.04167 35.575 4.5625C 36.2417 4.08333 37.2026 3.84115 38.4578 3.83594L 39.4969 3.83594L 39.4969 3.35156C 39.4969 2.96094 39.3953 2.64844 39.1922 2.41406C 38.9943 2.17969 38.6792 2.0625 38.2469 2.0625C 37.8667 2.0625 37.5672 2.15365 37.3484 2.33594C 37.1349 2.51823 37.0281 2.76823 37.0281 3.08594L 34.7703 3.08594C 34.7703 2.59635 34.9214 2.14323 35.2234 1.72656C 35.5255 1.3099 35.9526 0.984375 36.5047 0.75C 37.0568 0.510417 37.6766 0.390625 38.3641 0.390625C 39.4057 0.390625 40.2313 0.653646 40.8406 1.17969C 41.4552 1.70052 41.7625 2.4349 41.7625 3.38281L 41.7625 7.04688C 41.7677 7.84896 41.8797 8.45573 42.0984 8.86719L 42.0984 9L 39.8172 9ZM 37.95 7.42969C 38.2833 7.42969 38.5906 7.35677 38.8719 7.21094C 39.1531 7.0599 39.3615 6.85938 39.4969 6.60938L 39.4969 5.15625L 38.6531 5.15625C 37.5229 5.15625 36.9214 5.54688 36.8484 6.32812L 36.8406 6.46094C 36.8406 6.74219 36.9396 6.97396 37.1375 7.15625C 37.3354 7.33854 37.6063 7.42969 37.95 7.42969ZM 49.8469 2.66406C 49.5396 2.6224 49.2688 2.60156 49.0344 2.60156C 48.1802 2.60156 47.6203 2.89062 47.3547 3.46875L 47.3547 9L 45.0969 9L 45.0969 0.546875L 47.2297 0.546875L 47.2922 1.55469C 47.7453 0.778646 48.3729 0.390625 49.175 0.390625C 49.425 0.390625 49.6594 0.424479 49.8781 0.492188L 49.8469 2.66406ZM 54.6188 0.546875L 54.6891 1.52344C 55.2932 0.768229 56.1031 0.390625 57.1188 0.390625C 58.0146 0.390625 58.6813 0.653646 59.1188 1.17969C 59.5563 1.70573 59.7802 2.49219 59.7906 3.53906L 59.7906 9L 57.5328 9L 57.5328 3.59375C 57.5328 3.11458 57.4286 2.76823 57.2203 2.55469C 57.012 2.33594 56.6656 2.22656 56.1813 2.22656C 55.5458 2.22656 55.0693 2.4974 54.7516 3.03906L 54.7516 9L 52.4938 9L 52.4938 0.546875L 54.6188 0.546875ZM 70.8109 0.546875L 70.8813 1.49219C 71.4802 0.757812 72.2901 0.390625 73.3109 0.390625C 74.3995 0.390625 75.1469 0.820312 75.5531 1.67969C 76.1469 0.820312 76.9932 0.390625 78.0922 0.390625C 79.0089 0.390625 79.6912 0.658854 80.1391 1.19531C 80.587 1.72656 80.8109 2.52865 80.8109 3.60156L 80.8109 9L 78.5453 9L 78.5453 3.60938C 78.5453 3.13021 78.4516 2.78125 78.2641 2.5625C 78.0766 2.33854 77.7458 2.22656 77.2719 2.22656C 76.5948 2.22656 76.126 2.54948 75.8656 3.19531L 75.8734 9L 73.6156 9L 73.6156 3.61719C 73.6156 3.1276 73.5193 2.77344 73.3266 2.55469C 73.1339 2.33594 72.8057 2.22656 72.3422 2.22656C 71.7016 2.22656 71.238 2.49219 70.9516 3.02344L 70.9516 9L 68.6938 9L 68.6938 0.546875L 70.8109 0.546875ZM 83.8016 4.69531C 83.8016 3.85677 83.963 3.10938 84.2859 2.45312C 84.6089 1.79688 85.0724 1.28906 85.6766 0.929688C 86.2859 0.570312 86.9917 0.390625 87.7938 0.390625C 88.9344 0.390625 89.8641 0.739583 90.5828 1.4375C 91.3068 2.13542 91.7104 3.08333 91.7938 4.28125L 91.8094 4.85938C 91.8094 6.15625 91.4474 7.19792 90.7234 7.98438C 89.9995 8.76562 89.0281 9.15625 87.8094 9.15625C 86.5906 9.15625 85.6167 8.76562 84.8875 7.98438C 84.1635 7.20312 83.8016 6.14062 83.8016 4.79688L 83.8016 4.69531ZM 86.0594 4.85938C 86.0594 5.66146 86.2104 6.27604 86.5125 6.70312C 86.8146 7.125 87.2469 7.33594 87.8094 7.33594C 88.3563 7.33594 88.7833 7.1276 89.0906 6.71094C 89.3979 6.28906 89.5516 5.61719 89.5516 4.69531C 89.5516 3.90885 89.3979 3.29948 89.0906 2.86719C 88.7833 2.4349 88.351 2.21875 87.7938 2.21875C 87.2417 2.21875 86.8146 2.4349 86.5125 2.86719C 86.2104 3.29427 86.0594 3.95833 86.0594 4.85938ZM 99.55 2.66406C 99.2427 2.6224 98.9719 2.60156 98.7375 2.60156C 97.8833 2.60156 97.3234 2.89062 97.0578 3.46875L 97.0578 9L 94.8 9L 94.8 0.546875L 96.9328 0.546875L 96.9953 1.55469C 97.4484 0.778646 98.076 0.390625 98.8781 0.390625C 99.1281 0.390625 99.3625 0.424479 99.5813 0.492188L 99.55 2.66406ZM 105.978 9.15625C 104.739 9.15625 103.728 8.77604 102.947 8.01562C 102.171 7.25521 101.783 6.24219 101.783 4.97656L 101.783 4.75781C 101.783 3.90885 101.947 3.15104 102.275 2.48438C 102.603 1.8125 103.067 1.29688 103.666 0.9375C 104.27 0.572917 104.957 0.390625 105.728 0.390625C 106.884 0.390625 107.793 0.755208 108.455 1.48438C 109.121 2.21354 109.455 3.2474 109.455 4.58594L 109.455 5.50781L 104.072 5.50781C 104.145 6.0599 104.364 6.5026 104.728 6.83594C 105.098 7.16927 105.564 7.33594 106.127 7.33594C 106.996 7.33594 107.676 7.02083 108.166 6.39062L 109.275 7.63281C 108.936 8.11198 108.478 8.48698 107.9 8.75781C 107.322 9.02344 106.681 9.15625 105.978 9.15625ZM 105.72 2.21875C 105.272 2.21875 104.908 2.36979 104.627 2.67188C 104.351 2.97396 104.173 3.40625 104.095 3.96875L 107.236 3.96875L 107.236 3.78906C 107.226 3.28906 107.09 2.90365 106.83 2.63281C 106.569 2.35677 106.199 2.21875 105.72 2.21875Z"/>
<path id="path6_fill" d="M 61.2812 20.1406L 52.2812 20.1406L 52.2812 26.2344L 62.8438 26.2344L 62.8438 30L 47.5938 30L 47.5938 7.25L 62.8125 7.25L 62.8125 11.0469L 52.2812 11.0469L 52.2812 16.4688L 61.2812 16.4688L 61.2812 20.1406ZM 75.0938 30C 74.8854 29.5938 74.7344 29.0885 74.6406 28.4844C 73.5469 29.7031 72.125 30.3125 70.375 30.3125C 68.7188 30.3125 67.3438 29.8333 66.25 28.875C 65.1667 27.9167 64.625 26.7083 64.625 25.25C 64.625 23.4583 65.2865 22.0833 66.6094 21.125C 67.9427 20.1667 69.8646 19.6823 72.375 19.6719L 74.4531 19.6719L 74.4531 18.7031C 74.4531 17.9219 74.25 17.2969 73.8438 16.8281C 73.4479 16.3594 72.8177 16.125 71.9531 16.125C 71.1927 16.125 70.5938 16.3073 70.1562 16.6719C 69.7292 17.0365 69.5156 17.5365 69.5156 18.1719L 65 18.1719C 65 17.1927 65.3021 16.2865 65.9062 15.4531C 66.5104 14.6198 67.3646 13.9688 68.4688 13.5C 69.5729 13.0208 70.8125 12.7812 72.1875 12.7812C 74.2708 12.7812 75.9219 13.3073 77.1406 14.3594C 78.3698 15.401 78.9844 16.8698 78.9844 18.7656L 78.9844 26.0938C 78.9948 27.6979 79.2188 28.9115 79.6562 29.7344L 79.6562 30L 75.0938 30ZM 71.3594 26.8594C 72.026 26.8594 72.6406 26.7135 73.2031 26.4219C 73.7656 26.1198 74.1823 25.7188 74.4531 25.2188L 74.4531 22.3125L 72.7656 22.3125C 70.5052 22.3125 69.3021 23.0938 69.1562 24.6562L 69.1406 24.9219C 69.1406 25.4844 69.3385 25.9479 69.7344 26.3125C 70.1302 26.6771 70.6719 26.8594 71.3594 26.8594ZM 91.9531 17.3281C 91.3385 17.2448 90.7969 17.2031 90.3281 17.2031C 88.6198 17.2031 87.5 17.7812 86.9688 18.9375L 86.9688 30L 82.4531 30L 82.4531 13.0938L 86.7188 13.0938L 86.8438 15.1094C 87.75 13.5573 89.0052 12.7812 90.6094 12.7812C 91.1094 12.7812 91.5781 12.849 92.0156 12.9844L 91.9531 17.3281ZM 98.9062 30L 94.375 30L 94.375 6L 98.9062 6L 98.9062 30ZM 108.953 23.6094L 112.078 13.0938L 116.922 13.0938L 110.125 32.625L 109.75 33.5156C 108.74 35.724 107.073 36.8281 104.75 36.8281C 104.094 36.8281 103.427 36.7292 102.75 36.5312L 102.75 33.1094L 103.438 33.125C 104.292 33.125 104.927 32.9948 105.344 32.7344C 105.771 32.474 106.104 32.0417 106.344 31.4375L 106.875 30.0469L 100.953 13.0938L 105.812 13.0938L 108.953 23.6094ZM 126.969 30L 126.969 7.25L 134.938 7.25C 137.698 7.25 139.792 7.78125 141.219 8.84375C 142.646 9.89583 143.359 11.4427 143.359 13.4844C 143.359 14.599 143.073 15.5833 142.5 16.4375C 141.927 17.2812 141.13 17.901 140.109 18.2969C 141.276 18.5885 142.193 19.1771 142.859 20.0625C 143.536 20.9479 143.875 22.0312 143.875 23.3125C 143.875 25.5 143.177 27.1562 141.781 28.2812C 140.385 29.4062 138.396 29.9792 135.812 30L 126.969 30ZM 131.656 20.0938L 131.656 26.2344L 135.672 26.2344C 136.776 26.2344 137.635 25.974 138.25 25.4531C 138.875 24.9219 139.188 24.1927 139.188 23.2656C 139.188 21.1823 138.109 20.125 135.953 20.0938L 131.656 20.0938ZM 131.656 16.7812L 135.125 16.7812C 137.49 16.7396 138.672 15.7969 138.672 13.9531C 138.672 12.9219 138.37 12.1823 137.766 11.7344C 137.172 11.276 136.229 11.0469 134.938 11.0469L 131.656 11.0469L 131.656 16.7812ZM 157.234 28.2812C 156.12 29.6354 154.578 30.3125 152.609 30.3125C 150.797 30.3125 149.411 29.7917 148.453 28.75C 147.505 27.7083 147.021 26.1823 147 24.1719L 147 13.0938L 151.516 13.0938L 151.516 24.0156C 151.516 25.776 152.318 26.6562 153.922 26.6562C 155.453 26.6562 156.505 26.125 157.078 25.0625L 157.078 13.0938L 161.609 13.0938L 161.609 30L 157.359 30L 157.234 28.2812ZM 174.172 25.3281C 174.172 24.776 173.896 24.3438 173.344 24.0312C 172.802 23.7083 171.927 23.4219 170.719 23.1719C 166.698 22.3281 164.688 20.6198 164.688 18.0469C 164.688 16.5469 165.307 15.2969 166.547 14.2969C 167.797 13.2865 169.427 12.7812 171.438 12.7812C 173.583 12.7812 175.297 13.2865 176.578 14.2969C 177.87 15.3073 178.516 16.6198 178.516 18.2344L 174 18.2344C 174 17.5885 173.792 17.0573 173.375 16.6406C 172.958 16.2135 172.307 16 171.422 16C 170.661 16 170.073 16.1719 169.656 16.5156C 169.24 16.8594 169.031 17.2969 169.031 17.8281C 169.031 18.3281 169.266 18.7344 169.734 19.0469C 170.214 19.349 171.016 19.6146 172.141 19.8438C 173.266 20.0625 174.214 20.3125 174.984 20.5938C 177.37 21.4688 178.562 22.9844 178.562 25.1406C 178.562 26.6823 177.901 27.9323 176.578 28.8906C 175.255 29.8385 173.547 30.3125 171.453 30.3125C 170.036 30.3125 168.776 30.0625 167.672 29.5625C 166.578 29.0521 165.719 28.3594 165.094 27.4844C 164.469 26.599 164.156 25.6458 164.156 24.625L 168.438 24.625C 168.479 25.4271 168.776 26.0417 169.328 26.4688C 169.88 26.8958 170.62 27.1094 171.547 27.1094C 172.411 27.1094 173.062 26.9479 173.5 26.625C 173.948 26.2917 174.172 25.8594 174.172 25.3281ZM 186.25 30L 181.719 30L 181.719 13.0938L 186.25 13.0938L 186.25 30ZM 181.453 8.71875C 181.453 8.04167 181.677 7.48438 182.125 7.04688C 182.583 6.60938 183.203 6.39062 183.984 6.39062C 184.755 6.39062 185.37 6.60938 185.828 7.04688C 186.286 7.48438 186.516 8.04167 186.516 8.71875C 186.516 9.40625 186.281 9.96875 185.812 10.4062C 185.354 10.8438 184.745 11.0625 183.984 11.0625C 183.224 11.0625 182.609 10.8438 182.141 10.4062C 181.682 9.96875 181.453 9.40625 181.453 8.71875ZM 194.141 13.0938L 194.281 15.0469C 195.49 13.5365 197.109 12.7812 199.141 12.7812C 200.932 12.7812 202.266 13.3073 203.141 14.3594C 204.016 15.4115 204.464 16.9844 204.484 19.0781L 204.484 30L 199.969 30L 199.969 19.1875C 199.969 18.2292 199.76 17.5365 199.344 17.1094C 198.927 16.6719 198.234 16.4531 197.266 16.4531C 195.995 16.4531 195.042 16.9948 194.406 18.0781L 194.406 30L 189.891 30L 189.891 13.0938L 194.141 13.0938ZM 215.703 30.3125C 213.224 30.3125 211.203 29.5521 209.641 28.0312C 208.089 26.5104 207.312 24.4844 207.312 21.9531L 207.312 21.5156C 207.312 19.8177 207.641 18.3021 208.297 16.9688C 208.953 15.625 209.88 14.5938 211.078 13.875C 212.286 13.1458 213.661 12.7812 215.203 12.7812C 217.516 12.7812 219.333 13.5104 220.656 14.9688C 221.99 16.4271 222.656 18.4948 222.656 21.1719L 222.656 23.0156L 211.891 23.0156C 212.036 24.1198 212.474 25.0052 213.203 25.6719C 213.943 26.3385 214.875 26.6719 216 26.6719C 217.74 26.6719 219.099 26.0417 220.078 24.7812L 222.297 27.2656C 221.62 28.224 220.703 28.974 219.547 29.5156C 218.391 30.0469 217.109 30.3125 215.703 30.3125ZM 215.188 16.4375C 214.292 16.4375 213.562 16.7396 213 17.3438C 212.448 17.9479 212.094 18.8125 211.938 19.9375L 218.219 19.9375L 218.219 19.5781C 218.198 18.5781 217.927 17.8073 217.406 17.2656C 216.885 16.7135 216.146 16.4375 215.188 16.4375ZM 234.391 25.3281C 234.391 24.776 234.115 24.3438 233.562 24.0312C 233.021 23.7083 232.146 23.4219 230.938 23.1719C 226.917 22.3281 224.906 20.6198 224.906 18.0469C 224.906 16.5469 225.526 15.2969 226.766 14.2969C 228.016 13.2865 229.646 12.7812 231.656 12.7812C 233.802 12.7812 235.516 13.2865 236.797 14.2969C 238.089 15.3073 238.734 16.6198 238.734 18.2344L 234.219 18.2344C 234.219 17.5885 234.01 17.0573 233.594 16.6406C 233.177 16.2135 232.526 16 231.641 16C 230.88 16 230.292 16.1719 229.875 16.5156C 229.458 16.8594 229.25 17.2969 229.25 17.8281C 229.25 18.3281 229.484 18.7344 229.953 19.0469C 230.432 19.349 231.234 19.6146 232.359 19.8438C 233.484 20.0625 234.432 20.3125 235.203 20.5938C 237.589 21.4688 238.781 22.9844 238.781 25.1406C 238.781 26.6823 238.12 27.9323 236.797 28.8906C 235.474 29.8385 233.766 30.3125 231.672 30.3125C 230.255 30.3125 228.995 30.0625 227.891 29.5625C 226.797 29.0521 225.938 28.3594 225.312 27.4844C 224.688 26.599 224.375 25.6458 224.375 24.625L 228.656 24.625C 228.698 25.4271 228.995 26.0417 229.547 26.4688C 230.099 26.8958 230.839 27.1094 231.766 27.1094C 232.63 27.1094 233.281 26.9479 233.719 26.625C 234.167 26.2917 234.391 25.8594 234.391 25.3281ZM 250.859 25.3281C 250.859 24.776 250.583 24.3438 250.031 24.0312C 249.49 23.7083 248.615 23.4219 247.406 23.1719C 243.385 22.3281 241.375 20.6198 241.375 18.0469C 241.375 16.5469 241.995 15.2969 243.234 14.2969C 244.484 13.2865 246.115 12.7812 248.125 12.7812C 250.271 12.7812 251.984 13.2865 253.266 14.2969C 254.557 15.3073 255.203 16.6198 255.203 18.2344L 250.688 18.2344C 250.688 17.5885 250.479 17.0573 250.062 16.6406C 249.646 16.2135 248.995 16 248.109 16C 247.349 16 246.76 16.1719 246.344 16.5156C 245.927 16.8594 245.719 17.2969 245.719 17.8281C 245.719 18.3281 245.953 18.7344 246.422 19.0469C 246.901 19.349 247.703 19.6146 248.828 19.8438C 249.953 20.0625 250.901 20.3125 251.672 20.5938C 254.057 21.4688 255.25 22.9844 255.25 25.1406C 255.25 26.6823 254.589 27.9323 253.266 28.8906C 251.943 29.8385 250.234 30.3125 248.141 30.3125C 246.724 30.3125 245.464 30.0625 244.359 29.5625C 243.266 29.0521 242.406 28.3594 241.781 27.4844C 241.156 26.599 240.844 25.6458 240.844 24.625L 245.125 24.625C 245.167 25.4271 245.464 26.0417 246.016 26.4688C 246.568 26.8958 247.307 27.1094 248.234 27.1094C 249.099 27.1094 249.75 26.9479 250.188 26.625C 250.635 26.2917 250.859 25.8594 250.859 25.3281ZM 74.375 61.0312C 74.375 60.1458 74.0625 59.4688 73.4375 59C 72.8125 58.5208 71.6875 58.0208 70.0625 57.5C 68.4375 56.9688 67.151 56.4479 66.2031 55.9375C 63.6198 54.5417 62.3281 52.6615 62.3281 50.2969C 62.3281 49.0677 62.6719 47.974 63.3594 47.0156C 64.0573 46.0469 65.0521 45.2917 66.3438 44.75C 67.6458 44.2083 69.1042 43.9375 70.7188 43.9375C 72.3438 43.9375 73.7917 44.2344 75.0625 44.8281C 76.3333 45.4115 77.3177 46.2396 78.0156 47.3125C 78.724 48.3854 79.0781 49.6042 79.0781 50.9688L 74.3906 50.9688C 74.3906 49.9271 74.0625 49.1198 73.4062 48.5469C 72.75 47.9635 71.8281 47.6719 70.6406 47.6719C 69.4948 47.6719 68.6042 47.9167 67.9688 48.4062C 67.3333 48.8854 67.0156 49.5208 67.0156 50.3125C 67.0156 51.0521 67.3854 51.6719 68.125 52.1719C 68.875 52.6719 69.974 53.1406 71.4219 53.5781C 74.0885 54.3802 76.0312 55.375 77.25 56.5625C 78.4688 57.75 79.0781 59.2292 79.0781 61C 79.0781 62.9688 78.3333 64.5156 76.8438 65.6406C 75.3542 66.7552 73.349 67.3125 70.8281 67.3125C 69.0781 67.3125 67.4844 66.9948 66.0469 66.3594C 64.6094 65.7135 63.5104 64.8333 62.75 63.7188C 62 62.6042 61.625 61.3125 61.625 59.8438L 66.3281 59.8438C 66.3281 62.3542 67.8281 63.6094 70.8281 63.6094C 71.9427 63.6094 72.8125 63.3854 73.4375 62.9375C 74.0625 62.4792 74.375 61.8438 74.375 61.0312ZM 97.1875 58.7031C 97.1875 61.3073 96.5938 63.3958 95.4062 64.9688C 94.2292 66.5312 92.6354 67.3125 90.625 67.3125C 88.9167 67.3125 87.5365 66.7188 86.4844 65.5312L 86.4844 73.5L 81.9688 73.5L 81.9688 50.0938L 86.1562 50.0938L 86.3125 51.75C 87.4062 50.4375 88.8333 49.7812 90.5938 49.7812C 92.6771 49.7812 94.2969 50.5521 95.4531 52.0938C 96.6094 53.6354 97.1875 55.7604 97.1875 58.4688L 97.1875 58.7031ZM 92.6719 58.375C 92.6719 56.8021 92.3906 55.5885 91.8281 54.7344C 91.276 53.8802 90.4688 53.4531 89.4062 53.4531C 87.9896 53.4531 87.0156 53.9948 86.4844 55.0781L 86.4844 62C 87.0365 63.1146 88.0208 63.6719 89.4375 63.6719C 91.5938 63.6719 92.6719 61.9062 92.6719 58.375ZM 99.2969 58.3906C 99.2969 56.7135 99.6198 55.2188 100.266 53.9062C 100.911 52.5938 101.839 51.5781 103.047 50.8594C 104.266 50.1406 105.677 49.7812 107.281 49.7812C 109.562 49.7812 111.422 50.4792 112.859 51.875C 114.307 53.2708 115.115 55.1667 115.281 57.5625L 115.312 58.7188C 115.312 61.3125 114.589 63.3958 113.141 64.9688C 111.693 66.5312 109.75 67.3125 107.312 67.3125C 104.875 67.3125 102.927 66.5312 101.469 64.9688C 100.021 63.4062 99.2969 61.2812 99.2969 58.5938L 99.2969 58.3906ZM 103.812 58.7188C 103.812 60.3229 104.115 61.5521 104.719 62.4062C 105.323 63.25 106.188 63.6719 107.312 63.6719C 108.406 63.6719 109.26 63.2552 109.875 62.4219C 110.49 61.5781 110.797 60.2344 110.797 58.3906C 110.797 56.8177 110.49 55.599 109.875 54.7344C 109.26 53.8698 108.396 53.4375 107.281 53.4375C 106.177 53.4375 105.323 53.8698 104.719 54.7344C 104.115 55.5885 103.812 56.9167 103.812 58.7188ZM 122.25 50.0938L 122.391 52.0469C 123.599 50.5365 125.219 49.7812 127.25 49.7812C 129.042 49.7812 130.375 50.3073 131.25 51.3594C 132.125 52.4115 132.573 53.9844 132.594 56.0781L 132.594 67L 128.078 67L 128.078 56.1875C 128.078 55.2292 127.87 54.5365 127.453 54.1094C 127.036 53.6719 126.344 53.4531 125.375 53.4531C 124.104 53.4531 123.151 53.9948 122.516 55.0781L 122.516 67L 118 67L 118 50.0938L 122.25 50.0938ZM 145.188 62.3281C 145.188 61.776 144.911 61.3438 144.359 61.0312C 143.818 60.7083 142.943 60.4219 141.734 60.1719C 137.714 59.3281 135.703 57.6198 135.703 55.0469C 135.703 53.5469 136.323 52.2969 137.562 51.2969C 138.812 50.2865 140.443 49.7812 142.453 49.7812C 144.599 49.7812 146.312 50.2865 147.594 51.2969C 148.885 52.3073 149.531 53.6198 149.531 55.2344L 145.016 55.2344C 145.016 54.5885 144.807 54.0573 144.391 53.6406C 143.974 53.2135 143.323 53 142.438 53C 141.677 53 141.089 53.1719 140.672 53.5156C 140.255 53.8594 140.047 54.2969 140.047 54.8281C 140.047 55.3281 140.281 55.7344 140.75 56.0469C 141.229 56.349 142.031 56.6146 143.156 56.8438C 144.281 57.0625 145.229 57.3125 146 57.5938C 148.385 58.4688 149.578 59.9844 149.578 62.1406C 149.578 63.6823 148.917 64.9323 147.594 65.8906C 146.271 66.8385 144.562 67.3125 142.469 67.3125C 141.052 67.3125 139.792 67.0625 138.688 66.5625C 137.594 66.0521 136.734 65.3594 136.109 64.4844C 135.484 63.599 135.172 62.6458 135.172 61.625L 139.453 61.625C 139.495 62.4271 139.792 63.0417 140.344 63.4688C 140.896 63.8958 141.635 64.1094 142.562 64.1094C 143.427 64.1094 144.078 63.9479 144.516 63.625C 144.964 63.2917 145.188 62.8594 145.188 62.3281ZM 151.797 58.3906C 151.797 56.7135 152.12 55.2188 152.766 53.9062C 153.411 52.5938 154.339 51.5781 155.547 50.8594C 156.766 50.1406 158.177 49.7812 159.781 49.7812C 162.062 49.7812 163.922 50.4792 165.359 51.875C 166.807 53.2708 167.615 55.1667 167.781 57.5625L 167.812 58.7188C 167.812 61.3125 167.089 63.3958 165.641 64.9688C 164.193 66.5312 162.25 67.3125 159.812 67.3125C 157.375 67.3125 155.427 66.5312 153.969 64.9688C 152.521 63.4062 151.797 61.2812 151.797 58.5938L 151.797 58.3906ZM 156.312 58.7188C 156.312 60.3229 156.615 61.5521 157.219 62.4062C 157.823 63.25 158.688 63.6719 159.812 63.6719C 160.906 63.6719 161.76 63.2552 162.375 62.4219C 162.99 61.5781 163.297 60.2344 163.297 58.3906C 163.297 56.8177 162.99 55.599 162.375 54.7344C 161.76 53.8698 160.896 53.4375 159.781 53.4375C 158.677 53.4375 157.823 53.8698 157.219 54.7344C 156.615 55.5885 156.312 56.9167 156.312 58.7188ZM 180.094 54.3281C 179.479 54.2448 178.938 54.2031 178.469 54.2031C 176.76 54.2031 175.641 54.7812 175.109 55.9375L 175.109 67L 170.594 67L 170.594 50.0938L 174.859 50.0938L 174.984 52.1094C 175.891 50.5573 177.146 49.7812 178.75 49.7812C 179.25 49.7812 179.719 49.849 180.156 49.9844L 180.094 54.3281ZM 191.438 62.3281C 191.438 61.776 191.161 61.3438 190.609 61.0312C 190.068 60.7083 189.193 60.4219 187.984 60.1719C 183.964 59.3281 181.953 57.6198 181.953 55.0469C 181.953 53.5469 182.573 52.2969 183.812 51.2969C 185.062 50.2865 186.693 49.7812 188.703 49.7812C 190.849 49.7812 192.562 50.2865 193.844 51.2969C 195.135 52.3073 195.781 53.6198 195.781 55.2344L 191.266 55.2344C 191.266 54.5885 191.057 54.0573 190.641 53.6406C 190.224 53.2135 189.573 53 188.688 53C 187.927 53 187.339 53.1719 186.922 53.5156C 186.505 53.8594 186.297 54.2969 186.297 54.8281C 186.297 55.3281 186.531 55.7344 187 56.0469C 187.479 56.349 188.281 56.6146 189.406 56.8438C 190.531 57.0625 191.479 57.3125 192.25 57.5938C 194.635 58.4688 195.828 59.9844 195.828 62.1406C 195.828 63.6823 195.167 64.9323 193.844 65.8906C 192.521 66.8385 190.812 67.3125 188.719 67.3125C 187.302 67.3125 186.042 67.0625 184.938 66.5625C 183.844 66.0521 182.984 65.3594 182.359 64.4844C 181.734 63.599 181.422 62.6458 181.422 61.625L 185.703 61.625C 185.745 62.4271 186.042 63.0417 186.594 63.4688C 187.146 63.8958 187.885 64.1094 188.812 64.1094C 189.677 64.1094 190.328 63.9479 190.766 63.625C 191.214 63.2917 191.438 62.8594 191.438 62.3281ZM 203.156 51.9375C 204.354 50.5 205.859 49.7812 207.672 49.7812C 211.339 49.7812 213.198 51.9115 213.25 56.1719L 213.25 67L 208.734 67L 208.734 56.2969C 208.734 55.3281 208.526 54.6146 208.109 54.1562C 207.693 53.6875 207 53.4531 206.031 53.4531C 204.708 53.4531 203.75 53.9635 203.156 54.9844L 203.156 67L 198.641 67L 198.641 43L 203.156 43L 203.156 51.9375ZM 221.422 67L 216.891 67L 216.891 50.0938L 221.422 50.0938L 221.422 67ZM 216.625 45.7188C 216.625 45.0417 216.849 44.4844 217.297 44.0469C 217.755 43.6094 218.375 43.3906 219.156 43.3906C 219.927 43.3906 220.542 43.6094 221 44.0469C 221.458 44.4844 221.688 45.0417 221.688 45.7188C 221.688 46.4062 221.453 46.9688 220.984 47.4062C 220.526 47.8438 219.917 48.0625 219.156 48.0625C 218.396 48.0625 217.781 47.8438 217.312 47.4062C 216.854 46.9688 216.625 46.4062 216.625 45.7188ZM 240.375 58.7031C 240.375 61.3073 239.781 63.3958 238.594 64.9688C 237.417 66.5312 235.823 67.3125 233.812 67.3125C 232.104 67.3125 230.724 66.7188 229.672 65.5312L 229.672 73.5L 225.156 73.5L 225.156 50.0938L 229.344 50.0938L 229.5 51.75C 230.594 50.4375 232.021 49.7812 233.781 49.7812C 235.865 49.7812 237.484 50.5521 238.641 52.0938C 239.797 53.6354 240.375 55.7604 240.375 58.4688L 240.375 58.7031ZM 235.859 58.375C 235.859 56.8021 235.578 55.5885 235.016 54.7344C 234.464 53.8802 233.656 53.4531 232.594 53.4531C 231.177 53.4531 230.203 53.9948 229.672 55.0781L 229.672 62C 230.224 63.1146 231.208 63.6719 232.625 63.6719C 234.781 63.6719 235.859 61.9062 235.859 58.375Z"/>
<path id="path7_fill" d="M 121.679 34.8985L 103.729 6.45851C 103.597 6.24968 103.426 6.0689 103.224 5.92659C 103.023 5.78429 102.795 5.68327 102.554 5.62935C 102.313 5.57544 102.064 5.5697 101.821 5.61246C 101.578 5.65522 101.346 5.74565 101.139 5.87851L 88.5485 13.9485C 88.1311 14.2154 87.8367 14.6369 87.7299 15.1206C 87.623 15.6043 87.7124 16.1107 87.9785 16.5285L 89.0485 18.2285L 86.4485 19.2285C 86.1981 19.3304 85.9229 19.3548 85.6585 19.2985L 77.6585 17.6085C 73.0475 16.6371 68.2905 16.5828 63.6585 17.4485L 56.0485 18.8985C 53.9959 19.283 52.0952 20.2437 50.5685 21.6685L 43.5685 20.5485L 43.3085 20.4785L 32.8485 14.2185L 35.7685 9.52851C 35.8732 9.36117 35.9439 9.17481 35.9765 8.9801C 36.009 8.78539 36.0028 8.58617 35.9583 8.39386C 35.9137 8.20155 35.8315 8.01994 35.7166 7.85943C 35.6017 7.69892 35.4562 7.56268 35.2885 7.45851L 23.6885 0.228512C 23.5212 0.123777 23.3348 0.0531026 23.1401 0.0205425C 22.9454 -0.0120177 22.7462 -0.00582438 22.5539 0.0387691C 22.3616 0.0833626 22.1799 0.165478 22.0194 0.280407C 21.8589 0.395336 21.7227 0.540819 21.6185 0.708512L 0.228513 35.0785C 0.123778 35.2458 0.0531036 35.4322 0.0205435 35.6269C -0.0120166 35.8216 -0.0058224 36.0209 0.0387711 36.2132C 0.0833646 36.4055 0.16548 36.5871 0.280409 36.7476C 0.395338 36.9081 0.54082 37.0443 0.708513 37.1485L 12.3085 44.3785C 12.5453 44.5273 12.8189 44.607 13.0985 44.6085C 13.2115 44.6216 13.3256 44.6216 13.4385 44.6085C 13.825 44.5171 14.1594 44.2761 14.3685 43.9385L 16.8485 40.0185L 22.4485 42.7385L 29.5985 52.1685L 27.5985 55.0085C 26.6876 56.3067 26.3277 57.9128 26.5975 59.4757C 26.8674 61.0385 27.745 62.4309 29.0385 63.3485L 29.1385 63.4285C 30.1271 64.1317 31.3055 64.5187 32.5185 64.5385C 32.5136 65.5171 32.7447 66.4825 33.192 67.3528C 33.6394 68.2232 34.2899 68.9729 35.0885 69.5385C 36.1001 70.2446 37.3048 70.6218 38.5385 70.6185C 39.2495 70.6229 39.955 70.494 40.6185 70.2385C 40.9103 71.031 41.3662 71.753 41.9562 72.3572C 42.5463 72.9614 43.2572 73.4342 44.0425 73.7447C 44.8279 74.0553 45.6699 74.1965 46.5136 74.1593C 47.3573 74.122 48.1836 73.9071 48.9385 73.5285C 49.5373 74.6557 50.5095 75.5395 51.6885 76.0285C 52.3642 76.3066 53.0879 76.4493 53.8185 76.4485C 54.6582 76.4459 55.486 76.2507 56.2384 75.878C 56.9908 75.5053 57.6477 74.9649 58.1585 74.2985L 67.2485 75.6885C 67.8574 75.7816 68.4725 75.8284 69.0885 75.8285C 72.2262 75.8267 75.2355 74.5828 77.4585 72.3685C 77.6785 72.3685 77.8885 72.3685 78.0985 72.3685C 79.2301 72.3669 80.3434 72.0824 81.3372 71.541C 82.3309 70.9996 83.1735 70.2185 83.7885 69.2685C 84.4806 68.3266 84.8522 67.1874 84.8485 66.0185L 84.9285 66.0185C 86.1153 66.0234 87.2848 65.7336 88.332 65.175C 89.3792 64.6165 90.2714 63.8068 90.9285 62.8185C 91.4594 61.9993 91.7631 61.0537 91.8085 60.0785C 91.9585 60.0785 92.1085 60.0785 92.2685 60.0785C 93.3283 60.1211 94.3821 59.901 95.3361 59.4376C 96.2902 58.9742 97.1148 58.2821 97.7365 57.4228C 98.3582 56.5635 98.7577 55.5638 98.8993 54.5127C 99.041 53.4616 98.9205 52.3917 98.5485 51.3985L 105.729 44.6185L 105.919 44.9185C 106.05 45.1273 106.221 45.3081 106.423 45.4504C 106.624 45.5927 106.852 45.6938 107.093 45.7477C 107.334 45.8016 107.583 45.8073 107.826 45.7646C 108.069 45.7218 108.301 45.6314 108.509 45.4985L 121.099 37.4285C 121.504 37.1639 121.791 36.7524 121.899 36.2805C 122.007 35.8087 121.928 35.3133 121.679 34.8985ZM 12.6185 41.0185L 3.56851 35.3785L 23.3985 3.56851L 32.4485 9.20851L 12.6185 41.0185ZM 34.3185 59.9385C 33.9839 60.3369 33.5205 60.6058 33.0085 60.6985C 32.7119 60.7507 32.4078 60.7431 32.1141 60.6762C 31.8205 60.6092 31.5432 60.4842 31.2985 60.3085L 31.1985 60.2285C 30.7135 59.8791 30.3852 59.3531 30.2842 58.764C 30.1832 58.1748 30.3176 57.5695 30.6585 57.0785L 34.2185 52.0185C 34.4221 51.7138 34.6971 51.4634 35.0195 51.2891C 35.3419 51.1148 35.702 51.0219 36.0685 51.0185C 36.5074 51.0204 36.9369 51.1451 37.3085 51.3785C 37.8136 51.6873 38.1766 52.1828 38.3189 52.7575C 38.4612 53.3321 38.3712 53.9397 38.0685 54.4485L 34.3185 59.9385ZM 41.3185 64.5885C 41.2185 64.7285 41.1585 64.8985 41.0685 65.0485L 40.5385 65.8185C 40.3634 66.073 40.1396 66.2903 39.8801 66.4578C 39.6205 66.6253 39.3304 66.7398 39.0264 66.7947C 38.7224 66.8495 38.4106 66.8437 38.1089 66.7774C 37.8071 66.7111 37.5215 66.5857 37.2685 66.4085C 36.7784 66.0496 36.4462 65.5148 36.3418 64.9163C 36.2374 64.3179 36.3688 63.7022 36.7085 63.1985L 37.4685 62.0785C 37.5185 62.0085 37.5885 61.9585 37.6285 61.8785L 41.1485 56.7085C 41.1485 56.7085 41.1485 56.6185 41.2185 56.5685L 44.2185 52.1885C 44.5652 51.6882 45.0924 51.3419 45.6893 51.2225C 46.2862 51.1031 46.9061 51.22 47.4185 51.5485C 47.6799 51.7182 47.9048 51.9384 48.08 52.1962C 48.2551 52.454 48.377 52.7441 48.4385 53.0497C 48.5 53.3552 48.4998 53.6699 48.438 53.9754C 48.3762 54.2809 48.254 54.5709 48.0785 54.8285L 47.0785 56.3485L 47.0085 56.4285L 41.3185 64.5885ZM 49.3185 67.7285C 49.2285 67.8585 49.1685 68.0185 49.0885 68.1585L 48.2585 69.3685C 47.9323 69.8336 47.448 70.1642 46.896 70.2985C 46.344 70.4328 45.762 70.3618 45.2585 70.0985C 44.7529 69.8255 44.3654 69.3759 44.1699 68.8356C 43.9744 68.2952 43.9846 67.7019 44.1985 67.1685L 50.1485 58.4485C 50.5159 57.959 51.0626 57.6353 51.6685 57.5485L 52.0085 57.5485C 52.5405 57.5485 53.0563 57.7322 53.4685 58.0685C 53.9059 58.4499 54.1867 58.9796 54.2569 59.5556C 54.327 60.1317 54.1816 60.7133 53.8485 61.1885L 52.1585 63.6485C 52.1585 63.6985 52.0685 63.7385 52.0285 63.7985L 49.3185 67.7285ZM 58.0385 68.0185L 55.2985 71.9585C 55.0543 72.3269 54.6817 72.5912 54.2534 72.7C 53.825 72.8088 53.3715 72.7544 52.981 72.5473C 52.5906 72.3403 52.2911 71.9953 52.141 71.5797C 51.9908 71.164 52.0006 70.7073 52.1685 70.2985L 55.2385 65.8285C 55.5183 65.5062 55.9057 65.2965 56.3285 65.2385L 56.5785 65.2385C 56.9915 65.2392 57.3912 65.3842 57.7085 65.6485C 58.0463 65.9332 58.2668 66.3328 58.3277 66.7703C 58.3886 67.2078 58.2856 67.6524 58.0385 68.0185ZM 94.6785 55.0985C 94.2704 55.7232 93.6357 56.1651 92.9082 56.3311C 92.1808 56.4971 91.4172 56.3743 90.7785 55.9885L 74.8485 46.4185C 74.6377 46.2924 74.4042 46.2091 74.1612 46.1733C 73.9183 46.1375 73.6706 46.1499 73.4324 46.2098C 73.1942 46.2697 72.9702 46.3759 72.7731 46.5224C 72.5759 46.6689 72.4096 46.8527 72.2835 47.0635C 72.1574 47.2743 72.0741 47.5078 72.0383 47.7508C 72.0025 47.9938 72.0149 48.2414 72.0748 48.4796C 72.1347 48.7178 72.2409 48.9418 72.3874 49.139C 72.5339 49.3361 72.7177 49.5024 72.9285 49.6285L 85.6785 57.2585L 87.2085 58.1785C 87.4265 58.3009 87.617 58.4667 87.7684 58.6656C 87.9198 58.8645 88.0289 59.0924 88.0889 59.335C 88.1488 59.5777 88.1584 59.8301 88.1171 60.0767C 88.0758 60.3232 87.9844 60.5587 87.8485 60.7685C 87.3773 61.4763 86.6587 61.9824 85.8336 62.1878C 85.0085 62.3931 84.1365 62.2828 83.3885 61.8785L 70.8485 55.0885C 70.6325 54.971 70.3954 54.8971 70.1509 54.8712C 69.9063 54.8453 69.659 54.8678 69.4232 54.9375C 69.1873 55.0071 68.9675 55.1225 68.7762 55.2771C 68.585 55.4317 68.426 55.6225 68.3085 55.8385C 68.191 56.0545 68.1171 56.2916 68.0912 56.5362C 68.0653 56.7807 68.0878 57.028 68.1575 57.2638C 68.2271 57.4997 68.3425 57.7195 68.4971 57.9108C 68.6517 58.102 68.8425 58.261 69.0585 58.3785L 78.0585 63.2785L 80.2885 64.6385C 80.4928 64.7624 80.6689 64.9277 80.8054 65.1238C 80.9419 65.3199 81.0357 65.5424 81.081 65.777C 81.1262 66.0116 81.1217 66.2531 81.0679 66.4859C 81.0141 66.7187 80.9121 66.9376 80.7685 67.1285L 80.6885 67.2385C 80.2787 67.8873 79.64 68.3584 78.8991 68.5585C 78.1582 68.7585 77.3692 68.6729 76.6885 68.3185L 67.0385 63.4185C 66.5956 63.1944 66.0818 63.1554 65.6101 63.3101C 65.1385 63.4649 64.7476 63.8006 64.5235 64.2435C 64.2994 64.6864 64.2604 65.2002 64.4151 65.6719C 64.5699 66.1435 64.9056 66.5344 65.3485 66.7585L 73.3485 70.8285C 71.7143 71.8648 69.765 72.2865 67.8485 72.0185L 60.5985 70.9085L 61.1085 70.1685C 61.6335 69.4243 61.9651 68.5613 62.0734 67.657C 62.1818 66.7528 62.0635 65.8358 61.7292 64.9887C 61.3949 64.1415 60.8551 63.3909 60.1585 62.8043C 59.4618 62.2177 58.6302 61.8137 57.7385 61.6285C 58.0143 60.7417 58.0804 59.8031 57.9318 58.8864C 57.7831 57.9697 57.4237 57.1 56.8818 56.3459C 56.3399 55.5917 55.6304 54.9736 54.809 54.5402C 53.9877 54.1069 53.0769 53.8701 52.1485 53.8485C 52.2088 52.5399 51.8435 51.2469 51.1072 50.1634C 50.3709 49.0799 49.3033 48.2641 48.0643 47.8384C 46.8254 47.4126 45.4819 47.3998 44.2351 47.8019C 42.9883 48.2039 41.9053 48.9992 41.1485 50.0685C 40.662 49.3294 40.0205 48.7049 39.2685 48.2385C 38.1253 47.5118 36.7698 47.1934 35.4225 47.335C 34.0753 47.4766 32.8156 48.07 31.8485 49.0185L 25.0185 40.0185C 24.7986 39.7299 24.5 39.5111 24.1585 39.3885L 18.8485 36.7985L 30.9185 17.3585L 41.0185 23.4985C 41.1315 23.5962 41.2557 23.6802 41.3885 23.7485C 41.8747 24.0001 42.3979 24.1723 42.9385 24.2585L 47.7885 25.0185L 42.8485 31.3985C 42.4391 31.9351 42.1401 32.5475 41.9687 33.2003C 41.7973 33.8531 41.7569 34.5334 41.8499 35.2019C 41.9429 35.8705 42.1674 36.5139 42.5104 37.0952C 42.8534 37.6764 43.3082 38.184 43.8485 38.5885C 44.622 39.1699 45.5442 39.5206 46.5086 39.6003C 47.4729 39.6799 48.4401 39.4851 49.2985 39.0385L 62.9985 31.8785C 63.2132 31.7654 63.4542 31.7113 63.6966 31.7219C 63.9391 31.7324 64.1744 31.8072 64.3785 31.9385L 93.8485 51.0185C 94.1724 51.2269 94.4514 51.4979 94.6691 51.8157C 94.8868 52.1334 95.0387 52.4915 95.1161 52.8688C 95.1934 53.2461 95.1945 53.6351 95.1194 54.0128C 95.0442 54.3906 94.8943 54.7495 94.6785 55.0685L 94.6785 55.0985ZM 96.3985 48.3485C 96.2321 48.2033 96.0585 48.0665 95.8785 47.9385L 66.4085 28.8085C 65.648 28.3166 64.7707 28.0352 63.8659 27.993C 62.9612 27.9508 62.0615 28.1494 61.2585 28.5685L 47.5585 35.7285C 47.3287 35.8487 47.0696 35.9013 46.8111 35.88C 46.5527 35.8588 46.3056 35.7646 46.0985 35.6085C 45.811 35.3869 45.6231 35.0602 45.5762 34.7002C 45.5294 34.3402 45.6273 33.9764 45.8485 33.6885L 52.2985 25.3085C 53.3888 23.8861 54.9667 22.9173 56.7285 22.5885L 64.2885 21.1785C 68.4444 20.4035 72.7123 20.4545 76.8485 21.3285L 84.8485 23.0185C 85.8518 23.237 86.8978 23.1464 87.8485 22.7585L 91.0785 21.4585L 103.689 41.4585L 96.3985 48.3485ZM 108.079 41.3485L 92.0785 16.0785L 101.519 10.0785L 117.519 35.3485L 108.079 41.3485Z"/>
<path id="path8_fill" d="M 0.559791 0.470287C 0.210654 0.821272 0.0131665 1.29523 0.00978789 1.79029C -0.00326263 1.90993 -0.00326263 2.03064 0.00978789 2.15029C 0.0651741 2.38606 0.156219 2.61199 0.279785 2.82029C 0.352809 2.92252 0.433017 3.01943 0.51979 3.11029C 0.869547 3.46126 1.3443 3.65908 1.83979 3.66029C 1.95945 3.67311 2.08013 3.67311 2.19979 3.66029C 2.32025 3.63699 2.43766 3.60009 2.54979 3.55029C 2.66227 3.50949 2.76966 3.4558 2.86979 3.39029C 2.97192 3.31713 3.06882 3.23694 3.15979 3.15029C 3.24659 3.05945 3.32679 2.96254 3.39979 2.86029C 3.46687 2.75776 3.52701 2.65086 3.57979 2.54029C 3.61976 2.42562 3.65314 2.30876 3.67979 2.19029C 3.69231 2.07061 3.69231 1.94996 3.67979 1.83029C 3.67857 1.3348 3.48076 0.860045 3.12979 0.510288C 2.78109 0.189168 2.3264 0.00760934 1.85242 0.000232207C 1.37844 -0.00714492 0.918319 0.160175 0.559791 0.470287Z"/>
<path id="path9_fill" d="M 1.74 3.48C 2.70098 3.48 3.48 2.70097 3.48 1.74C 3.48 0.779024 2.70098 0 1.74 0C 0.779026 0 0 0.779024 0 1.74C 0 2.70097 0.779026 3.48 1.74 3.48Z"/>
</defs>
</svg>
