<svg version="1.1" id="Capa_1reddit" xmlns="http://www.w3.org/2000/svg" xmlns:xlink="http://www.w3.org/1999/xlink" x="0px" y="0px"
	 viewBox="0 0 50 50" {{ with .size }} width="{{ . }}" {{ end }} xml:space="preserve">

<title>reddit-social-logo-character</title>
<g>
	<path {{ with .fill }} fill="{{ . }}" {{ end }} d="M8.2,24.7c0,0.9,0.4,1.7,1.1,2.3c0.7-1.8,1.9-3.4,3.5-4.5c-0.5-0.4-1.1-0.6-1.8-0.6
		C9.5,21.8,8.2,23.1,8.2,24.7z"/>
	<path {{ with .fill }} fill="{{ . }}" {{ end }} d="M37.2,15.4c1.2,0,2.1-1,2.1-2.1c0-1.2-1-2.1-2.1-2.1c-1.2,0-2.1,1-2.1,2.1C35.1,14.4,36.1,15.4,37.2,15.4z"/>
	<path {{ with .fill }} fill="{{ . }}" {{ end }} d="M25,0C11.2,0,0,11.2,0,25s11.2,25,25,25s25-11.2,25-25S38.8,0,25,0z M40.8,28.2c0.1,0.4,0.1,0.8,0.1,1.2
		c0,5.9-7.2,10.6-16,10.6c-8.8,0-16-4.8-16-10.6c0-0.4,0-0.9,0.1-1.3c-1.2-0.7-2-2-2-3.4c0-2.2,1.8-4,4-4c1,0,2,0.4,2.7,1.1
		c3.3-2,7-3,10.9-3l2.5-7.8c0.1-0.3,0.4-0.4,0.7-0.4l6.5,1.5c0.5-1.2,1.7-2.1,3-2.1c1.8,0,3.2,1.5,3.2,3.2c0,1.8-1.5,3.2-3.2,3.2
		c-1.8,0-3.2-1.5-3.2-3.2c0,0,0-0.1,0-0.1l-6-1.4l-2.2,7c3.7,0.1,7.3,1.1,10.4,3.1c0.7-0.7,1.7-1.1,2.8-1.1c2.2,0,4,1.8,4,4
		C42.9,26.2,42.1,27.5,40.8,28.2z"/>
	<circle {{ with .fill }} fill="{{ . }}" {{ end }} cx="19.6" cy="27.4" r="2.4"/>
	<path {{ with .fill }} fill="{{ . }}" {{ end }} d="M30.5,25c-1.3,0-2.4,1.1-2.4,2.4c0,1.3,1,2.3,2.3,2.3c0,0,0,0,0,0c1.3,0,2.4-1,2.4-2.4
		C32.8,26.1,31.8,25,30.5,25z"/>
	<path {{ with .fill }} fill="{{ . }}" {{ end }} d="M29.9,33.6c-1,1-2.6,1.4-4.9,1.4c-2.3,0-3.9-0.4-4.9-1.4c-0.2-0.2-0.6-0.2-0.8,0c0,0,0,0,0,0
		c-0.2,0.2-0.2,0.6,0,0.8c1.2,1.2,3,1.8,5.7,1.8c2.6,0,4.5-0.6,5.7-1.8v0c0.2-0.2,0.2-0.6,0-0.8C30.5,33.4,30.1,33.4,29.9,33.6z"/>
	<path {{ with .fill }} fill="{{ . }}" {{ end }} d="M38.9,21.8c-0.7,0-1.3,0.2-1.8,0.7c1.6,1.1,2.7,2.7,3.4,4.5c0.8-0.5,1.3-1.4,1.3-2.4
		C41.8,23.1,40.5,21.8,38.9,21.8z"/>
</g>
</svg>
