<svg {{ with .size }} width="{{ . }}" {{ end }} viewBox="0 0 50 50" version="1.1" xmlns="http://www.w3.org/2000/svg" xmlns:xlink="http://www.w3.org/1999/xlink">
<g id="Canvas_telegram" transform="translate(-3446 -3163)">
<g id="7_telegram">
<g id="Vector_telegram1">
<use xlink:href="#path0_fill_telegram" transform="matrix(1 1.22465e-16 -1.22465e-16 1 3446 3163)" {{ with .fill }} fill="{{ . }}" {{ end }}/>
</g>
<g id="Vector_telegram2">
<use xlink:href="#path1_fill_telegram" transform="matrix(1 1.22465e-16 -1.22465e-16 1 3461.93 3179.14)" {{ with .fill }} fill="{{ . }}" {{ end }}/>
</g>
<g id="Vector_telegram3">
<use xlink:href="#path1_fill_telegram" transform="matrix(1 1.22465e-16 -1.22465e-16 1 3461.93 3179.14)" {{ with .fill }} fill="{{ . }}" {{ end }}/>
</g>
<g id="Vector_telegram4">
<use xlink:href="#path0_fill_telegram" transform="matrix(1 1.22465e-16 -1.22465e-16 1 3446 3163)" {{ with .fill }} fill="{{ . }}" {{ end }}/>
</g>
</g>
</g>
<defs>
<path id="path0_fill_telegram" d="M 25 0C 11.1934 0 0 11.1934 0 25C 0 38.8066 11.1934 50 25 50C 38.8066 50 50 38.8066 50 25C 50 11.1934 38.8066 0 25 0ZM 40.089 11.0637L 34.2154 39.3209C 34.1829 39.4738 34.1129 39.6161 34.0116 39.7352C 33.9103 39.8542 33.781 39.9461 33.6353 40.0026C 33.4896 40.0591 33.3321 40.0784 33.177 40.0587C 33.022 40.0391 32.8743 39.9812 32.7473 39.8901L 24.7253 34.0659C 24.4887 33.8938 24.2018 33.8049 23.9094 33.813C 23.6169 33.8212 23.3354 33.926 23.1088 34.111L 18.6626 37.7374C 18.5436 37.8346 18.4025 37.9011 18.2517 37.9311C 18.1009 37.961 17.9451 37.9536 17.7979 37.9093C 17.6507 37.8651 17.5166 37.7854 17.4074 37.6772C 17.2982 37.5691 17.2171 37.4358 17.1714 37.289L 14.0813 27.3626L 6.10549 24.3824C 5.92694 24.3155 5.77294 24.1958 5.66392 24.0394C 5.5549 23.8829 5.49602 23.697 5.49506 23.5063C 5.49411 23.3156 5.55114 23.1292 5.65858 22.9716C 5.76603 22.8141 5.91882 22.6929 6.0967 22.6242L 38.8308 10C 38.988 9.93951 39.1585 9.92238 39.3246 9.95042C 39.4907 9.97845 39.6462 10.0506 39.7748 10.1594C 39.9034 10.2681 40.0005 10.4094 40.0557 10.5685C 40.111 10.7276 40.1225 10.8987 40.089 11.0637Z"/>
<path id="path1_fill_telegram" d="M 16.6585 0.462486L 3.79371 12.4207C 3.34338 12.8415 3.05288 13.4054 2.97173 14.0163L 2.53217 17.2658C 2.51935 17.3572 2.47554 17.4415 2.40807 17.5045C 2.34059 17.5675 2.25353 17.6055 2.16143 17.6121C 2.06933 17.6186 1.97777 17.5934 1.90204 17.5406C 1.82631 17.4877 1.771 17.4105 1.74535 17.3218L 0.0596408 11.3998C -0.0336341 11.0711 -0.0171458 10.721 0.106604 10.4025C 0.230354 10.084 0.454613 9.81452 0.745356 9.63501L 16.3344 0.033915C 16.3915 0.00230016 16.4582 -0.00764452 16.5221 0.00590594C 16.586 0.0194564 16.6428 0.0555931 16.6822 0.107685C 16.7216 0.159778 16.7409 0.224332 16.7366 0.289503C 16.7322 0.354674 16.7045 0.416091 16.6585 0.462486Z"/>
</defs>
</svg>
