<svg {{ with .size }} width="{{ . }}" {{ end }} viewBox="0 0 50 50" version="1.1" xmlns="http://www.w3.org/2000/svg" xmlns:xlink="http://www.w3.org/1999/xlink">
<g id="Canvas_tw" transform="translate(-3246 -3163)">
<g id="twitter-logo-button">
<g id="Group_tw1">
<g id="Group_tw2">
<g id="Vector_tw">
<use xlink:href="#path0_fill_tw" transform="translate(3246 3163)" {{ with .fill }} fill="{{ . }}" {{ end }}/>
</g>
</g>
</g>
</g>
</g>
<defs>
<path id="path0_fill_tw" d="M 25 0C 11.2151 0 0 11.2151 0 25C 0 38.7839 11.2151 50 25 50C 38.7839 50 50 38.7839 50 25C 50 11.2151 38.7859 0 25 0ZM 36.1526 19.2782C 36.1637 19.5259 36.1697 19.7756 36.1697 20.0254C 36.1697 27.6293 30.3835 36.3943 19.7968 36.3943C 16.5472 36.3943 13.5221 35.4447 10.9764 33.8113C 11.4265 33.8647 11.8847 33.8919 12.3489 33.8919C 15.0457 33.8919 17.526 32.9715 19.4957 31.4287C 16.9782 31.3824 14.8524 29.7188 14.1203 27.4319C 14.4707 27.4984 14.8322 27.5356 15.2018 27.5356C 15.7265 27.5356 16.236 27.4672 16.7184 27.3353C 14.086 26.8076 12.1032 24.4824 12.1032 21.693C 12.1032 21.6688 12.1032 21.6436 12.1042 21.6205C 12.8796 22.0505 13.7668 22.3103 14.7094 22.3395C 13.1666 21.3093 12.1506 19.547 12.1506 17.5512C 12.1506 16.4958 12.4335 15.5069 12.929 14.657C 15.7657 18.1392 20.0072 20.4292 24.7885 20.6709C 24.6898 20.2489 24.6405 19.8109 24.6405 19.3587C 24.6405 16.1816 27.2164 13.6047 30.3935 13.6047C 32.0491 13.6047 33.5425 14.3036 34.5938 15.4213C 35.9059 15.1635 37.1345 14.6862 38.2492 14.0246C 37.8162 15.369 36.9069 16.4958 35.7156 17.2088C 36.8807 17.0698 37.9924 16.7617 39.0206 16.3035C 38.2532 17.4555 37.2775 18.4695 36.1526 19.2782Z"/>
</defs>
</svg>
