<svg id="Слой_when" data-name="Слой when" xmlns="http://www.w3.org/2000/svg" viewBox="0 0 91.86 86.18"><defs><style>.cls-1{fill:#fff;}</style></defs><title>when</title><path class="cls-1" d="M276.58,44.66L265.42,55.82a2,2,0,1,0,2.83,2.83l11.16-11.17A2,2,0,0,0,276.58,44.66Z" transform="translate(-229.14 -3.03)"/><path class="cls-1" d="M320.69,5.06A2,2,0,0,0,319,3.34,37.34,37.34,0,0,0,287.88,14L268.3,35.68a19.85,19.85,0,0,0-24.44,3.86,2,2,0,0,0,.14,2.83l10.22,9.21L252,54.44a2,2,0,0,0,.16,2.65L267,71.93a2,2,0,0,0,2.63.17l2.9-2.23,9.19,10.19a2,2,0,0,0,1.38.66h0.1a2,2,0,0,0,1.34-.51,19.7,19.7,0,0,0,3.85-24.5l21.64-19.57,0.07-.07A37.31,37.31,0,0,0,320.69,5.06ZM267.4,39.82L258.33,49.9l0,0h0l-10-9A15.86,15.86,0,0,1,267.4,39.82Zm15.9,36-9-10h0l10.05-9.1A15.7,15.7,0,0,1,283.3,75.81Zm24-42.6L286.07,52.45l0,0a2,2,0,0,0-.29-0.27l-0.14-.08-0.2-.12-0.16-.06-0.2-.07-0.13,0-0.26,0h0a2,2,0,0,0-1.39.47l-0.05,0h0l-0.09.09L270.06,64.1a1.94,1.94,0,0,0-.59,2,2,2,0,0,0,.39.83l-1.25,1-12.4-12.35,1-1.25,0.11,0.08,0.17,0.11,0.14,0.07,0.2,0.09,0.14,0,0.22,0.05h0.41a2,2,0,0,0,1.38-.66l11.84-13.15a2,2,0,0,0,.4-0.67v0a2,2,0,0,0,.08-0.32s0-.08,0-0.12a2,2,0,0,0,0-.27s0,0,0,0,0-.08,0-0.12a2,2,0,0,0,0-.24c0-.05,0-0.1,0-0.15a2,2,0,0,0-.08-0.22l-0.08-.15a2,2,0,0,0-.11-0.19l-0.12-.14-0.1-.12L271.58,38l19.2-21.26a33.31,33.31,0,0,1,26.11-9.61A33.31,33.31,0,0,1,307.35,33.21Z" transform="translate(-229.14 -3.03)"/><path class="cls-1" d="M289.61,22.69h0a8.32,8.32,0,1,0,11.77,0,8.33,8.33,0,0,0-11.77,0Zm8.94,8.94a4.32,4.32,0,1,1,0-6.11A4.33,4.33,0,0,1,298.54,31.63Z" transform="translate(-229.14 -3.03)"/><path class="cls-1" d="M247.93,62.86c-3.64.67-6.81,3.4-8.7,7.49-1.64,3.57-9.67,15.6-9.75,15.72a2,2,0,0,0,.08,2.34,1.54,1.54,0,0,0,1.5.79c1.18,0,3.5-.54,8.79-1.92a112.48,112.48,0,0,0,12.56-3.9,11.85,11.85,0,0,0,7.22-8.55,9.93,9.93,0,0,0-2.91-9.06A9.8,9.8,0,0,0,247.93,62.86Zm7.76,11.23a8,8,0,0,1-4.85,5.62,128.25,128.25,0,0,1-15.39,4.56c2.58-4,6.27-9.77,7.41-12.24,1.33-2.89,3.44-4.8,5.79-5.23a5.4,5.4,0,0,1,1-.09,6.08,6.08,0,0,1,4.28,1.93A5.92,5.92,0,0,1,255.69,74.1Z" transform="translate(-229.14 -3.03)"/></svg>