<svg id="Слой_who" data-name="Слой who" xmlns="http://www.w3.org/2000/svg" viewBox="0 0 72.84 84.22"><defs><style>.cls-1{fill:#fff;}</style></defs><title>who</title><path class="cls-1" d="M126.8,48.37V20.15a2.65,2.65,0,0,0-5.3,0V86.38A2.65,2.65,0,0,0,124.15,89h67.54a2.65,2.65,0,0,0,0-5.3H126.8V53.81a88.19,88.19,0,0,0,56-40.13l2.4,8a2.65,2.65,0,0,0,5.07-1.53L186.22,6.73a2.65,2.65,0,0,0-3-1.88L169.36,7.09a2.65,2.65,0,0,0,.85,5.23l8-1.33A82.91,82.91,0,0,1,126.8,48.37ZM144,65.17V75.77a2.65,2.65,0,0,0,5.3,0V62.53a2.65,2.65,0,0,0-2.65-2.65H134.74a2.65,2.65,0,0,0-2.65,2.65V75.77a2.65,2.65,0,0,0,5.3,0V65.17H144Zm22.51-10.54V75.77a2.65,2.65,0,0,0,5.3,0V51.93a2.65,2.65,0,0,0-2.65-2.65H157.26a2.65,2.65,0,0,0-2.65,2.65V75.77a2.65,2.65,0,1,0,5.3,0V54.58ZM189,34.72V75.77a2.65,2.65,0,1,0,5.3,0V32.07a2.65,2.65,0,0,0-2.65-2.65H179.77a2.65,2.65,0,0,0-2.65,2.65V75.77a2.65,2.65,0,0,0,5.3,0V34.72H189Z" transform="translate(-121.5 -4.81)"/></svg>