<svg id="Слой_why" data-name="Слой why" xmlns="http://www.w3.org/2000/svg" viewBox="0 0 78 78"><defs><style>.cls-1{fill:#fff;}</style></defs><title>why</title><path class="cls-1" d="M396.4,4.9a12,12,0,0,0-12,12,11.84,11.84,0,0,0,1.69,6H368.4a2,2,0,0,0-2,2V42.55a11.83,11.83,0,0,0-6-1.66,12,12,0,1,0,0,24,11.85,11.85,0,0,0,6-1.69V80.9a2,2,0,0,0,2,2h56a2,2,0,0,0,2-2v-22a2,2,0,0,0-3.59-1.22,8,8,0,1,1,0-9.59,2,2,0,0,0,3.59-1.19v-22a2,2,0,0,0-2-2H406.71a11.84,11.84,0,0,0,1.69-6A12,12,0,0,0,396.4,4.9Zm0,4a8,8,0,0,1,8,8,7.89,7.89,0,0,1-3.19,6.38,2,2,0,0,0,1.19,3.63h20V42.55a11.83,11.83,0,0,0-6-1.66,12,12,0,1,0,0,24,11.85,11.85,0,0,0,6-1.69V78.9h-52v-20a2,2,0,0,0-3.59-1.22,8,8,0,1,1,0-9.59,2,2,0,0,0,3.59-1.19v-20h20a2,2,0,0,0,1.19-3.62,7.89,7.89,0,0,1-3.19-6.37A8,8,0,0,1,396.4,8.9Z" transform="translate(-348.4 -4.9)"/></svg>