<svg version="1.1" id="Capa_1youtube" xmlns="http://www.w3.org/2000/svg" xmlns:xlink="http://www.w3.org/1999/xlink" x="0px" y="0px"
	 viewBox="0 0 50 50" {{ with .size }} width="{{ . }}" {{ end }} xml:space="preserve">

<title>youtube-symbol</title>
<g>
	<polygon {{ with .fill }} fill="{{ . }}" {{ end }} points="20.4,30.5 20.5,30.5 31.6,24.7 20.4,18.8 	"/>
	<path {{ with .fill }} fill="{{ . }}" {{ end }} d="M25,0C11.2,0,0,11.2,0,25s11.2,25,25,25s25-11.2,25-25S38.8,0,25,0z M42,33.3L42,33.3c-0.4,1.9-2,3.2-3.9,3.5
		c-4.4,0.4-8.8,0.6-13.2,0.5c-4.4,0.1-8.8-0.1-13.2-0.5c-1.9-0.2-3.4-1.6-3.8-3.5c-0.5-2.7-0.7-5.5-0.6-8.3
		c-0.1-2.8,0.1-5.6,0.6-8.3c0.4-1.8,1.9-3.2,3.8-3.5c4.4-0.4,8.8-0.6,13.3-0.5c4.4-0.1,8.8,0.1,13.2,0.5c1.9,0.2,3.4,1.6,3.8,3.5
		c0.5,2.7,0.7,5.5,0.6,8.3C42.8,27.8,42.6,30.6,42,33.3z"/>
</g>
</svg>
